Neuton-Regular.ufo
<glyph name="exclam" format="1">
  <advance width="412"/>
  <unicode hex="0021"/>
  <outline>
    <contour>
      <point x="83" y="92" type="curve" smooth="yes"/>
      <point x="83" y="159"/>
      <point x="140" y="210"/>
      <point x="206" y="210" type="curve" smooth="yes"/>
      <point x="273" y="210"/>
      <point x="331" y="157"/>
      <point x="331" y="90" type="curve" smooth="yes"/>
      <point x="331" y="20"/>
      <point x="276" y="-36"/>
      <point x="206" y="-36" type="curve" smooth="yes"/>
      <point x="136" y="-36"/>
      <point x="83" y="22"/>
    </contour>
    <contour>
      <point x="109" y="1245" type="curve" smooth="yes"/>
      <point x="109" y="1282"/>
      <point x="197" y="1292"/>
      <point x="240" y="1292" type="curve" smooth="yes"/>
      <point x="267" y="1292"/>
      <point x="304" y="1284"/>
      <point x="304" y="1253" type="curve" smooth="yes"/>
      <point x="304" y="1084"/>
      <point x="273" y="675"/>
      <point x="249" y="357" type="curve"/>
      <point x="162" y="376" type="line"/>
      <point x="147" y="669"/>
      <point x="109" y="1072"/>
    </contour>
  </outline>
</glyph>
<glyph name="numbersign" format="1">
  <advance width="913"/>
  <unicode hex="0023"/>
  <outline>
    <contour>
      <point x="182" y="-26" type="line"/>
      <point x="359" y="1149" type="line"/>
      <point x="465" y="1159" type="line"/>
      <point x="289" y="-19" type="line"/>
    </contour>
    <contour>
      <point x="49" y="711" type="line"/>
      <point x="83" y="836" type="line"/>
      <point x="992" y="836" type="line"/>
      <point x="961" y="711" type="line"/>
    </contour>
    <contour>
      <point x="-22" y="326" type="line"/>
      <point x="11" y="451" type="line"/>
      <point x="917" y="451" type="line"/>
      <point x="886" y="326" type="line"/>
    </contour>
    <contour>
      <point x="497" y="-26" type="line"/>
      <point x="673" y="1149" type="line"/>
      <point x="781" y="1158" type="line"/>
      <point x="604" y="-19" type="line"/>
    </contour>
  </outline>
</glyph>
<glyph name="dollar" format="1">
  <advance width="859"/>
  <unicode hex="0024"/>
  <outline>
    <contour>
      <point x="66" y="122" type="curve"/>
      <point x="79" y="389" type="line"/>
      <point x="181" y="375" type="line"/>
      <point x="220" y="187" type="line"/>
      <point x="256" y="130"/>
      <point x="333" y="77"/>
      <point x="426" y="77" type="curve" smooth="yes"/>
      <point x="531" y="77"/>
      <point x="663" y="139"/>
      <point x="663" y="287" type="curve" smooth="yes"/>
      <point x="663" y="547"/>
      <point x="90" y="544"/>
      <point x="90" y="916" type="curve" smooth="yes"/>
      <point x="90" y="1143"/>
      <point x="282" y="1269"/>
      <point x="479" y="1269" type="curve" smooth="yes"/>
      <point x="587" y="1269"/>
      <point x="682" y="1235"/>
      <point x="761" y="1169" type="curve"/>
      <point x="761" y="1161"/>
      <point x="739" y="887"/>
      <point x="739" y="887" type="curve"/>
      <point x="640" y="899" type="line"/>
      <point x="615" y="1090" type="line"/>
      <point x="597" y="1126"/>
      <point x="525" y="1185"/>
      <point x="445" y="1185" type="curve" smooth="yes"/>
      <point x="345" y="1185"/>
      <point x="263" y="1126"/>
      <point x="263" y="995" type="curve" smooth="yes"/>
      <point x="263" y="708"/>
      <point x="847" y="730"/>
      <point x="847" y="354" type="curve" smooth="yes"/>
      <point x="847" y="124"/>
      <point x="630" y="-24"/>
      <point x="402" y="-24" type="curve" smooth="yes"/>
      <point x="258" y="-24"/>
      <point x="130" y="43"/>
    </contour>
    <contour>
      <point x="367" y="-179" type="line"/>
      <point x="379" y="9" type="line"/>
      <point x="416" y="54" type="line"/>
      <point x="416" y="631" type="line"/>
      <point x="421" y="700" type="line"/>
      <point x="421" y="1207" type="line"/>
      <point x="385" y="1242" type="line"/>
      <point x="370" y="1394" type="line"/>
      <point x="535" y="1409" type="line"/>
      <point x="518" y="1242" type="line"/>
      <point x="483" y="1202" type="line"/>
      <point x="483" y="666" type="line"/>
      <point x="486" y="582" type="line"/>
      <point x="486" y="54" type="line"/>
      <point x="527" y="20" type="line"/>
      <point x="540" y="-164" type="line"/>
    </contour>
  </outline>
</glyph>
<glyph name="percent" format="1">
  <advance width="1197"/>
  <unicode hex="0025"/>
  <outline>
    <contour>
      <point x="29" y="898" type="curve" smooth="yes"/>
      <point x="29" y="1067"/>
      <point x="178" y="1211"/>
      <point x="301" y="1211" type="curve" smooth="yes"/>
      <point x="319" y="1211"/>
      <point x="324" y="1210"/>
      <point x="330" y="1208" type="curve"/>
      <point x="340" y="1142" type="line"/>
      <point x="325" y="1148"/>
      <point x="314" y="1154"/>
      <point x="295" y="1154" type="curve" smooth="yes"/>
      <point x="216" y="1154"/>
      <point x="194" y="1012"/>
      <point x="194" y="898" type="curve" smooth="yes"/>
      <point x="194" y="781"/>
      <point x="223" y="649"/>
      <point x="297" y="649" type="curve" smooth="yes"/>
      <point x="381" y="649"/>
      <point x="402" y="778"/>
      <point x="402" y="898" type="curve" smooth="yes"/>
      <point x="402" y="1041"/>
      <point x="384" y="1137"/>
      <point x="364" y="1198" type="curve"/>
      <point x="921" y="1210" type="line"/>
      <point x="931" y="1121" type="line"/>
      <point x="491" y="1137" type="line"/>
      <point x="541" y="1085"/>
      <point x="566" y="948"/>
      <point x="566" y="898" type="curve" smooth="yes"/>
      <point x="566" y="726"/>
      <point x="414" y="583"/>
      <point x="297" y="583" type="curve" smooth="yes"/>
      <point x="170" y="583"/>
      <point x="29" y="706"/>
    </contour>
    <contour>
      <point x="123" y="-10" type="line"/>
      <point x="530" y="588" type="line"/>
      <point x="921" y="1210" type="line"/>
      <point x="1087" y="1207" type="line"/>
      <point x="1085" y="1178" type="line"/>
      <point x="684" y="591" type="line"/>
      <point x="313" y="-32" type="line"/>
    </contour>
    <contour>
      <point x="647" y="277" type="curve" smooth="yes"/>
      <point x="647" y="446"/>
      <point x="794" y="590"/>
      <point x="917" y="590" type="curve" smooth="yes"/>
      <point x="1059" y="590"/>
      <point x="1181" y="453"/>
      <point x="1181" y="274" type="curve" smooth="yes"/>
      <point x="1181" y="105"/>
      <point x="1037" y="-36"/>
      <point x="920" y="-36" type="curve" smooth="yes"/>
      <point x="793" y="-36"/>
      <point x="647" y="87"/>
    </contour>
    <contour>
      <point x="812" y="277" type="curve" smooth="yes"/>
      <point x="812" y="160"/>
      <point x="846" y="32"/>
      <point x="920" y="32" type="curve" smooth="yes"/>
      <point x="1004" y="32"/>
      <point x="1021" y="158"/>
      <point x="1021" y="279" type="curve" smooth="yes"/>
      <point x="1021" y="399"/>
      <point x="993" y="534"/>
      <point x="917" y="534" type="curve" smooth="yes"/>
      <point x="832" y="534"/>
      <point x="812" y="391"/>
    </contour>
  </outline>
</glyph>
<glyph name="ampersand" format="1">
  <advance width="1281"/>
  <unicode hex="0026"/>
  <outline>
    <contour>
      <point x="1046" y="667" type="line"/>
      <point x="966" y="251"/>
      <point x="740" y="-22"/>
      <point x="376" y="-22" type="curve" smooth="yes"/>
      <point x="160" y="-22"/>
      <point x="23" y="104"/>
      <point x="23" y="300" type="curve" smooth="yes"/>
      <point x="23" y="451"/>
      <point x="116" y="589"/>
      <point x="309" y="681" type="curve"/>
      <point x="238" y="767"/>
      <point x="180" y="846"/>
      <point x="180" y="967" type="curve" smooth="yes"/>
      <point x="180" y="1123"/>
      <point x="334" y="1271"/>
      <point x="494" y="1271" type="curve" smooth="yes"/>
      <point x="673" y="1271"/>
      <point x="783" y="1176"/>
      <point x="783" y="1026" type="curve" smooth="yes"/>
      <point x="783" y="878"/>
      <point x="669" y="773"/>
      <point x="546" y="706" type="curve"/>
      <point x="546" y="695" type="line"/>
      <point x="862" y="325"/>
      <point x="1091" y="116"/>
      <point x="1202" y="79" type="curve" smooth="yes"/>
      <point x="1235" y="70" type="line"/>
      <point x="1220" y="0" type="line"/>
      <point x="1183" y="-13"/>
      <point x="1143" y="-19"/>
      <point x="1100" y="-19" type="curve" smooth="yes"/>
      <point x="989" y="-19"/>
      <point x="852" y="94"/>
      <point x="794" y="158" type="curve" smooth="yes"/>
      <point x="372" y="619" type="line"/>
      <point x="355" y="622" type="line"/>
      <point x="256" y="552"/>
      <point x="220" y="481"/>
      <point x="220" y="361" type="curve" smooth="yes"/>
      <point x="220" y="227"/>
      <point x="323" y="121"/>
      <point x="462" y="121" type="curve" smooth="yes"/>
      <point x="781" y="121"/>
      <point x="892" y="433"/>
      <point x="929" y="685" type="curve"/>
      <point x="777" y="711" type="line"/>
      <point x="784" y="787" type="line"/>
      <point x="1225" y="787" type="line"/>
      <point x="1218" y="711" type="line"/>
    </contour>
    <contour>
      <point x="345" y="1024" type="curve" smooth="yes"/>
      <point x="345" y="924"/>
      <point x="424" y="821"/>
      <point x="488" y="763" type="curve"/>
      <point x="572" y="818"/>
      <point x="626" y="867"/>
      <point x="626" y="988" type="curve" smooth="yes"/>
      <point x="626" y="1098"/>
      <point x="586" y="1188"/>
      <point x="474" y="1188" type="curve" smooth="yes"/>
      <point x="389" y="1188"/>
      <point x="345" y="1112"/>
    </contour>
  </outline>
</glyph>
<glyph name="quotesingle" format="1">
  <advance width="289"/>
  <unicode hex="0027"/>
  <outline>
    <contour>
      <point x="50" y="1302" type="line"/>
      <point x="233" y="1286" type="line"/>
      <point x="197" y="903" type="line"/>
      <point x="104" y="892" type="line"/>
    </contour>
  </outline>
</glyph>
<glyph name="asterisk" format="1">
  <advance width="808"/>
  <unicode hex="002A"/>
  <outline>
    <contour>
      <point x="328" y="1292" type="line"/>
      <point x="464" y="1279" type="line"/>
      <point x="438" y="988" type="line"/>
      <point x="727" y="1119" type="line"/>
      <point x="756" y="989" type="line"/>
      <point x="471" y="921" type="line"/>
      <point x="690" y="692" type="line"/>
      <point x="572" y="623" type="line"/>
      <point x="419" y="870" type="line"/>
      <point x="264" y="593" type="line"/>
      <point x="162" y="685" type="line"/>
      <point x="355" y="904" type="line"/>
      <point x="43" y="964" type="line"/>
      <point x="98" y="1091" type="line"/>
      <point x="365" y="977" type="line"/>
    </contour>
  </outline>
</glyph>
<glyph name="slash" format="1">
  <advance width="676"/>
  <unicode hex="002F"/>
  <outline>
    <contour>
      <point x="44" y="-363" type="line"/>
      <point x="506" y="1235" type="line"/>
      <point x="638" y="1244" type="line"/>
      <point x="172" y="-355" type="line"/>
    </contour>
  </outline>
</glyph>
<glyph name="zero" format="1">
  <advance width="982"/>
  <unicode hex="0030"/>
  <outline>
    <contour>
      <point x="74" y="586" type="curve" smooth="yes"/>
      <point x="74" y="1017"/>
      <point x="279" y="1203"/>
      <point x="500" y="1203" type="curve" smooth="yes"/>
      <point x="740" y="1203"/>
      <point x="908" y="1020"/>
      <point x="908" y="586" type="curve" smooth="yes"/>
      <point x="908" y="110"/>
      <point x="692" y="-27"/>
      <point x="494" y="-27" type="curve" smooth="yes"/>
      <point x="270" y="-27"/>
      <point x="74" y="94"/>
    </contour>
    <contour>
      <point x="290" y="583" type="curve" smooth="yes"/>
      <point x="290" y="236"/>
      <point x="329" y="70"/>
      <point x="500" y="70" type="curve" smooth="yes"/>
      <point x="647" y="70"/>
      <point x="690" y="235"/>
      <point x="690" y="586" type="curve" smooth="yes"/>
      <point x="690" y="928"/>
      <point x="651" y="1098"/>
      <point x="492" y="1098" type="curve" smooth="yes"/>
      <point x="330" y="1098"/>
      <point x="290" y="926"/>
    </contour>
  </outline>
</glyph>
<glyph name="one" format="1">
  <advance width="982"/>
  <unicode hex="0031"/>
  <outline>
    <contour>
      <point x="122" y="0" type="line"/>
      <point x="130" y="74" type="line"/>
      <point x="394" y="121" type="line"/>
      <point x="394" y="1031" type="line"/>
      <point x="144" y="1031" type="line"/>
      <point x="150" y="1108" type="line"/>
      <point x="570" y="1185" type="line"/>
      <point x="598" y="1185" type="line"/>
      <point x="598" y="114" type="line"/>
      <point x="860" y="83" type="line"/>
      <point x="850" y="0" type="line"/>
    </contour>
  </outline>
</glyph>
<glyph name="two" format="1">
  <advance width="982"/>
  <unicode hex="0032"/>
  <outline>
    <contour>
      <point x="74" y="102" type="line"/>
      <point x="289" y="269" type="line" smooth="yes"/>
      <point x="552" y="474"/>
      <point x="651" y="604"/>
      <point x="651" y="810" type="curve" smooth="yes"/>
      <point x="651" y="953"/>
      <point x="623" y="1105"/>
      <point x="449" y="1105" type="curve" smooth="yes"/>
      <point x="365" y="1105"/>
      <point x="302" y="1072"/>
      <point x="269" y="1027" type="curve"/>
      <point x="232" y="756" type="line"/>
      <point x="155" y="766" type="line"/>
      <point x="128" y="1060" type="line"/>
      <point x="186" y="1139"/>
      <point x="374" y="1209"/>
      <point x="517" y="1209" type="curve" smooth="yes"/>
      <point x="741" y="1209"/>
      <point x="870" y="1080"/>
      <point x="870" y="856" type="curve" smooth="yes"/>
      <point x="870" y="584"/>
      <point x="618" y="409"/>
      <point x="335" y="195" type="curve" smooth="yes"/>
      <point x="290" y="161" type="line"/>
      <point x="744" y="161" type="line"/>
      <point x="838" y="368" type="line"/>
      <point x="908" y="358" type="line"/>
      <point x="860" y="0" type="line"/>
      <point x="80" y="0" type="line"/>
    </contour>
  </outline>
</glyph>
<glyph name="three" format="1">
  <advance width="982"/>
  <unicode hex="0033"/>
  <outline>
    <contour>
      <point x="103" y="74" type="curve"/>
      <point x="154" y="373" type="line"/>
      <point x="239" y="360" type="line"/>
      <point x="252" y="157" type="line"/>
      <point x="275" y="115"/>
      <point x="345" y="72"/>
      <point x="415" y="72" type="curve" smooth="yes"/>
      <point x="571" y="72"/>
      <point x="663" y="141"/>
      <point x="663" y="277" type="curve" smooth="yes"/>
      <point x="663" y="445"/>
      <point x="494" y="545"/>
      <point x="332" y="545" type="curve"/>
      <point x="322" y="611" type="line"/>
      <point x="404" y="637"/>
      <point x="622" y="742"/>
      <point x="622" y="918" type="curve" smooth="yes"/>
      <point x="622" y="1018"/>
      <point x="561" y="1124"/>
      <point x="437" y="1124" type="curve" smooth="yes"/>
      <point x="383" y="1124"/>
      <point x="330" y="1108"/>
      <point x="293" y="1068" type="curve"/>
      <point x="247" y="812" type="line"/>
      <point x="162" y="823" type="line"/>
      <point x="144" y="1090" type="line"/>
      <point x="188" y="1138"/>
      <point x="350" y="1213"/>
      <point x="495" y="1213" type="curve" smooth="yes"/>
      <point x="685" y="1213"/>
      <point x="834" y="1125"/>
      <point x="834" y="960" type="curve" smooth="yes"/>
      <point x="834" y="798"/>
      <point x="670" y="693"/>
      <point x="549" y="649" type="curve"/>
      <point x="549" y="637" type="line"/>
      <point x="718" y="624"/>
      <point x="879" y="532"/>
      <point x="879" y="335" type="curve" smooth="yes"/>
      <point x="879" y="129"/>
      <point x="658" y="-30"/>
      <point x="394" y="-30" type="curve" smooth="yes"/>
      <point x="260" y="-30"/>
      <point x="131" y="29"/>
    </contour>
  </outline>
</glyph>
<glyph name="four" format="1">
  <advance width="982"/>
  <unicode hex="0034"/>
  <outline>
    <contour>
      <point x="15" y="401" type="line"/>
      <point x="657" y="1194" type="line"/>
      <point x="722" y="1176" type="line"/>
      <point x="716" y="1057"/>
      <point x="712" y="864"/>
      <point x="712" y="683" type="curve" smooth="yes"/>
      <point x="712" y="449" type="line"/>
      <point x="967" y="449" type="line"/>
      <point x="951" y="316" type="line"/>
      <point x="712" y="316" type="line"/>
      <point x="712" y="15" type="line"/>
      <point x="532" y="-16" type="line"/>
      <point x="532" y="319" type="line"/>
      <point x="38" y="319" type="line"/>
    </contour>
    <contour>
      <point x="200" y="449" type="line"/>
      <point x="529" y="449" type="line"/>
      <point x="529" y="912" type="line"/>
    </contour>
  </outline>
</glyph>
<glyph name="five" format="1">
  <advance width="982"/>
  <unicode hex="0035"/>
  <outline>
    <contour>
      <point x="127" y="74" type="curve"/>
      <point x="163" y="387" type="line"/>
      <point x="248" y="368" type="line"/>
      <point x="259" y="155" type="line"/>
      <point x="301" y="93"/>
      <point x="374" y="67"/>
      <point x="460" y="67" type="curve" smooth="yes"/>
      <point x="587" y="67"/>
      <point x="669" y="154"/>
      <point x="669" y="285" type="curve" smooth="yes"/>
      <point x="669" y="456"/>
      <point x="513" y="582"/>
      <point x="213" y="602" type="curve"/>
      <point x="332" y="1169" type="line"/>
      <point x="801" y="1198" type="line"/>
      <point x="775" y="1016" type="line"/>
      <point x="388" y="1000" type="line"/>
      <point x="352" y="762" type="line"/>
      <point x="686" y="732"/>
      <point x="845" y="560"/>
      <point x="845" y="349" type="curve" smooth="yes"/>
      <point x="845" y="154"/>
      <point x="661" y="-25"/>
      <point x="416" y="-25" type="curve" smooth="yes"/>
      <point x="303" y="-25"/>
      <point x="204" y="-3"/>
    </contour>
  </outline>
</glyph>
<glyph name="six" format="1">
  <advance width="982"/>
  <unicode hex="0036"/>
  <outline>
    <contour>
      <point x="96" y="421" type="curve" smooth="yes"/>
      <point x="96" y="756"/>
      <point x="389" y="1112"/>
      <point x="703" y="1214" type="curve"/>
      <point x="740" y="1155" type="line"/>
      <point x="479" y="1036"/>
      <point x="349" y="807"/>
      <point x="309" y="609" type="curve"/>
      <point x="320" y="609" type="line"/>
      <point x="364" y="659"/>
      <point x="447" y="709"/>
      <point x="555" y="709" type="curve" smooth="yes"/>
      <point x="749" y="709"/>
      <point x="886" y="589"/>
      <point x="886" y="370" type="curve" smooth="yes"/>
      <point x="886" y="133"/>
      <point x="696" y="-21"/>
      <point x="479" y="-21" type="curve" smooth="yes"/>
      <point x="208" y="-21"/>
      <point x="96" y="187"/>
    </contour>
    <contour>
      <point x="299" y="406" type="curve" smooth="yes"/>
      <point x="299" y="235"/>
      <point x="364" y="61"/>
      <point x="486" y="61" type="curve" smooth="yes"/>
      <point x="648" y="61"/>
      <point x="681" y="174"/>
      <point x="681" y="328" type="curve" smooth="yes"/>
      <point x="681" y="463"/>
      <point x="624" y="606"/>
      <point x="482" y="606" type="curve" smooth="yes"/>
      <point x="408" y="606"/>
      <point x="330" y="563"/>
      <point x="306" y="527" type="curve"/>
      <point x="303" y="494"/>
      <point x="299" y="440"/>
    </contour>
  </outline>
</glyph>
<glyph name="seven" format="1">
  <advance width="982"/>
  <unicode hex="0037"/>
  <outline>
    <contour>
      <point x="85" y="809" type="line"/>
      <point x="109" y="1182" type="line"/>
      <point x="897" y="1182" type="line"/>
      <point x="897" y="1130" type="line"/>
      <point x="460" y="-33" type="line"/>
      <point x="253" y="-11" type="line"/>
      <point x="742" y="1015" type="line"/>
      <point x="229" y="1015" type="line"/>
      <point x="154" y="796" type="line"/>
    </contour>
  </outline>
</glyph>
<glyph name="eight" format="1">
  <advance width="982"/>
  <unicode hex="0038"/>
  <outline>
    <contour>
      <point x="110" y="283" type="curve" smooth="yes"/>
      <point x="110" y="398"/>
      <point x="210" y="516"/>
      <point x="352" y="583" type="curve"/>
      <point x="352" y="592" type="line"/>
      <point x="259" y="654"/>
      <point x="170" y="736"/>
      <point x="170" y="879" type="curve" smooth="yes"/>
      <point x="170" y="1047"/>
      <point x="325" y="1201"/>
      <point x="516" y="1201" type="curve" smooth="yes"/>
      <point x="722" y="1201"/>
      <point x="831" y="1077"/>
      <point x="831" y="926" type="curve" smooth="yes"/>
      <point x="831" y="820"/>
      <point x="762" y="704"/>
      <point x="632" y="647" type="curve"/>
      <point x="629" y="637" type="line"/>
      <point x="764" y="539"/>
      <point x="881" y="454"/>
      <point x="881" y="302" type="curve" smooth="yes"/>
      <point x="881" y="117"/>
      <point x="739" y="-27"/>
      <point x="461" y="-27" type="curve" smooth="yes"/>
      <point x="272" y="-27"/>
      <point x="110" y="90"/>
    </contour>
    <contour>
      <point x="299" y="307" type="curve" smooth="yes"/>
      <point x="299" y="143"/>
      <point x="412" y="61"/>
      <point x="526" y="61" type="curve" smooth="yes"/>
      <point x="621" y="61"/>
      <point x="703" y="130"/>
      <point x="703" y="223" type="curve" smooth="yes"/>
      <point x="703" y="374"/>
      <point x="510" y="480"/>
      <point x="419" y="541" type="curve"/>
      <point x="386" y="532"/>
      <point x="299" y="448"/>
    </contour>
    <contour>
      <point x="336" y="955" type="curve" smooth="yes"/>
      <point x="336" y="865"/>
      <point x="420" y="767"/>
      <point x="562" y="686" type="curve"/>
      <point x="622" y="720"/>
      <point x="665" y="780"/>
      <point x="665" y="890" type="curve" smooth="yes"/>
      <point x="665" y="1031"/>
      <point x="590" y="1124"/>
      <point x="491" y="1124" type="curve" smooth="yes"/>
      <point x="381" y="1124"/>
      <point x="336" y="1035"/>
    </contour>
  </outline>
</glyph>
<glyph name="nine" format="1">
  <advance width="982"/>
  <unicode hex="0039"/>
  <outline>
    <contour>
      <point x="104" y="802" type="curve" smooth="yes"/>
      <point x="104" y="1046"/>
      <point x="305" y="1211"/>
      <point x="496" y="1211" type="curve" smooth="yes"/>
      <point x="759" y="1211"/>
      <point x="878" y="998"/>
      <point x="878" y="764" type="curve" smooth="yes"/>
      <point x="878" y="365"/>
      <point x="638" y="39"/>
      <point x="262" y="-27" type="curve"/>
      <point x="240" y="47" type="line"/>
      <point x="568" y="144"/>
      <point x="643" y="331"/>
      <point x="662" y="575" type="curve"/>
      <point x="648" y="575" type="line"/>
      <point x="582" y="502"/>
      <point x="496" y="466"/>
      <point x="404" y="466" type="curve" smooth="yes"/>
      <point x="213" y="466"/>
      <point x="104" y="585"/>
    </contour>
    <contour>
      <point x="304" y="845" type="curve" smooth="yes"/>
      <point x="304" y="710"/>
      <point x="352" y="575"/>
      <point x="494" y="575" type="curve" smooth="yes"/>
      <point x="564" y="575"/>
      <point x="633" y="612"/>
      <point x="664" y="662" type="curve"/>
      <point x="672" y="708"/>
      <point x="674" y="766"/>
      <point x="674" y="806" type="curve" smooth="yes"/>
      <point x="674" y="970"/>
      <point x="606" y="1130"/>
      <point x="490" y="1130" type="curve" smooth="yes"/>
      <point x="342" y="1130"/>
      <point x="304" y="1023"/>
    </contour>
  </outline>
</glyph>
<glyph name="colon" format="1">
  <advance width="422"/>
  <unicode hex="003A"/>
  <outline>
    <contour>
      <point x="99" y="119" type="curve" smooth="yes"/>
      <point x="99" y="178"/>
      <point x="151" y="224"/>
      <point x="212" y="224" type="curve" smooth="yes"/>
      <point x="273" y="224"/>
      <point x="325" y="176"/>
      <point x="325" y="117" type="curve" smooth="yes"/>
      <point x="325" y="53"/>
      <point x="273" y="1"/>
      <point x="212" y="1" type="curve" smooth="yes"/>
      <point x="150" y="1"/>
      <point x="99" y="55"/>
    </contour>
    <contour>
      <point x="99" y="747" type="curve" smooth="yes"/>
      <point x="99" y="808"/>
      <point x="151" y="853"/>
      <point x="212" y="853" type="curve" smooth="yes"/>
      <point x="273" y="853"/>
      <point x="325" y="805"/>
      <point x="325" y="744" type="curve" smooth="yes"/>
      <point x="325" y="680"/>
      <point x="273" y="629"/>
      <point x="212" y="629" type="curve" smooth="yes"/>
      <point x="150" y="629"/>
      <point x="99" y="683"/>
    </contour>
  </outline>
</glyph>
<glyph name="equal" format="1">
  <advance width="809"/>
  <unicode hex="003D"/>
  <outline>
    <contour>
      <point x="92" y="319" type="line"/>
      <point x="102" y="424" type="line"/>
      <point x="717" y="424" type="line"/>
      <point x="706" y="319" type="line"/>
    </contour>
    <contour>
      <point x="95" y="559" type="line"/>
      <point x="105" y="663" type="line"/>
      <point x="721" y="663" type="line"/>
      <point x="709" y="559" type="line"/>
    </contour>
  </outline>
</glyph>
<glyph name="question" format="1">
  <advance width="642"/>
  <unicode hex="003F"/>
  <outline>
    <contour>
      <point x="47" y="1152" type="curve" smooth="yes"/>
      <point x="47" y="1205"/>
      <point x="86" y="1287"/>
      <point x="243" y="1287" type="curve" smooth="yes"/>
      <point x="398" y="1287"/>
      <point x="587" y="1114"/>
      <point x="587" y="860" type="curve" smooth="yes"/>
      <point x="587" y="623"/>
      <point x="299" y="656"/>
      <point x="299" y="508" type="curve" smooth="yes"/>
      <point x="299" y="468"/>
      <point x="306" y="432"/>
      <point x="321" y="383" type="curve"/>
      <point x="246" y="366" type="line"/>
      <point x="219" y="406"/>
      <point x="169" y="505"/>
      <point x="169" y="585" type="curve" smooth="yes"/>
      <point x="169" y="809"/>
      <point x="476" y="734"/>
      <point x="476" y="939" type="curve" smooth="yes"/>
      <point x="476" y="1031"/>
      <point x="372" y="1113"/>
      <point x="313" y="1113" type="curve" smooth="yes"/>
      <point x="237" y="1113"/>
      <point x="164" y="1087"/>
      <point x="121" y="1041" type="curve"/>
      <point x="88" y="1054"/>
      <point x="47" y="1098"/>
    </contour>
    <contour>
      <point x="159" y="92" type="curve" smooth="yes"/>
      <point x="159" y="159"/>
      <point x="216" y="210"/>
      <point x="282" y="210" type="curve" smooth="yes"/>
      <point x="349" y="210"/>
      <point x="406" y="157"/>
      <point x="406" y="90" type="curve" smooth="yes"/>
      <point x="406" y="20"/>
      <point x="352" y="-36"/>
      <point x="282" y="-36" type="curve" smooth="yes"/>
      <point x="212" y="-36"/>
      <point x="159" y="22"/>
    </contour>
  </outline>
</glyph>
<glyph name="G" format="1">
  <advance width="1276"/>
  <unicode hex="0047"/>
  <outline>
    <contour>
      <point x="61" y="578" type="curve" smooth="yes"/>
      <point x="61" y="1007"/>
      <point x="395" y="1260"/>
      <point x="737" y="1260" type="curve" smooth="yes"/>
      <point x="906" y="1260"/>
      <point x="1045" y="1222"/>
      <point x="1139" y="1163" type="curve"/>
      <point x="1115" y="841" type="line"/>
      <point x="1028" y="856" type="line"/>
      <point x="992" y="1047" type="line"/>
      <point x="947" y="1093"/>
      <point x="844" y="1161"/>
      <point x="677" y="1161" type="curve" smooth="yes"/>
      <point x="460" y="1161"/>
      <point x="276" y="1013"/>
      <point x="276" y="647" type="curve" smooth="yes"/>
      <point x="276" y="350"/>
      <point x="454" y="77"/>
      <point x="771" y="77" type="curve" smooth="yes"/>
      <point x="851" y="77"/>
      <point x="915" y="103"/>
      <point x="943" y="119" type="curve"/>
      <point x="943" y="434" type="line"/>
      <point x="707" y="472" type="line"/>
      <point x="719" y="555" type="line"/>
      <point x="1275" y="555" type="line"/>
      <point x="1263" y="480" type="line"/>
      <point x="1139" y="439" type="line"/>
      <point x="1139" y="79" type="line"/>
      <point x="1007" y="0"/>
      <point x="858" y="-31"/>
      <point x="658" y="-31" type="curve" smooth="yes"/>
      <point x="256" y="-31"/>
      <point x="61" y="237"/>
    </contour>
  </outline>
</glyph>
<glyph name="H" format="1">
  <advance width="1416"/>
  <unicode hex="0048"/>
  <outline>
    <contour>
      <point x="50" y="1168" type="line"/>
      <point x="61" y="1244" type="line"/>
      <point x="605" y="1244" type="line"/>
      <point x="595" y="1168" type="line"/>
      <point x="427" y="1130" type="line"/>
      <point x="427" y="692" type="line"/>
      <point x="1054" y="692" type="line"/>
      <point x="1054" y="1126" type="line"/>
      <point x="871" y="1168" type="line"/>
      <point x="882" y="1244" type="line"/>
      <point x="1428" y="1244" type="line"/>
      <point x="1416" y="1168" type="line"/>
      <point x="1249" y="1130" type="line"/>
      <point x="1249" y="114" type="line"/>
      <point x="1431" y="80" type="line"/>
      <point x="1421" y="0" type="line"/>
      <point x="878" y="0" type="line"/>
      <point x="888" y="74" type="line"/>
      <point x="1054" y="121" type="line"/>
      <point x="1054" y="589" type="line"/>
      <point x="427" y="589" type="line"/>
      <point x="427" y="114" type="line"/>
      <point x="611" y="80" type="line"/>
      <point x="598" y="0" type="line"/>
      <point x="57" y="0" type="line"/>
      <point x="65" y="74" type="line"/>
      <point x="232" y="121" type="line"/>
      <point x="232" y="1126" type="line"/>
    </contour>
  </outline>
</glyph>
<glyph name="J" format="1">
  <advance width="592"/>
  <unicode hex="004A"/>
  <outline>
    <contour>
      <point x="-4" y="-237" type="line"/>
      <point x="151.657" y="-90"/>
      <point x="233" y="37"/>
      <point x="233" y="197" type="curve" smooth="yes"/>
      <point x="233" y="1126" type="line"/>
      <point x="52" y="1168" type="line"/>
      <point x="62" y="1244" type="line"/>
      <point x="607" y="1244" type="line"/>
      <point x="597" y="1168" type="line"/>
      <point x="427" y="1130" type="line"/>
      <point x="427" y="385" type="line" smooth="yes"/>
      <point x="425.997" y="-24"/>
      <point x="337.763" y="-138"/>
      <point x="50" y="-326" type="curve"/>
    </contour>
  </outline>
</glyph>
<glyph name="K" format="1">
  <advance width="1228"/>
  <unicode hex="004B"/>
  <outline>
    <contour>
      <point x="47" y="1168" type="line"/>
      <point x="61" y="1244" type="line"/>
      <point x="611" y="1244" type="line"/>
      <point x="601" y="1168" type="line"/>
      <point x="429" y="1121" type="line"/>
      <point x="429" y="124" type="line"/>
      <point x="618" y="80" type="line"/>
      <point x="607" y="0" type="line"/>
      <point x="54" y="0" type="line"/>
      <point x="64" y="74" type="line"/>
      <point x="236" y="129" type="line"/>
      <point x="236" y="1117" type="line"/>
    </contour>
    <contour>
      <point x="453" y="626" type="line"/>
      <point x="481" y="654"/>
      <point x="574" y="758"/>
      <point x="605" y="798" type="curve" smooth="yes"/>
      <point x="851" y="1121" type="line"/>
      <point x="696" y="1168" type="line"/>
      <point x="704" y="1244" type="line"/>
      <point x="1197" y="1244" type="line"/>
      <point x="1185" y="1168" type="line"/>
      <point x="1008" y="1121" type="line"/>
      <point x="635" y="653" type="line"/>
      <point x="862" y="385" type="line" smooth="yes"/>
      <point x="1013" y="206"/>
      <point x="1085" y="123"/>
      <point x="1213" y="83" type="curve" smooth="yes"/>
      <point x="1250" y="70" type="line"/>
      <point x="1240" y="1" type="line"/>
      <point x="1194" y="-15"/>
      <point x="1149" y="-21"/>
      <point x="1109" y="-21" type="curve" smooth="yes"/>
      <point x="942" y="-21"/>
      <point x="820" y="104"/>
      <point x="706" y="261" type="curve" smooth="yes"/>
      <point x="454" y="605" type="line"/>
    </contour>
  </outline>
</glyph>
<glyph name="L" format="1">
  <advance width="1065"/>
  <unicode hex="004C"/>
  <outline>
    <contour>
      <point x="58" y="0" type="line"/>
      <point x="67" y="74" type="line"/>
      <point x="233" y="121" type="line"/>
      <point x="233" y="1117" type="line"/>
      <point x="45" y="1168" type="line"/>
      <point x="58" y="1244" type="line"/>
      <point x="608" y="1244" type="line"/>
      <point x="598" y="1168" type="line"/>
      <point x="427" y="1121" type="line"/>
      <point x="427" y="96" type="line"/>
      <point x="869" y="96" type="line"/>
      <point x="1000" y="344" type="line"/>
      <point x="1085" y="331" type="line"/>
      <point x="1048" y="0" type="line"/>
    </contour>
  </outline>
</glyph>
<glyph name="O" format="1">
  <advance width="1322"/>
  <unicode hex="004F"/>
  <outline>
    <contour>
      <point x="61" y="619" type="curve" smooth="yes"/>
      <point x="61" y="1004"/>
      <point x="308" y="1272"/>
      <point x="706" y="1272" type="curve" smooth="yes"/>
      <point x="1068" y="1272"/>
      <point x="1284" y="970"/>
      <point x="1284" y="619" type="curve" smooth="yes"/>
      <point x="1284" y="274"/>
      <point x="1051" y="-27"/>
      <point x="636" y="-27" type="curve" smooth="yes"/>
      <point x="291" y="-27"/>
      <point x="61" y="257"/>
    </contour>
    <contour>
      <point x="283" y="676" type="curve" smooth="yes"/>
      <point x="283" y="382"/>
      <point x="398" y="79"/>
      <point x="686" y="79" type="curve" smooth="yes"/>
      <point x="990" y="79"/>
      <point x="1062" y="330"/>
      <point x="1062" y="573" type="curve" smooth="yes"/>
      <point x="1062" y="856"/>
      <point x="945" y="1176"/>
      <point x="658" y="1176" type="curve" smooth="yes"/>
      <point x="358" y="1176"/>
      <point x="283" y="937"/>
    </contour>
  </outline>
</glyph>
<glyph name="P" format="1">
  <advance width="1009"/>
  <unicode hex="0050"/>
  <outline>
    <contour>
      <point x="50" y="0" type="line"/>
      <point x="61" y="74" type="line"/>
      <point x="228" y="121" type="line"/>
      <point x="228" y="1104" type="line"/>
      <point x="57" y="1134" type="line"/>
      <point x="67" y="1211" type="line"/>
      <point x="196" y="1230"/>
      <point x="372" y="1255"/>
      <point x="543" y="1255" type="curve" smooth="yes"/>
      <point x="804" y="1255"/>
      <point x="1045" y="1184"/>
      <point x="1045" y="892" type="curve" smooth="yes"/>
      <point x="1045" y="655"/>
      <point x="827" y="494"/>
      <point x="584" y="494" type="curve" smooth="yes"/>
      <point x="548" y="494"/>
      <point x="515" y="496"/>
      <point x="484" y="497" type="curve"/>
      <point x="466" y="580" type="line"/>
      <point x="519" y="581" type="line" smooth="yes"/>
      <point x="734" y="587"/>
      <point x="838" y="678"/>
      <point x="838" y="856" type="curve" smooth="yes"/>
      <point x="838" y="1027"/>
      <point x="750" y="1172"/>
      <point x="522" y="1172" type="curve" smooth="yes"/>
      <point x="482" y="1172"/>
      <point x="420" y="1166"/>
      <point x="420" y="1166" type="curve"/>
      <point x="420" y="122" type="line"/>
      <point x="657" y="83" type="line"/>
      <point x="643" y="0" type="line"/>
    </contour>
  </outline>
</glyph>
<glyph name="S" format="1">
  <advance width="863"/>
  <unicode hex="0053"/>
  <outline>
    <contour>
      <point x="66" y="92" type="curve"/>
      <point x="79" y="379" type="line"/>
      <point x="181" y="365" type="line"/>
      <point x="220" y="177" type="line"/>
      <point x="256" y="125.182"/>
      <point x="333" y="77"/>
      <point x="426" y="77" type="curve" smooth="yes"/>
      <point x="531" y="77"/>
      <point x="663" y="139"/>
      <point x="663" y="287" type="curve" smooth="yes"/>
      <point x="663" y="547"/>
      <point x="90" y="544"/>
      <point x="90" y="916" type="curve" smooth="yes"/>
      <point x="90" y="1143"/>
      <point x="282" y="1269"/>
      <point x="479" y="1269" type="curve" smooth="yes"/>
      <point x="587" y="1269"/>
      <point x="682" y="1235"/>
      <point x="761" y="1169" type="curve"/>
      <point x="761" y="1161"/>
      <point x="739" y="887"/>
      <point x="739" y="887" type="curve"/>
      <point x="640" y="899" type="line"/>
      <point x="615" y="1090" type="line"/>
      <point x="597" y="1126"/>
      <point x="525" y="1185"/>
      <point x="445" y="1185" type="curve" smooth="yes"/>
      <point x="345" y="1185"/>
      <point x="263" y="1126"/>
      <point x="263" y="995" type="curve" smooth="yes"/>
      <point x="263" y="682.47"/>
      <point x="847" y="693"/>
      <point x="847" y="357" type="curve" smooth="yes"/>
      <point x="847" y="125.175"/>
      <point x="630" y="-24"/>
      <point x="402" y="-24" type="curve" smooth="yes"/>
      <point x="258" y="-24"/>
      <point x="130" y="29.2329"/>
    </contour>
  </outline>
</glyph>
<glyph name="T" format="1">
  <advance width="1119"/>
  <unicode hex="0054"/>
  <outline>
    <contour>
      <point x="23" y="1244" type="line"/>
      <point x="1134" y="1244" type="line"/>
      <point x="1100" y="906" type="line"/>
      <point x="1005" y="921" type="line"/>
      <point x="967" y="1152" type="line"/>
      <point x="662" y="1152" type="line"/>
      <point x="662" y="114" type="line"/>
      <point x="847" y="80" type="line"/>
      <point x="833" y="0" type="line"/>
      <point x="294" y="0" type="line"/>
      <point x="301" y="74" type="line"/>
      <point x="470" y="121" type="line"/>
      <point x="470" y="1152" type="line"/>
      <point x="175" y="1152" type="line"/>
      <point x="122" y="909" type="line"/>
      <point x="31" y="922" type="line"/>
    </contour>
  </outline>
</glyph>
<glyph name="V" format="1">
  <advance width="1284"/>
  <unicode hex="0056"/>
  <outline>
    <contour>
      <point x="-21" y="1168" type="line"/>
      <point x="-11" y="1244" type="line"/>
      <point x="527" y="1244" type="line"/>
      <point x="517" y="1168" type="line"/>
      <point x="347" y="1130" type="line"/>
      <point x="660" y="251" type="line"/>
      <point x="980" y="1126" type="line"/>
      <point x="798" y="1168" type="line"/>
      <point x="805" y="1244" type="line"/>
      <point x="1260" y="1244" type="line"/>
      <point x="1253" y="1168" type="line"/>
      <point x="1121" y="1130" type="line"/>
      <point x="696" y="4" type="line"/>
      <point x="544" y="-24" type="line"/>
      <point x="126" y="1126" type="line"/>
    </contour>
  </outline>
</glyph>
<glyph name="W" format="1">
  <advance width="1844"/>
  <unicode hex="0057"/>
  <outline>
    <contour>
      <point x="-11" y="1168" type="line"/>
      <point x="-2" y="1244" type="line"/>
      <point x="512" y="1244" type="line"/>
      <point x="497" y="1168" type="line"/>
      <point x="330" y="1130" type="line"/>
      <point x="572" y="271" type="line"/>
      <point x="853" y="1194" type="line"/>
      <point x="1029" y="1219" type="line"/>
      <point x="1277" y="287" type="line"/>
      <point x="1538" y="1126" type="line"/>
      <point x="1357" y="1168" type="line"/>
      <point x="1368" y="1244" type="line"/>
      <point x="1817" y="1244" type="line"/>
      <point x="1806" y="1168" type="line"/>
      <point x="1683" y="1130" type="line"/>
      <point x="1318" y="4" type="line"/>
      <point x="1164" y="-24" type="line"/>
      <point x="902" y="951" type="line"/>
      <point x="617" y="4" type="line"/>
      <point x="454" y="-24" type="line"/>
      <point x="129" y="1126" type="line"/>
    </contour>
  </outline>
</glyph>
<glyph name="X" format="1">
  <advance width="1202"/>
  <unicode hex="0058"/>
  <outline>
    <contour>
      <point x="-1" y="0" type="line"/>
      <point x="11" y="76" type="line"/>
      <point x="138" y="121" type="line"/>
      <point x="504" y="615" type="line"/>
      <point x="165" y="1123" type="line"/>
      <point x="28" y="1166" type="line"/>
      <point x="40" y="1244" type="line"/>
      <point x="553" y="1244" type="line"/>
      <point x="543" y="1166" type="line"/>
      <point x="386" y="1121" type="line"/>
      <point x="633" y="750" type="line"/>
      <point x="904" y="1126" type="line"/>
      <point x="734" y="1166" type="line"/>
      <point x="747" y="1244" type="line"/>
      <point x="1182" y="1244" type="line"/>
      <point x="1174" y="1168" type="line"/>
      <point x="1047" y="1130" type="line"/>
      <point x="709" y="657" type="line"/>
      <point x="1050" y="114" type="line"/>
      <point x="1185" y="80" type="line"/>
      <point x="1172" y="0" type="line"/>
      <point x="669" y="0" type="line"/>
      <point x="682" y="74" type="line"/>
      <point x="842" y="121" type="line"/>
      <point x="580" y="529" type="line"/>
      <point x="288" y="117" type="line"/>
      <point x="454" y="83" type="line"/>
      <point x="439" y="0" type="line"/>
    </contour>
  </outline>
</glyph>
<glyph name="bracketleft" format="1">
  <advance width="474"/>
  <unicode hex="005B"/>
  <outline>
    <contour>
      <point x="109" y="-376" type="line"/>
      <point x="109" y="1255" type="line"/>
      <point x="463" y="1255" type="line"/>
      <point x="474" y="1166" type="line"/>
      <point x="260" y="1146" type="line"/>
      <point x="260" y="-260" type="line"/>
      <point x="476" y="-279" type="line"/>
      <point x="466" y="-375" type="line"/>
    </contour>
  </outline>
</glyph>
<glyph name="bracketright" format="1">
  <advance width="474"/>
  <unicode hex="005D"/>
  <outline>
    <contour>
      <point x="0" y="-279" type="line"/>
      <point x="217" y="-260" type="line"/>
      <point x="217" y="1146" type="line"/>
      <point x="1" y="1166" type="line"/>
      <point x="13" y="1255" type="line"/>
      <point x="366" y="1255" type="line"/>
      <point x="368" y="-376" type="line"/>
      <point x="10" y="-375" type="line"/>
    </contour>
  </outline>
</glyph>
<glyph name="asciicircum" format="1">
  <advance width="720"/>
  <unicode hex="005E"/>
  <outline>
    <contour>
      <point x="42" y="826" type="line"/>
      <point x="331" y="1237" type="line"/>
      <point x="386" y="1250" type="line"/>
      <point x="681" y="824" type="line"/>
      <point x="624" y="787" type="line"/>
      <point x="353" y="1073" type="line"/>
      <point x="343" y="1073" type="line"/>
      <point x="92" y="793" type="line"/>
    </contour>
  </outline>
</glyph>
<glyph name="underscore" format="1">
  <advance width="838"/>
  <unicode hex="005F"/>
  <outline>
    <contour>
      <point x="-1" y="-132" type="line"/>
      <point x="11" y="-27" type="line"/>
      <point x="839" y="-27" type="line"/>
      <point x="828" y="-132" type="line"/>
    </contour>
  </outline>
</glyph>
<glyph name="grave" format="1">
  <advance width="535"/>
  <unicode hex="0060"/>
  <outline>
    <contour>
      <point x="122" y="1659" type="line"/>
      <point x="237" y="1697" type="line"/>
      <point x="369" y="1364" type="line"/>
      <point x="313" y="1329" type="line"/>
    </contour>
  </outline>
</glyph>
<glyph name="a" format="1">
  <advance width="830"/>
  <unicode hex="0061"/>
  <outline>
    <contour>
      <point x="47" y="168" type="curve" smooth="yes"/>
      <point x="47" y="315"/>
      <point x="182" y="462"/>
      <point x="508" y="485" type="curve"/>
      <point x="508" y="540" type="line" smooth="yes"/>
      <point x="508" y="675"/>
      <point x="469" y="807"/>
      <point x="331" y="807" type="curve" smooth="yes"/>
      <point x="235" y="807"/>
      <point x="234" y="756"/>
      <point x="220" y="592" type="curve"/>
      <point x="167" y="592"/>
      <point x="81" y="596"/>
      <point x="81" y="695" type="curve" smooth="yes"/>
      <point x="81" y="804"/>
      <point x="285" y="900"/>
      <point x="423" y="900" type="curve" smooth="yes"/>
      <point x="601" y="900"/>
      <point x="670" y="804"/>
      <point x="670" y="593" type="curve" smooth="yes"/>
      <point x="670" y="230" type="line" smooth="yes"/>
      <point x="670" y="138"/>
      <point x="689" y="111"/>
      <point x="782" y="96" type="curve" smooth="yes"/>
      <point x="832" y="87" type="line"/>
      <point x="819" y="1" type="line"/>
      <point x="772" y="-5"/>
      <point x="742" y="-18"/>
      <point x="683" y="-18" type="curve" smooth="yes"/>
      <point x="567" y="-18"/>
      <point x="528" y="57"/>
      <point x="528" y="116" type="curve" smooth="yes"/>
      <point x="528" y="131" type="line"/>
      <point x="517" y="131" type="line"/>
      <point x="490" y="78"/>
      <point x="407" y="-24"/>
      <point x="243" y="-24" type="curve" smooth="yes"/>
      <point x="138" y="-24"/>
      <point x="47" y="46"/>
    </contour>
    <contour>
      <point x="222" y="215" type="curve" smooth="yes"/>
      <point x="222" y="165"/>
      <point x="260" y="99"/>
      <point x="334" y="99" type="curve" smooth="yes"/>
      <point x="404" y="99"/>
      <point x="475" y="151"/>
      <point x="508" y="188" type="curve"/>
      <point x="508" y="428" type="line"/>
      <point x="290" y="385"/>
      <point x="222" y="311"/>
    </contour>
  </outline>
</glyph>
<glyph name="b" format="1">
  <advance width="955"/>
  <unicode hex="0062"/>
  <outline>
    <contour>
      <point x="-15" y="1191" type="line"/>
      <point x="-2" y="1267" type="line"/>
      <point x="275" y="1288" type="line"/>
      <point x="299" y="1265" type="line"/>
      <point x="299" y="849" type="line"/>
      <point x="285" y="744" type="line"/>
      <point x="296" y="744" type="line"/>
      <point x="375" y="833"/>
      <point x="468" y="899"/>
      <point x="581" y="899" type="curve" smooth="yes"/>
      <point x="775" y="899"/>
      <point x="904" y="725"/>
      <point x="904" y="472" type="curve" smooth="yes"/>
      <point x="904" y="155"/>
      <point x="671" y="-23"/>
      <point x="411" y="-23" type="curve" smooth="yes"/>
      <point x="321" y="-23"/>
      <point x="216" y="-1"/>
      <point x="136" y="49" type="curve"/>
      <point x="136" y="1138" type="line"/>
    </contour>
    <contour>
      <point x="299" y="155" type="line"/>
      <point x="339" y="115"/>
      <point x="423" y="87"/>
      <point x="510" y="87" type="curve" smooth="yes"/>
      <point x="624" y="87"/>
      <point x="725" y="185"/>
      <point x="725" y="408" type="curve" smooth="yes"/>
      <point x="725" y="556"/>
      <point x="684" y="768"/>
      <point x="513" y="768" type="curve" smooth="yes"/>
      <point x="457" y="768"/>
      <point x="378" y="755"/>
      <point x="299" y="672" type="curve"/>
    </contour>
  </outline>
</glyph>
<glyph name="c" format="1">
  <advance width="778"/>
  <unicode hex="0063"/>
  <outline>
    <contour>
      <point x="50" y="415" type="curve" smooth="yes"/>
      <point x="50" y="712"/>
      <point x="258" y="900"/>
      <point x="475" y="900" type="curve" smooth="yes"/>
      <point x="642" y="900"/>
      <point x="716" y="826"/>
      <point x="716" y="747" type="curve" smooth="yes"/>
      <point x="716" y="688"/>
      <point x="672" y="648"/>
      <point x="589" y="642" type="curve"/>
      <point x="561" y="709"/>
      <point x="515" y="806"/>
      <point x="428" y="806" type="curve" smooth="yes"/>
      <point x="309" y="806"/>
      <point x="231" y="688"/>
      <point x="231" y="507" type="curve" smooth="yes"/>
      <point x="231" y="340"/>
      <point x="320" y="90"/>
      <point x="528" y="90" type="curve" smooth="yes"/>
      <point x="627" y="90"/>
      <point x="683" y="121"/>
      <point x="730" y="151" type="curve"/>
      <point x="755" y="93" type="line"/>
      <point x="702" y="29"/>
      <point x="574" y="-30"/>
      <point x="445" y="-30" type="curve" smooth="yes"/>
      <point x="205" y="-30"/>
      <point x="50" y="175"/>
    </contour>
  </outline>
</glyph>
<glyph name="d" format="1">
  <advance width="987"/>
  <unicode hex="0064"/>
  <outline>
    <contour>
      <point x="54" y="399" type="curve" smooth="yes"/>
      <point x="54" y="690"/>
      <point x="285" y="900"/>
      <point x="491" y="900" type="curve" smooth="yes"/>
      <point x="557" y="900"/>
      <point x="630" y="880"/>
      <point x="663" y="856" type="curve"/>
      <point x="670" y="856" type="line"/>
      <point x="658" y="984" type="line"/>
      <point x="658" y="1141" type="line"/>
      <point x="506" y="1196" type="line"/>
      <point x="520" y="1271" type="line"/>
      <point x="798" y="1295" type="line"/>
      <point x="819" y="1271" type="line"/>
      <point x="819" y="215" type="line" smooth="yes"/>
      <point x="819" y="110"/>
      <point x="862" y="104"/>
      <point x="928" y="89" type="curve" smooth="yes"/>
      <point x="973" y="79" type="line"/>
      <point x="962" y="-4" type="line"/>
      <point x="903" y="-19"/>
      <point x="877" y="-23"/>
      <point x="815" y="-23" type="curve" smooth="yes"/>
      <point x="715" y="-23"/>
      <point x="666" y="41"/>
      <point x="666" y="124" type="curve" smooth="yes"/>
      <point x="666" y="131" type="line"/>
      <point x="657" y="131" type="line"/>
      <point x="601" y="54"/>
      <point x="518" y="-21"/>
      <point x="380" y="-21" type="curve" smooth="yes"/>
      <point x="203" y="-21"/>
      <point x="54" y="124"/>
    </contour>
    <contour>
      <point x="230" y="462" type="curve" smooth="yes"/>
      <point x="230" y="225"/>
      <point x="325" y="105"/>
      <point x="451" y="105" type="curve" smooth="yes"/>
      <point x="534" y="105"/>
      <point x="623" y="157"/>
      <point x="657" y="197" type="curve"/>
      <point x="657" y="666" type="line"/>
      <point x="604" y="753"/>
      <point x="510" y="802"/>
      <point x="443" y="802" type="curve" smooth="yes"/>
      <point x="286" y="802"/>
      <point x="230" y="653"/>
    </contour>
  </outline>
</glyph>
<glyph name="f" format="1">
  <advance width="694"/>
  <unicode hex="0066"/>
  <outline>
    <contour>
      <point x="35" y="0" type="line"/>
      <point x="47" y="73" type="line"/>
      <point x="199" y="116" type="line"/>
      <point x="199" y="784" type="line"/>
      <point x="50" y="784" type="line"/>
      <point x="62" y="857" type="line"/>
      <point x="200" y="879" type="line"/>
      <point x="233" y="1187.33"/>
      <point x="433" y="1334"/>
      <point x="575" y="1334" type="curve" smooth="yes"/>
      <point x="680" y="1334"/>
      <point x="762" y="1299"/>
      <point x="762" y="1219" type="curve" smooth="yes"/>
      <point x="762" y="1170"/>
      <point x="706" y="1120"/>
      <point x="673" y="1107" type="curve"/>
      <point x="633" y="1156"/>
      <point x="559" y="1228"/>
      <point x="497" y="1228" type="curve" smooth="yes"/>
      <point x="423" y="1228"/>
      <point x="372" y="1176.78"/>
      <point x="368" y="981" type="curve"/>
      <point x="366" y="873" type="line"/>
      <point x="623" y="873" type="line"/>
      <point x="611" y="784" type="line"/>
      <point x="366" y="784" type="line"/>
      <point x="366" y="121" type="line"/>
      <point x="611" y="83" type="line"/>
      <point x="604" y="0" type="line"/>
    </contour>
  </outline>
</glyph>
<glyph name="g" format="1">
  <advance width="890"/>
  <unicode hex="0067"/>
  <outline>
    <contour>
      <point x="24" y="-162" type="curve" smooth="yes"/>
      <point x="24" y="-78"/>
      <point x="135" y="-10"/>
      <point x="184" y="18" type="curve"/>
      <point x="184" y="27" type="line"/>
      <point x="122" y="57"/>
      <point x="88" y="107"/>
      <point x="88" y="164" type="curve" smooth="yes"/>
      <point x="88" y="218"/>
      <point x="181" y="298"/>
      <point x="255" y="328" type="curve"/>
      <point x="255" y="335" type="line"/>
      <point x="205" y="348"/>
      <point x="92" y="454"/>
      <point x="92" y="589" type="curve" smooth="yes"/>
      <point x="92" y="754"/>
      <point x="258" y="896"/>
      <point x="426" y="896" type="curve" smooth="yes"/>
      <point x="518" y="896"/>
      <point x="586" y="869"/>
      <point x="636" y="833" type="curve"/>
      <point x="651" y="833"/>
      <point x="851" y="849"/>
      <point x="851" y="849" type="curve"/>
      <point x="871" y="826" type="line"/>
      <point x="832" y="715" type="line"/>
      <point x="816" y="715" type="line"/>
      <point x="693" y="755" type="line"/>
      <point x="693" y="738" type="line"/>
      <point x="706" y="710"/>
      <point x="727" y="649"/>
      <point x="727" y="599" type="curve" smooth="yes"/>
      <point x="727" y="415"/>
      <point x="540" y="301"/>
      <point x="389" y="301" type="curve" smooth="yes"/>
      <point x="349" y="301"/>
      <point x="310" y="308"/>
      <point x="299" y="311" type="curve"/>
      <point x="276" y="287"/>
      <point x="249" y="254"/>
      <point x="249" y="223" type="curve" smooth="yes"/>
      <point x="249" y="183"/>
      <point x="276" y="151"/>
      <point x="432" y="151" type="curve" smooth="yes"/>
      <point x="568" y="151" type="line" smooth="yes"/>
      <point x="716" y="151"/>
      <point x="845" y="99"/>
      <point x="845" y="-50" type="curve" smooth="yes"/>
      <point x="845" y="-224"/>
      <point x="614" y="-386"/>
      <point x="386" y="-386" type="curve" smooth="yes"/>
      <point x="202" y="-386"/>
      <point x="24" y="-334"/>
    </contour>
    <contour>
      <point x="200" y="-108" type="curve" smooth="yes"/>
      <point x="200" y="-242"/>
      <point x="311" y="-279"/>
      <point x="440" y="-279" type="curve" smooth="yes"/>
      <point x="571" y="-279"/>
      <point x="676" y="-232"/>
      <point x="676" y="-100" type="curve" smooth="yes"/>
      <point x="676" y="-11"/>
      <point x="607" y="3"/>
      <point x="426" y="3" type="curve" smooth="yes"/>
      <point x="252" y="3" type="line"/>
      <point x="252" y="3"/>
      <point x="200" y="-16"/>
    </contour>
    <contour>
      <point x="252" y="608" type="curve" smooth="yes"/>
      <point x="252" y="470"/>
      <point x="344" y="380"/>
      <point x="417" y="380" type="curve" smooth="yes"/>
      <point x="506" y="380"/>
      <point x="564" y="439"/>
      <point x="564" y="580" type="curve" smooth="yes"/>
      <point x="564" y="688"/>
      <point x="507" y="823"/>
      <point x="402" y="823" type="curve" smooth="yes"/>
      <point x="300" y="823"/>
      <point x="252" y="739"/>
    </contour>
  </outline>
</glyph>
<glyph name="h" format="1">
  <advance width="1029"/>
  <unicode hex="0068"/>
  <outline>
    <contour>
      <point x="10" y="0" type="line"/>
      <point x="21" y="79" type="line"/>
      <point x="175" y="116" type="line"/>
      <point x="175" y="1147" type="line"/>
      <point x="15" y="1201" type="line"/>
      <point x="27" y="1277" type="line"/>
      <point x="316" y="1299" type="line"/>
      <point x="341" y="1275" type="line"/>
      <point x="341" y="850" type="line"/>
      <point x="325" y="744" type="line"/>
      <point x="335" y="744" type="line"/>
      <point x="418" y="836"/>
      <point x="516" y="900"/>
      <point x="629" y="900" type="curve" smooth="yes"/>
      <point x="767" y="900"/>
      <point x="872" y="842"/>
      <point x="872" y="599" type="curve" smooth="yes"/>
      <point x="872" y="114" type="line"/>
      <point x="1017" y="79" type="line"/>
      <point x="1005" y="0" type="line"/>
      <point x="556" y="0" type="line"/>
      <point x="568" y="74" type="line"/>
      <point x="706" y="114" type="line"/>
      <point x="706" y="580" type="line" smooth="yes"/>
      <point x="706" y="722"/>
      <point x="613" y="764"/>
      <point x="534" y="764" type="curve" smooth="yes"/>
      <point x="477" y="764"/>
      <point x="411" y="748"/>
      <point x="341" y="675" type="curve"/>
      <point x="341" y="116" type="line"/>
      <point x="487" y="80" type="line"/>
      <point x="475" y="0" type="line"/>
    </contour>
  </outline>
</glyph>
<glyph name="i" format="1">
  <advance width="539"/>
  <unicode hex="0069"/>
  <outline>
    <contour>
      <point x="37" y="0" type="line"/>
      <point x="49" y="79" type="line"/>
      <point x="200" y="116" type="line"/>
      <point x="200" y="731" type="line"/>
      <point x="49" y="786" type="line"/>
      <point x="62" y="862" type="line"/>
      <point x="343" y="885" type="line"/>
      <point x="368" y="860" type="line"/>
      <point x="368" y="116" type="line"/>
      <point x="528" y="80" type="line"/>
      <point x="517" y="0" type="line"/>
    </contour>
    <contour>
      <point x="156" y="1194" type="curve" smooth="yes"/>
      <point x="156" y="1258"/>
      <point x="213" y="1306"/>
      <point x="275" y="1306" type="curve" smooth="yes"/>
      <point x="341" y="1306"/>
      <point x="397" y="1256"/>
      <point x="397" y="1192" type="curve" smooth="yes"/>
      <point x="397" y="1125"/>
      <point x="341" y="1070"/>
      <point x="275" y="1070" type="curve" smooth="yes"/>
      <point x="209" y="1070"/>
      <point x="156" y="1127"/>
    </contour>
  </outline>
</glyph>
<glyph name="j" format="1">
  <advance width="463"/>
  <unicode hex="006A"/>
  <outline>
    <contour>
      <point x="-34" y="-295" type="line"/>
      <point x="74" y="-215"/>
      <point x="187" y="-98"/>
      <point x="187" y="172" type="curve" smooth="yes"/>
      <point x="187" y="731" type="line"/>
      <point x="37" y="786" type="line"/>
      <point x="52" y="866" type="line"/>
      <point x="331" y="887" type="line"/>
      <point x="356" y="862" type="line"/>
      <point x="356" y="151" type="line" smooth="yes"/>
      <point x="356" y="-131"/>
      <point x="212" y="-274"/>
      <point x="61" y="-359" type="curve" smooth="yes"/>
      <point x="15" y="-383" type="line"/>
    </contour>
    <contour>
      <point x="139" y="1189" type="curve" smooth="yes"/>
      <point x="139" y="1256"/>
      <point x="196" y="1308"/>
      <point x="263" y="1308" type="curve" smooth="yes"/>
      <point x="329" y="1308"/>
      <point x="384" y="1254"/>
      <point x="384" y="1188" type="curve" smooth="yes"/>
      <point x="384" y="1121"/>
      <point x="329" y="1063"/>
      <point x="262" y="1063" type="curve" smooth="yes"/>
      <point x="195" y="1063"/>
      <point x="139" y="1122"/>
    </contour>
  </outline>
</glyph>
<glyph name="k" format="1">
  <advance width="972"/>
  <unicode hex="006B"/>
  <outline>
    <contour>
      <point x="10" y="0" type="line"/>
      <point x="21" y="79" type="line"/>
      <point x="174" y="116" type="line"/>
      <point x="174" y="1138" type="line"/>
      <point x="16" y="1191" type="line"/>
      <point x="28" y="1267" type="line"/>
      <point x="316" y="1290" type="line"/>
      <point x="341" y="1265" type="line"/>
      <point x="341" y="116" type="line"/>
      <point x="500" y="80" type="line"/>
      <point x="488" y="0" type="line"/>
    </contour>
    <contour>
      <point x="365" y="432" type="line"/>
      <point x="365" y="452" type="line"/>
      <point x="624" y="777" type="line"/>
      <point x="491" y="817" type="line"/>
      <point x="501" y="893" type="line"/>
      <point x="927" y="893" type="line"/>
      <point x="913" y="819" type="line"/>
      <point x="764" y="777" type="line"/>
      <point x="527" y="487" type="line"/>
      <point x="606" y="386" type="line" smooth="yes"/>
      <point x="753" y="199"/>
      <point x="805" y="99"/>
      <point x="931" y="83" type="curve" smooth="yes"/>
      <point x="971" y="77" type="line"/>
      <point x="960" y="0" type="line"/>
      <point x="945" y="-4"/>
      <point x="885" y="-19"/>
      <point x="841" y="-19" type="curve" smooth="yes"/>
      <point x="709" y="-19"/>
      <point x="634" y="66"/>
      <point x="470" y="287" type="curve"/>
    </contour>
  </outline>
</glyph>
<glyph name="l" format="1">
  <advance width="510"/>
  <unicode hex="006C"/>
  <outline>
    <contour>
      <point x="10" y="0" type="line"/>
      <point x="21" y="79" type="line"/>
      <point x="174" y="116" type="line"/>
      <point x="174" y="1147" type="line"/>
      <point x="16" y="1201" type="line"/>
      <point x="28" y="1277" type="line"/>
      <point x="316" y="1299" type="line"/>
      <point x="341" y="1275" type="line"/>
      <point x="341" y="116" type="line"/>
      <point x="500" y="80" type="line"/>
      <point x="488" y="0" type="line"/>
    </contour>
  </outline>
</glyph>
<glyph name="m" format="1">
  <advance width="1584"/>
  <unicode hex="006D"/>
  <outline>
    <contour>
      <point x="43" y="0" type="line"/>
      <point x="53" y="74" type="line"/>
      <point x="203" y="114" type="line"/>
      <point x="203" y="719" type="line"/>
      <point x="43" y="770" type="line"/>
      <point x="53" y="845" type="line"/>
      <point x="357" y="887" type="line"/>
      <point x="375" y="866" type="line"/>
      <point x="357" y="740" type="line"/>
      <point x="366" y="740" type="line"/>
      <point x="430" y="819"/>
      <point x="540" y="896"/>
      <point x="666" y="896" type="curve" smooth="yes"/>
      <point x="756" y="896"/>
      <point x="856" y="853"/>
      <point x="887" y="731" type="curve"/>
      <point x="899" y="731" type="line"/>
      <point x="963" y="814"/>
      <point x="1068" y="888"/>
      <point x="1194" y="888" type="curve" smooth="yes"/>
      <point x="1361" y="888"/>
      <point x="1430" y="783"/>
      <point x="1430" y="609" type="curve" smooth="yes"/>
      <point x="1430" y="115" type="line"/>
      <point x="1568" y="79" type="line"/>
      <point x="1555" y="0" type="line"/>
      <point x="1130" y="0" type="line"/>
      <point x="1137" y="73" type="line"/>
      <point x="1262" y="113" type="line"/>
      <point x="1262" y="585" type="line" smooth="yes"/>
      <point x="1262" y="681"/>
      <point x="1202" y="760"/>
      <point x="1094" y="760" type="curve" smooth="yes"/>
      <point x="1005" y="760"/>
      <point x="949" y="709"/>
      <point x="903" y="660" type="curve"/>
      <point x="903" y="114" type="line"/>
      <point x="1051" y="79" type="line"/>
      <point x="1041" y="0" type="line"/>
      <point x="598" y="0" type="line"/>
      <point x="609" y="74" type="line"/>
      <point x="740" y="114" type="line"/>
      <point x="740" y="585" type="line" smooth="yes"/>
      <point x="740" y="690"/>
      <point x="665" y="760"/>
      <point x="569" y="760" type="curve" smooth="yes"/>
      <point x="495" y="760"/>
      <point x="422" y="730"/>
      <point x="372" y="673" type="curve"/>
      <point x="372" y="114" type="line"/>
      <point x="515" y="79" type="line"/>
      <point x="504" y="0" type="line"/>
    </contour>
  </outline>
</glyph>
<glyph name="n" format="1">
  <advance width="1060"/>
  <unicode hex="006E"/>
  <outline>
    <contour>
      <point x="37" y="0" type="line"/>
      <point x="47" y="73" type="line"/>
      <point x="198" y="114" type="line"/>
      <point x="198" y="721" type="line"/>
      <point x="44" y="773" type="line"/>
      <point x="54" y="849" type="line"/>
      <point x="352" y="888" type="line"/>
      <point x="369" y="869" type="line"/>
      <point x="352" y="741" type="line"/>
      <point x="362" y="741" type="line"/>
      <point x="429" y="821"/>
      <point x="537" y="899"/>
      <point x="663" y="899" type="curve" smooth="yes"/>
      <point x="820" y="899"/>
      <point x="904" y="794"/>
      <point x="904" y="616" type="curve" smooth="yes"/>
      <point x="904" y="114" type="line"/>
      <point x="1048" y="79" type="line"/>
      <point x="1038" y="0" type="line"/>
      <point x="589" y="0" type="line"/>
      <point x="599" y="73" type="line"/>
      <point x="737" y="114" type="line"/>
      <point x="737" y="577" type="line" smooth="yes"/>
      <point x="737" y="706"/>
      <point x="662" y="761"/>
      <point x="563" y="761" type="curve" smooth="yes"/>
      <point x="490" y="761"/>
      <point x="416" y="731"/>
      <point x="366" y="675" type="curve"/>
      <point x="366" y="114" type="line"/>
      <point x="515" y="79" type="line"/>
      <point x="501" y="0" type="line"/>
    </contour>
  </outline>
</glyph>
<glyph name="p" format="1">
  <advance width="968"/>
  <unicode hex="0070"/>
  <outline>
    <contour>
      <point x="13" y="-372" type="line"/>
      <point x="19" y="-294" type="line"/>
      <point x="172" y="-256" type="line"/>
      <point x="172" y="722" type="line"/>
      <point x="18" y="768" type="line"/>
      <point x="30" y="845" type="line"/>
      <point x="321" y="882" type="line"/>
      <point x="342" y="863" type="line"/>
      <point x="328" y="734" type="line"/>
      <point x="335" y="734" type="line"/>
      <point x="385" y="804"/>
      <point x="480" y="899"/>
      <point x="611" y="899" type="curve" smooth="yes"/>
      <point x="782" y="899"/>
      <point x="914" y="771"/>
      <point x="914" y="467" type="curve" smooth="yes"/>
      <point x="914" y="182"/>
      <point x="726" y="-19"/>
      <point x="469" y="-19" type="curve" smooth="yes"/>
      <point x="439" y="-19"/>
      <point x="408" y="-16"/>
      <point x="375" y="-10" type="curve"/>
      <point x="369" y="111" type="line"/>
      <point x="415" y="93"/>
      <point x="443" y="89"/>
      <point x="522" y="89" type="curve" smooth="yes"/>
      <point x="660" y="89"/>
      <point x="731" y="218"/>
      <point x="731" y="406" type="curve" smooth="yes"/>
      <point x="731" y="643"/>
      <point x="668" y="768"/>
      <point x="540" y="768" type="curve" smooth="yes"/>
      <point x="454" y="768"/>
      <point x="379" y="712"/>
      <point x="335" y="666" type="curve"/>
      <point x="335" y="-257" type="line"/>
      <point x="491" y="-292" type="line"/>
      <point x="479" y="-372" type="line"/>
    </contour>
  </outline>
</glyph>
<glyph name="q" format="1">
  <advance width="955"/>
  <unicode hex="0071"/>
  <outline>
    <contour>
      <point x="54" y="412" type="curve" smooth="yes"/>
      <point x="54" y="683"/>
      <point x="284" y="900"/>
      <point x="494" y="900" type="curve" smooth="yes"/>
      <point x="560" y="900"/>
      <point x="637" y="869"/>
      <point x="667" y="853" type="curve"/>
      <point x="784" y="892" type="line"/>
      <point x="813" y="890" type="line"/>
      <point x="813" y="-251" type="line"/>
      <point x="973" y="-285" type="line"/>
      <point x="962" y="-366" type="line"/>
      <point x="486" y="-366" type="line"/>
      <point x="496" y="-287" type="line"/>
      <point x="647" y="-251" type="line"/>
      <point x="647" y="663" type="line"/>
      <point x="613" y="724"/>
      <point x="545" y="801"/>
      <point x="445" y="801" type="curve" smooth="yes"/>
      <point x="323" y="801"/>
      <point x="228" y="677"/>
      <point x="228" y="474" type="curve" smooth="yes"/>
      <point x="228" y="237"/>
      <point x="320" y="104"/>
      <point x="446" y="104" type="curve" smooth="yes"/>
      <point x="476" y="104"/>
      <point x="569" y="118"/>
      <point x="618" y="148" type="curve"/>
      <point x="621" y="73" type="line"/>
      <point x="559" y="14"/>
      <point x="451" y="-21"/>
      <point x="381" y="-21" type="curve" smooth="yes"/>
      <point x="204" y="-21"/>
      <point x="54" y="115"/>
    </contour>
  </outline>
</glyph>
<glyph name="r" format="1">
  <advance width="735"/>
  <unicode hex="0072"/>
  <outline>
    <contour>
      <point x="40" y="0" type="line"/>
      <point x="50" y="74" type="line"/>
      <point x="203" y="114" type="line"/>
      <point x="203" y="728" type="line"/>
      <point x="40" y="777" type="line"/>
      <point x="54" y="853" type="line"/>
      <point x="341" y="890" type="line"/>
      <point x="364" y="866" type="line"/>
      <point x="344" y="636" type="line"/>
      <point x="363" y="636" type="line"/>
      <point x="418.255" y="817"/>
      <point x="521.468" y="906"/>
      <point x="608" y="906" type="curve" smooth="yes"/>
      <point x="676.45" y="906"/>
      <point x="719" y="852.478"/>
      <point x="719" y="794" type="curve" smooth="yes"/>
      <point x="719" y="754.225"/>
      <point x="700.731" y="716.3"/>
      <point x="662" y="683" type="curve"/>
      <point x="624.291" y="706.878"/>
      <point x="579.927" y="722"/>
      <point x="540" y="722" type="curve" smooth="yes"/>
      <point x="483.708" y="722"/>
      <point x="391.304" y="655"/>
      <point x="369" y="504" type="curve"/>
      <point x="369" y="121" type="line"/>
      <point x="602" y="87" type="line"/>
      <point x="592" y="0" type="line"/>
    </contour>
  </outline>
</glyph>
<glyph name="s" format="1">
  <advance width="697"/>
  <unicode hex="0073"/>
  <outline>
    <contour>
      <point x="50" y="121" type="curve" smooth="yes"/>
      <point x="50" y="193.154"/>
      <point x="95.2879" y="254.538"/>
      <point x="172" y="261" type="curve"/>
      <point x="217.275" y="126.811"/>
      <point x="290.979" y="64"/>
      <point x="371" y="64" type="curve" smooth="yes"/>
      <point x="441" y="64"/>
      <point x="503" y="91"/>
      <point x="503" y="165" type="curve" smooth="yes"/>
      <point x="503" y="324"/>
      <point x="74" y="360"/>
      <point x="74" y="635" type="curve" smooth="yes"/>
      <point x="74" y="751"/>
      <point x="170" y="900"/>
      <point x="372" y="900" type="curve" smooth="yes"/>
      <point x="520" y="900"/>
      <point x="617" y="822"/>
      <point x="617" y="722" type="curve" smooth="yes"/>
      <point x="617" y="645.869"/>
      <point x="564" y="594.503"/>
      <point x="477" y="589" type="curve"/>
      <point x="451.91" y="743.124"/>
      <point x="396.574" y="816"/>
      <point x="321" y="816" type="curve" smooth="yes"/>
      <point x="251" y="816"/>
      <point x="209" y="760"/>
      <point x="209" y="696" type="curve" smooth="yes"/>
      <point x="209" y="509"/>
      <point x="648" y="487"/>
      <point x="648" y="220" type="curve" smooth="yes"/>
      <point x="648" y="72"/>
      <point x="494" y="-34"/>
      <point x="340" y="-34" type="curve" smooth="yes"/>
      <point x="162" y="-34"/>
      <point x="50" y="41.2857"/>
    </contour>
  </outline>
</glyph>
<glyph name="t" format="1">
  <advance width="649"/>
  <unicode hex="0074"/>
  <outline>
    <contour>
      <point x="28" y="763" type="line"/>
      <point x="28" y="817" type="line"/>
      <point x="111" y="886.12"/>
      <point x="205" y="990.88"/>
      <point x="275" y="1087" type="curve"/>
      <point x="328" y="1087" type="line"/>
      <point x="328" y="849" type="line"/>
      <point x="611" y="849" type="line"/>
      <point x="602" y="761" type="line"/>
      <point x="326" y="761" type="line"/>
      <point x="323" y="319" type="line" smooth="yes"/>
      <point x="322" y="168"/>
      <point x="368" y="122"/>
      <point x="470" y="122" type="curve" smooth="yes"/>
      <point x="544" y="122"/>
      <point x="614" y="178"/>
      <point x="614" y="178" type="curve"/>
      <point x="635" y="124" type="line"/>
      <point x="574" y="35"/>
      <point x="478" y="-23"/>
      <point x="364" y="-23" type="curve" smooth="yes"/>
      <point x="242" y="-23"/>
      <point x="149" y="37"/>
      <point x="151" y="260" type="curve" smooth="yes"/>
      <point x="155" y="763" type="line"/>
    </contour>
  </outline>
</glyph>
<glyph name="u" format="1">
  <advance width="1002"/>
  <unicode hex="0075"/>
  <outline>
    <contour>
      <point x="19" y="783" type="line"/>
      <point x="33" y="862" type="line"/>
      <point x="301" y="883" type="line"/>
      <point x="326" y="859" type="line"/>
      <point x="326" y="317" type="line" smooth="yes"/>
      <point x="326" y="166"/>
      <point x="390" y="114"/>
      <point x="480" y="114" type="curve" smooth="yes"/>
      <point x="570" y="114"/>
      <point x="623" y="147"/>
      <point x="666" y="191" type="curve"/>
      <point x="666" y="722" type="line"/>
      <point x="507" y="764" type="line"/>
      <point x="517" y="856" type="line"/>
      <point x="811" y="883" type="line"/>
      <point x="832" y="859" type="line"/>
      <point x="832" y="215" type="line" smooth="yes"/>
      <point x="832" y="115"/>
      <point x="874" y="104"/>
      <point x="940" y="89" type="curve" smooth="yes"/>
      <point x="986" y="79" type="line"/>
      <point x="977" y="-4" type="line"/>
      <point x="915" y="-19"/>
      <point x="885" y="-23"/>
      <point x="826" y="-23" type="curve" smooth="yes"/>
      <point x="726" y="-23"/>
      <point x="679" y="39"/>
      <point x="679" y="122" type="curve" smooth="yes"/>
      <point x="679" y="131" type="line"/>
      <point x="666" y="131" type="line"/>
      <point x="596" y="29"/>
      <point x="501" y="-23"/>
      <point x="380" y="-23" type="curve" smooth="yes"/>
      <point x="251" y="-23"/>
      <point x="157" y="52"/>
      <point x="157" y="267" type="curve" smooth="yes"/>
      <point x="157" y="728" type="line"/>
    </contour>
  </outline>
</glyph>
<glyph name="v" format="1">
  <advance width="904"/>
  <unicode hex="0076"/>
  <outline>
    <contour>
      <point x="-6" y="798" type="line"/>
      <point x="4" y="873" type="line"/>
      <point x="451" y="873" type="line"/>
      <point x="443" y="799" type="line"/>
      <point x="298" y="758" type="line"/>
      <point x="486" y="194" type="line"/>
      <point x="678" y="756" type="line"/>
      <point x="517" y="798" type="line"/>
      <point x="531" y="873" type="line"/>
      <point x="914" y="873" type="line"/>
      <point x="902" y="799" type="line"/>
      <point x="794" y="758" type="line"/>
      <point x="521" y="-10" type="line"/>
      <point x="394" y="-28" type="line"/>
      <point x="116" y="756" type="line"/>
    </contour>
  </outline>
</glyph>
<glyph name="w" format="1">
  <advance width="1273"/>
  <unicode hex="0077"/>
  <outline>
    <contour>
      <point x="-2" y="799" type="line"/>
      <point x="8" y="875" type="line"/>
      <point x="423" y="875" type="line"/>
      <point x="414" y="801" type="line"/>
      <point x="279" y="760" type="line"/>
      <point x="400" y="360" type="line"/>
      <point x="424" y="240" type="line"/>
      <point x="585" y="811" type="line"/>
      <point x="724" y="829" type="line"/>
      <point x="871" y="345" type="line"/>
      <point x="892" y="234" type="line"/>
      <point x="1038" y="758" type="line"/>
      <point x="888" y="799" type="line"/>
      <point x="898" y="875" type="line"/>
      <point x="1281" y="875" type="line"/>
      <point x="1269" y="801" type="line"/>
      <point x="1161" y="760" type="line"/>
      <point x="939" y="-10" type="line"/>
      <point x="820" y="-28" type="line"/>
      <point x="637" y="586" type="line"/>
      <point x="470" y="-10" type="line"/>
      <point x="351" y="-28" type="line"/>
      <point x="113" y="758" type="line"/>
    </contour>
  </outline>
</glyph>
<glyph name="x" format="1">
  <advance width="958"/>
  <unicode hex="0078"/>
  <outline>
    <contour>
      <point x="21" y="0" type="line"/>
      <point x="31" y="73" type="line"/>
      <point x="138" y="114" type="line"/>
      <point x="383" y="436" type="line"/>
      <point x="154" y="764" type="line"/>
      <point x="36" y="806" type="line"/>
      <point x="46" y="882" type="line"/>
      <point x="480" y="882" type="line"/>
      <point x="467" y="807" type="line"/>
      <point x="352" y="767" type="line"/>
      <point x="508" y="549" type="line"/>
      <point x="675" y="764" type="line"/>
      <point x="538" y="806" type="line"/>
      <point x="552" y="882" type="line"/>
      <point x="927" y="882" type="line"/>
      <point x="914" y="807" type="line"/>
      <point x="810" y="767" type="line"/>
      <point x="580" y="467" type="line"/>
      <point x="836" y="114" type="line"/>
      <point x="949" y="74" type="line"/>
      <point x="940" y="0" type="line"/>
      <point x="495" y="0" type="line"/>
      <point x="508" y="73" type="line"/>
      <point x="636" y="114" type="line"/>
      <point x="458" y="351" type="line"/>
      <point x="277" y="114" type="line"/>
      <point x="419" y="74" type="line"/>
      <point x="409" y="0" type="line"/>
    </contour>
  </outline>
</glyph>
<glyph name="y" format="1">
  <advance width="931"/>
  <unicode hex="0079"/>
  <outline>
    <contour>
      <point x="8" y="-261" type="curve" smooth="yes"/>
      <point x="8" y="-221"/>
      <point x="18" y="-181"/>
      <point x="64" y="-141" type="curve"/>
      <point x="118" y="-178"/>
      <point x="162" y="-194"/>
      <point x="215" y="-194" type="curve" smooth="yes"/>
      <point x="264" y="-194"/>
      <point x="332" y="-183"/>
      <point x="386" y="-49" type="curve" smooth="yes"/>
      <point x="406" y="0" type="line"/>
      <point x="121" y="758" type="line"/>
      <point x="-3" y="796" type="line"/>
      <point x="8" y="873" type="line"/>
      <point x="428" y="873" type="line"/>
      <point x="419" y="799" type="line"/>
      <point x="292" y="761" type="line"/>
      <point x="496" y="222" type="line"/>
      <point x="712" y="756" type="line"/>
      <point x="581" y="798" type="line"/>
      <point x="595" y="873" type="line"/>
      <point x="937" y="873" type="line"/>
      <point x="930" y="799" type="line"/>
      <point x="829" y="758" type="line"/>
      <point x="498" y="-53" type="line" smooth="yes"/>
      <point x="394" y="-309"/>
      <point x="313" y="-380"/>
      <point x="162" y="-380" type="curve" smooth="yes"/>
      <point x="70" y="-380"/>
      <point x="8" y="-318"/>
    </contour>
  </outline>
</glyph>
<glyph name="z" format="1">
  <advance width="818"/>
  <unicode hex="007A"/>
  <outline>
    <contour>
      <point x="53" y="87" type="line"/>
      <point x="543" y="780" type="line"/>
      <point x="206" y="780" type="line"/>
      <point x="147" y="595" type="line"/>
      <point x="70" y="608" type="line"/>
      <point x="78" y="873" type="line"/>
      <point x="750" y="873" type="line"/>
      <point x="750" y="799" type="line"/>
      <point x="248" y="99" type="line"/>
      <point x="608" y="99" type="line"/>
      <point x="703" y="275" type="line"/>
      <point x="770" y="267" type="line"/>
      <point x="728" y="0" type="line"/>
      <point x="57" y="0" type="line"/>
    </contour>
  </outline>
</glyph>
<glyph name="braceleft" format="1">
  <advance width="551"/>
  <unicode hex="007B"/>
  <outline>
    <contour>
      <point x="4" y="389" type="line"/>
      <point x="4" y="488" type="line"/>
      <point x="53" y="497" type="line"/>
      <point x="345" y="547"/>
      <point x="17" y="1255"/>
      <point x="426" y="1255" type="curve" smooth="yes"/>
      <point x="527" y="1255" type="line"/>
      <point x="518" y="1155" type="line"/>
      <point x="436" y="1149" type="line" smooth="yes"/>
      <point x="368" y="1143"/>
      <point x="364" y="1044"/>
      <point x="364" y="921" type="curve" smooth="yes"/>
      <point x="364" y="862" type="line" smooth="yes"/>
      <point x="364" y="687"/>
      <point x="356" y="491"/>
      <point x="194" y="445" type="curve"/>
      <point x="194" y="438" type="line"/>
      <point x="492" y="352"/>
      <point x="265" y="-259"/>
      <point x="449" y="-271" type="curve" smooth="yes"/>
      <point x="523" y="-277" type="line"/>
      <point x="531" y="-378" type="line"/>
      <point x="429" y="-378" type="line" smooth="yes"/>
      <point x="14" y="-378"/>
      <point x="343" y="335"/>
      <point x="56" y="381" type="curve" smooth="yes"/>
    </contour>
  </outline>
</glyph>
<glyph name="bar" format="1">
  <advance width="331"/>
  <unicode hex="007C"/>
  <outline>
    <contour>
      <point x="109" y="-366" type="line"/>
      <point x="109" y="1260" type="line"/>
      <point x="224" y="1248" type="line"/>
      <point x="224" y="-380" type="line"/>
    </contour>
  </outline>
</glyph>
<glyph name="braceright" format="1">
  <advance width="553"/>
  <unicode hex="007D"/>
  <outline>
    <contour>
      <point x="22" y="-378" type="line"/>
      <point x="31" y="-277" type="line"/>
      <point x="105" y="-271" type="line" smooth="yes"/>
      <point x="289" y="-259"/>
      <point x="62" y="352"/>
      <point x="360" y="438" type="curve"/>
      <point x="360" y="445" type="line"/>
      <point x="62" y="515"/>
      <point x="292" y="1134"/>
      <point x="117" y="1149" type="curve" smooth="yes"/>
      <point x="35" y="1155" type="line"/>
      <point x="28" y="1255" type="line"/>
      <point x="129" y="1255" type="line" smooth="yes"/>
      <point x="538" y="1255"/>
      <point x="208" y="547"/>
      <point x="500" y="497" type="curve"/>
      <point x="549" y="488" type="line"/>
      <point x="549" y="389" type="line"/>
      <point x="497" y="381" type="line" smooth="yes"/>
      <point x="210" y="335"/>
      <point x="541" y="-378"/>
      <point x="126" y="-378" type="curve" smooth="yes"/>
    </contour>
  </outline>
</glyph>
<glyph name="asciitilde" format="1">
  <advance width="947"/>
  <unicode hex="007E"/>
  <outline>
    <contour>
      <point x="83" y="412" type="line" smooth="yes"/>
      <point x="83" y="412"/>
      <point x="142" y="624"/>
      <point x="274" y="611" type="curve" smooth="yes"/>
      <point x="724" y="566" type="line" smooth="yes"/>
      <point x="761" y="563"/>
      <point x="806" y="628"/>
      <point x="806" y="628" type="curve"/>
      <point x="870" y="626" type="line" smooth="yes"/>
      <point x="870" y="626"/>
      <point x="808" y="409"/>
      <point x="672" y="424" type="curve" smooth="yes"/>
      <point x="222" y="469" type="line" smooth="yes"/>
      <point x="182" y="473"/>
      <point x="138" y="399"/>
      <point x="138" y="399" type="curve"/>
    </contour>
  </outline>
</glyph>
<glyph name="cent" format="1">
  <advance width="808"/>
  <unicode hex="00A2"/>
  <outline>
    <contour>
      <point x="41" y="415" type="curve" smooth="yes"/>
      <point x="41" y="712"/>
      <point x="249" y="940"/>
      <point x="466" y="940" type="curve" smooth="yes"/>
      <point x="633" y="940"/>
      <point x="707" y="866"/>
      <point x="707" y="787" type="curve" smooth="yes"/>
      <point x="707" y="728"/>
      <point x="664" y="689"/>
      <point x="581" y="683" type="curve"/>
      <point x="553" y="750"/>
      <point x="506" y="846"/>
      <point x="419" y="846" type="curve" smooth="yes"/>
      <point x="300" y="846"/>
      <point x="222" y="688"/>
      <point x="222" y="507" type="curve" smooth="yes"/>
      <point x="222" y="340"/>
      <point x="311" y="90"/>
      <point x="519" y="90" type="curve" smooth="yes"/>
      <point x="618" y="90"/>
      <point x="674" y="121"/>
      <point x="721" y="151" type="curve"/>
      <point x="746" y="93" type="line"/>
      <point x="693" y="29"/>
      <point x="565" y="-30"/>
      <point x="436" y="-30" type="curve" smooth="yes"/>
      <point x="196" y="-30"/>
      <point x="41" y="175"/>
    </contour>
    <contour>
      <point x="347" y="1154" type="line"/>
      <point x="493" y="1171" type="line"/>
      <point x="469" y="903" type="line"/>
      <point x="378" y="903" type="line"/>
    </contour>
    <contour>
      <point x="357" y="-266" type="line"/>
      <point x="383" y="0" type="line"/>
      <point x="472" y="0" type="line"/>
      <point x="505" y="-250" type="line"/>
    </contour>
  </outline>
</glyph>
<glyph name="sterling" format="1">
  <advance width="1113"/>
  <unicode hex="00A3"/>
  <outline>
    <contour>
      <point x="43" y="0" type="line"/>
      <point x="50" y="74" type="line"/>
      <point x="218" y="121" type="line"/>
      <point x="249" y="221"/>
      <point x="254" y="313"/>
      <point x="257" y="461" type="curve" smooth="yes"/>
      <point x="260" y="549" type="line"/>
      <point x="80" y="538" type="line"/>
      <point x="92" y="639" type="line"/>
      <point x="263" y="649" type="line"/>
      <point x="267" y="747" type="line" smooth="yes"/>
      <point x="281.909" y="1112.27"/>
      <point x="488.798" y="1250"/>
      <point x="683" y="1250" type="curve" smooth="yes"/>
      <point x="763" y="1250"/>
      <point x="837" y="1242.46"/>
      <point x="916" y="1201" type="curve"/>
      <point x="885" y="875" type="line"/>
      <point x="799" y="887" type="line"/>
      <point x="758" y="1081" type="line"/>
      <point x="732" y="1122"/>
      <point x="677.87" y="1143"/>
      <point x="619" y="1143" type="curve" smooth="yes"/>
      <point x="516" y="1143"/>
      <point x="480.964" y="1091.32"/>
      <point x="468" y="845" type="curve" smooth="yes"/>
      <point x="458" y="655" type="line"/>
      <point x="676" y="669" type="line"/>
      <point x="666" y="568" type="line"/>
      <point x="455" y="555" type="line"/>
      <point x="454" y="515" type="line" smooth="yes"/>
      <point x="451" y="356"/>
      <point x="440" y="196"/>
      <point x="393" y="99" type="curve"/>
      <point x="853" y="96" type="line"/>
      <point x="984" y="349" type="line"/>
      <point x="1070" y="331" type="line"/>
      <point x="1032" y="0" type="line"/>
    </contour>
  </outline>
</glyph>
<glyph name="yen" format="1">
  <advance width="1097"/>
  <unicode hex="00A5"/>
  <outline>
    <contour>
      <point x="42" y="1168" type="line"/>
      <point x="55" y="1244" type="line"/>
      <point x="515" y="1244" type="line"/>
      <point x="504" y="1168" type="line"/>
      <point x="371" y="1130" type="line"/>
      <point x="589" y="636" type="line"/>
      <point x="806" y="1126" type="line"/>
      <point x="649" y="1168" type="line"/>
      <point x="658" y="1244" type="line"/>
      <point x="1054" y="1244" type="line"/>
      <point x="1045" y="1168" type="line"/>
      <point x="921" y="1130" type="line"/>
      <point x="667" y="578" type="line"/>
      <point x="968" y="578" type="line"/>
      <point x="957" y="480" type="line"/>
      <point x="640" y="480" type="line"/>
      <point x="640" y="338" type="line"/>
      <point x="964" y="338" type="line"/>
      <point x="953" y="240" type="line"/>
      <point x="640" y="240" type="line"/>
      <point x="640" y="113" type="line"/>
      <point x="804" y="78" type="line"/>
      <point x="794" y="0" type="line"/>
      <point x="294" y="0" type="line"/>
      <point x="304" y="71" type="line"/>
      <point x="453" y="119" type="line"/>
      <point x="453" y="240" type="line"/>
      <point x="143" y="240" type="line"/>
      <point x="155" y="338" type="line"/>
      <point x="453" y="338" type="line"/>
      <point x="453" y="480" type="line"/>
      <point x="147" y="480" type="line"/>
      <point x="159" y="578" type="line"/>
      <point x="426" y="578" type="line"/>
      <point x="178" y="1126" type="line"/>
    </contour>
  </outline>
</glyph>
<glyph name="brokenbar" format="1">
  <advance width="335"/>
  <unicode hex="00A6"/>
  <outline>
    <contour>
      <point x="109" y="-366" type="line"/>
      <point x="109" y="423" type="line"/>
      <point x="228" y="411" type="line"/>
      <point x="228" y="-380" type="line"/>
    </contour>
    <contour>
      <point x="109" y="540" type="line"/>
      <point x="109" y="1260" type="line"/>
      <point x="227" y="1248" type="line"/>
      <point x="225" y="529" type="line"/>
    </contour>
  </outline>
</glyph>
<glyph name="copyright" format="1">
  <advance width="1377"/>
  <unicode hex="00A9"/>
  <outline>
    <contour>
      <point x="53" y="645" type="curve" smooth="yes"/>
      <point x="53" y="1026"/>
      <point x="346" y="1320"/>
      <point x="684" y="1320" type="curve" smooth="yes"/>
      <point x="1079" y="1320"/>
      <point x="1327" y="1033"/>
      <point x="1327" y="649" type="curve" smooth="yes"/>
      <point x="1327" y="292"/>
      <point x="1041" y="-15"/>
      <point x="675" y="-15" type="curve" smooth="yes"/>
      <point x="309" y="-15"/>
      <point x="53" y="270"/>
    </contour>
    <contour>
      <point x="176" y="657" type="curve" smooth="yes"/>
      <point x="176" y="329"/>
      <point x="387" y="92"/>
      <point x="683" y="92" type="curve" smooth="yes"/>
      <point x="971" y="92"/>
      <point x="1205" y="325"/>
      <point x="1205" y="639" type="curve" smooth="yes"/>
      <point x="1205" y="964"/>
      <point x="1019" y="1217"/>
      <point x="684" y="1217" type="curve" smooth="yes"/>
      <point x="396" y="1217"/>
      <point x="176" y="961"/>
    </contour>
    <component base="c" xScale="0.85" yScale="0.85" xOffset="302" yOffset="291"/>
  </outline>
</glyph>
<glyph name="logicalnot" format="1">
  <advance width="910"/>
  <unicode hex="00AC"/>
  <outline>
    <contour>
      <point x="74" y="559" type="line"/>
      <point x="86" y="663" type="line"/>
      <point x="830" y="663" type="line"/>
      <point x="832" y="351" type="line"/>
      <point x="726" y="332" type="line"/>
      <point x="726" y="559" type="line"/>
    </contour>
  </outline>
</glyph>
<glyph name="macron" format="1">
  <advance width="637"/>
  <unicode hex="00AF"/>
  <outline>
    <contour>
      <point x="92" y="1379" type="line"/>
      <point x="105" y="1479" type="line"/>
      <point x="547" y="1479" type="line"/>
      <point x="534" y="1379" type="line"/>
    </contour>
  </outline>
</glyph>
<glyph name="degree" format="1">
  <advance width="424"/>
  <unicode hex="00B0"/>
  <outline>
    <contour>
      <point x="32" y="1107" type="curve" smooth="yes"/>
      <point x="32" y="1210"/>
      <point x="117" y="1304"/>
      <point x="225" y="1304" type="curve" smooth="yes"/>
      <point x="341" y="1304"/>
      <point x="396" y="1237"/>
      <point x="396" y="1128" type="curve" smooth="yes"/>
      <point x="396" y="1013"/>
      <point x="307" y="928"/>
      <point x="201" y="928" type="curve" smooth="yes"/>
      <point x="99" y="928"/>
      <point x="32" y="990"/>
    </contour>
    <contour>
      <point x="123" y="1129" type="curve" smooth="yes"/>
      <point x="123" y="1068"/>
      <point x="155" y="995"/>
      <point x="219" y="995" type="curve" smooth="yes"/>
      <point x="273" y="995"/>
      <point x="304" y="1032"/>
      <point x="304" y="1105" type="curve" smooth="yes"/>
      <point x="304" y="1167"/>
      <point x="271" y="1237"/>
      <point x="209" y="1237" type="curve" smooth="yes"/>
      <point x="150" y="1237"/>
      <point x="123" y="1185"/>
    </contour>
  </outline>
</glyph>
<glyph name="plusminus" format="1">
  <advance width="737"/>
  <unicode hex="00B1"/>
  <outline>
    <contour>
      <point x="58" y="13" type="line"/>
      <point x="74" y="117" type="line"/>
      <point x="686" y="123" type="line"/>
      <point x="670" y="19" type="line"/>
    </contour>
    <contour>
      <point x="83" y="475" type="line"/>
      <point x="95" y="575" type="line"/>
      <point x="304" y="575" type="line"/>
      <point x="304" y="807" type="line"/>
      <point x="412" y="795" type="line"/>
      <point x="414" y="575" type="line"/>
      <point x="633" y="575" type="line"/>
      <point x="621" y="475" type="line"/>
      <point x="414" y="475" type="line"/>
      <point x="415" y="240" type="line"/>
      <point x="304" y="251" type="line"/>
      <point x="304" y="475" type="line"/>
    </contour>
  </outline>
</glyph>
<glyph name="two.superior" format="1">
  <advance width="622"/>
  <unicode hex="00B2"/>
  <outline>
    <contour>
      <point x="35" y="638" type="line"/>
      <point x="190" y="761" type="line" smooth="yes"/>
      <point x="294" y="846"/>
      <point x="373" y="930"/>
      <point x="373" y="1005" type="curve" smooth="yes"/>
      <point x="373" y="1077"/>
      <point x="358" y="1153"/>
      <point x="264" y="1153" type="curve" smooth="yes"/>
      <point x="215" y="1153"/>
      <point x="175" y="1127"/>
      <point x="160" y="1095" type="curve"/>
      <point x="138" y="966" type="line"/>
      <point x="70" y="971" type="line"/>
      <point x="55" y="1141" type="line"/>
      <point x="96" y="1218"/>
      <point x="227" y="1257"/>
      <point x="328" y="1257" type="curve" smooth="yes"/>
      <point x="481" y="1257"/>
      <point x="569" y="1189"/>
      <point x="569" y="1071" type="curve" smooth="yes"/>
      <point x="569" y="918"/>
      <point x="421" y="803"/>
      <point x="258" y="696" type="curve" smooth="yes"/>
      <point x="191" y="652" type="line"/>
      <point x="461" y="652" type="line"/>
      <point x="540" y="805" type="line"/>
      <point x="597" y="784" type="line"/>
      <point x="578" y="531" type="line"/>
      <point x="27" y="531" type="line"/>
    </contour>
  </outline>
</glyph>
<glyph name="paragraph" format="1">
  <advance width="1289"/>
  <unicode hex="00B6"/>
  <outline>
    <contour>
      <point x="44" y="828" type="curve" smooth="yes"/>
      <point x="44" y="1065"/>
      <point x="244" y="1245"/>
      <point x="487" y="1245" type="curve" smooth="yes"/>
      <point x="833" y="1245" type="line"/>
      <point x="833" y="0" type="line"/>
      <point x="427" y="0" type="line"/>
      <point x="434" y="74" type="line"/>
      <point x="675" y="121" type="line"/>
      <point x="675" y="1152" type="line"/>
      <point x="635" y="1153"/>
      <point x="578" y="1154"/>
      <point x="568" y="1154" type="curve" smooth="yes"/>
      <point x="353" y="1154"/>
      <point x="249" y="1041"/>
      <point x="249" y="863" type="curve" smooth="yes"/>
      <point x="249" y="692"/>
      <point x="344" y="546"/>
      <point x="562" y="546" type="curve"/>
      <point x="544" y="448" type="line"/>
      <point x="283" y="448"/>
      <point x="44" y="536"/>
    </contour>
    <contour>
      <point x="912" y="0" type="line"/>
      <point x="912" y="1245" type="line"/>
      <point x="1232" y="1245" type="line"/>
      <point x="1223" y="1168" type="line"/>
      <point x="1053" y="1130" type="line"/>
      <point x="1053" y="114" type="line"/>
      <point x="1234" y="80" type="line"/>
      <point x="1224" y="0" type="line"/>
    </contour>
  </outline>
</glyph>
<glyph name="periodcentered" format="1">
  <advance width="406"/>
  <unicode hex="00B7"/>
  <outline>
    <contour>
      <point x="83" y="504" type="curve" smooth="yes"/>
      <point x="83" y="568"/>
      <point x="139" y="618"/>
      <point x="203" y="618" type="curve" smooth="yes"/>
      <point x="269" y="618"/>
      <point x="325" y="568"/>
      <point x="325" y="504" type="curve" smooth="yes"/>
      <point x="325" y="437"/>
      <point x="269" y="381"/>
      <point x="203" y="381" type="curve" smooth="yes"/>
      <point x="137" y="381"/>
      <point x="83" y="437"/>
    </contour>
  </outline>
</glyph>
<glyph name="cedilla" format="1">
  <advance width="341"/>
  <unicode hex="00B8"/>
  <outline>
    <contour>
      <point x="62" y="-331" type="line"/>
      <point x="119" y="-312"/>
      <point x="148" y="-278"/>
      <point x="148" y="-248" type="curve" smooth="yes"/>
      <point x="148" y="-214"/>
      <point x="110" y="-172"/>
      <point x="74" y="-138" type="curve"/>
      <point x="172" y="3" type="line"/>
      <point x="246" y="3" type="line"/>
      <point x="193" y="-76" type="line"/>
      <point x="230" y="-109"/>
      <point x="282" y="-160"/>
      <point x="282" y="-227" type="curve" smooth="yes"/>
      <point x="282" y="-306"/>
      <point x="197" y="-355"/>
      <point x="81" y="-389" type="curve"/>
    </contour>
  </outline>
</glyph>
<glyph name="one.superior" format="1">
  <advance width="512"/>
  <unicode hex="00B9"/>
  <outline>
    <contour>
      <point x="23" y="531" type="line"/>
      <point x="27" y="605" type="line"/>
      <point x="180" y="630" type="line"/>
      <point x="180" y="1122" type="line"/>
      <point x="35" y="1122" type="line"/>
      <point x="39" y="1199" type="line"/>
      <point x="341" y="1245" type="line"/>
      <point x="360" y="1245" type="line"/>
      <point x="360" y="627" type="line"/>
      <point x="512" y="614" type="line"/>
      <point x="506" y="531" type="line"/>
    </contour>
  </outline>
</glyph>
<glyph name="ordmasculine" format="1">
  <advance width="934"/>
  <unicode hex="00BA"/>
  <outline>
    <contour>
      <point x="114" y="876" type="curve" smooth="yes"/>
      <point x="114" y="1119"/>
      <point x="294" y="1258"/>
      <point x="484" y="1258" type="curve" smooth="yes"/>
      <point x="693" y="1258"/>
      <point x="820" y="1108"/>
      <point x="820" y="888" type="curve" smooth="yes"/>
      <point x="820" y="665"/>
      <point x="662" y="514"/>
      <point x="464" y="514" type="curve" smooth="yes"/>
      <point x="240" y="514"/>
      <point x="114" y="670"/>
    </contour>
    <contour>
      <point x="286" y="933" type="curve" smooth="yes"/>
      <point x="286" y="768"/>
      <point x="325" y="592"/>
      <point x="492" y="592" type="curve" smooth="yes"/>
      <point x="612" y="592"/>
      <point x="648" y="710"/>
      <point x="648" y="823" type="curve" smooth="yes"/>
      <point x="648" y="981"/>
      <point x="610" y="1174"/>
      <point x="448" y="1174" type="curve" smooth="yes"/>
      <point x="320" y="1174"/>
      <point x="286" y="1059"/>
    </contour>
  </outline>
</glyph>
<glyph name="guillemotright" format="1">
  <advance width="645"/>
  <unicode hex="00BB"/>
  <outline>
    <contour>
      <point x="61" y="141" type="line"/>
      <point x="228" y="461" type="line"/>
      <point x="64" y="761" type="line"/>
      <point x="108" y="820" type="line"/>
      <point x="376" y="469" type="line"/>
      <point x="374" y="449" type="line"/>
      <point x="113" y="77" type="line"/>
    </contour>
    <contour>
      <point x="308" y="141" type="line"/>
      <point x="476" y="461" type="line"/>
      <point x="311" y="761" type="line"/>
      <point x="355" y="820" type="line"/>
      <point x="623" y="469" type="line"/>
      <point x="621" y="449" type="line"/>
      <point x="360" y="77" type="line"/>
    </contour>
  </outline>
</glyph>
<glyph name="onequarter" format="1">
  <advance width="1736"/>
  <unicode hex="00BC"/>
  <outline>
    <contour>
      <point x="693" y="270" type="line"/>
      <point x="1103" y="737" type="line"/>
      <point x="1160" y="726" type="line"/>
      <point x="1155" y="655"/>
      <point x="1151" y="539"/>
      <point x="1151" y="430" type="curve" smooth="yes"/>
      <point x="1151" y="272" type="line"/>
      <point x="1299" y="272" type="line"/>
      <point x="1290" y="175" type="line"/>
      <point x="1151" y="175" type="line"/>
      <point x="1151" y="83" type="line"/>
      <point x="1272" y="65" type="line"/>
      <point x="1266" y="0" type="line"/>
      <point x="852" y="0" type="line"/>
      <point x="856" y="58" type="line"/>
      <point x="993" y="85" type="line"/>
      <point x="993" y="178" type="line"/>
      <point x="706" y="178" type="line"/>
    </contour>
    <contour>
      <point x="800" y="272" type="line"/>
      <point x="990" y="272" type="line"/>
      <point x="990" y="508" type="line"/>
    </contour>
    <contour>
      <point x="-52" y="531" type="line"/>
      <point x="-48" y="605" type="line"/>
      <point x="105" y="630" type="line"/>
      <point x="105" y="1122" type="line"/>
      <point x="-40" y="1122" type="line"/>
      <point x="-36" y="1199" type="line"/>
      <point x="266" y="1245" type="line"/>
      <point x="285" y="1245" type="line"/>
      <point x="285" y="627" type="line"/>
      <point x="437" y="614" type="line"/>
      <point x="431" y="531" type="line"/>
    </contour>
    <contour>
      <point x="159" y="-10" type="line"/>
      <point x="566" y="588" type="line"/>
      <point x="957" y="1210" type="line"/>
      <point x="1113" y="1207" type="line"/>
      <point x="1111" y="1178" type="line"/>
      <point x="710" y="591" type="line"/>
      <point x="339" y="-32" type="line"/>
    </contour>
  </outline>
</glyph>
<glyph name="threequarters" format="1">
  <advance width="1736"/>
  <unicode hex="00BE"/>
  <outline>
    <contour>
      <point x="-31" y="546" type="curve"/>
      <point x="-1" y="745" type="line"/>
      <point x="74" y="737" type="line"/>
      <point x="82" y="602" type="line"/>
      <point x="100" y="581"/>
      <point x="138" y="562"/>
      <point x="181" y="562" type="curve" smooth="yes"/>
      <point x="276" y="562"/>
      <point x="332" y="618"/>
      <point x="332" y="702" type="curve" smooth="yes"/>
      <point x="332" y="773"/>
      <point x="249" y="832"/>
      <point x="128" y="832" type="curve"/>
      <point x="112" y="891" type="line"/>
      <point x="160" y="906"/>
      <point x="296" y="954"/>
      <point x="296" y="1053" type="curve" smooth="yes"/>
      <point x="296" y="1110"/>
      <point x="261" y="1172"/>
      <point x="189" y="1172" type="curve" smooth="yes"/>
      <point x="158" y="1172"/>
      <point x="127" y="1169"/>
      <point x="106" y="1150" type="curve"/>
      <point x="82" y="993" type="line"/>
      <point x="6" y="999" type="line"/>
      <point x="-6" y="1170" type="line"/>
      <point x="25" y="1214"/>
      <point x="140" y="1262"/>
      <point x="243" y="1262" type="curve" smooth="yes"/>
      <point x="378" y="1262"/>
      <point x="483" y="1206"/>
      <point x="483" y="1100" type="curve" smooth="yes"/>
      <point x="483" y="996"/>
      <point x="401" y="938"/>
      <point x="304" y="910" type="curve"/>
      <point x="304" y="903" type="line"/>
      <point x="449" y="888"/>
      <point x="522" y="822"/>
      <point x="522" y="719" type="curve" smooth="yes"/>
      <point x="522" y="583"/>
      <point x="365" y="478"/>
      <point x="177" y="478" type="curve" smooth="yes"/>
      <point x="82" y="478"/>
      <point x="-11" y="504"/>
    </contour>
    <contour>
      <point x="173" y="-10" type="line"/>
      <point x="580" y="588" type="line"/>
      <point x="971" y="1210" type="line"/>
      <point x="1147" y="1207" type="line"/>
      <point x="1145" y="1178" type="line"/>
      <point x="744" y="591" type="line"/>
      <point x="373" y="-32" type="line"/>
    </contour>
    <contour>
      <point x="693" y="270" type="line"/>
      <point x="1103" y="737" type="line"/>
      <point x="1160" y="726" type="line"/>
      <point x="1155" y="655"/>
      <point x="1151" y="539"/>
      <point x="1151" y="430" type="curve" smooth="yes"/>
      <point x="1151" y="272" type="line"/>
      <point x="1299" y="272" type="line"/>
      <point x="1290" y="175" type="line"/>
      <point x="1151" y="175" type="line"/>
      <point x="1151" y="83" type="line"/>
      <point x="1272" y="65" type="line"/>
      <point x="1266" y="0" type="line"/>
      <point x="852" y="0" type="line"/>
      <point x="856" y="58" type="line"/>
      <point x="993" y="85" type="line"/>
      <point x="993" y="178" type="line"/>
      <point x="706" y="178" type="line"/>
    </contour>
    <contour>
      <point x="800" y="272" type="line"/>
      <point x="990" y="272" type="line"/>
      <point x="990" y="508" type="line"/>
    </contour>
  </outline>
</glyph>
<glyph name="Agrave" format="1">
  <advance width="2048"/>
  <unicode hex="00C0"/>
  <outline>
    <contour>
      <point x="-37" y="0" type="line"/>
      <point x="-28" y="74" type="line"/>
      <point x="121" y="129" type="line"/>
      <point x="559" y="1237" type="line"/>
      <point x="710" y="1268" type="line"/>
      <point x="1100" y="124" type="line"/>
      <point x="1237" y="80" type="line"/>
      <point x="1228" y="0" type="line"/>
      <point x="713" y="0" type="line"/>
      <point x="725" y="74" type="line"/>
      <point x="896" y="129" type="line"/>
      <point x="787" y="432" type="line"/>
      <point x="368" y="432" type="line"/>
      <point x="256" y="124" type="line"/>
      <point x="442" y="80" type="line"/>
      <point x="431" y="0" type="line"/>
    </contour>
    <contour>
      <point x="406" y="534" type="line"/>
      <point x="758" y="534" type="line"/>
      <point x="592" y="1034" type="line"/>
    </contour>
    <contour>
      <point x="436" y="1664" type="line"/>
      <point x="552" y="1702" type="line"/>
      <point x="684" y="1368" type="line"/>
      <point x="627" y="1334" type="line"/>
    </contour>
  </outline>
</glyph>
<glyph name="Aacute" format="1">
  <advance width="1234"/>
  <unicode hex="00C1"/>
  <outline>
    <contour>
      <point x="-37" y="0" type="line"/>
      <point x="-28" y="74" type="line"/>
      <point x="121" y="129" type="line"/>
      <point x="559" y="1237" type="line"/>
      <point x="710" y="1268" type="line"/>
      <point x="1100" y="124" type="line"/>
      <point x="1237" y="80" type="line"/>
      <point x="1228" y="0" type="line"/>
      <point x="713" y="0" type="line"/>
      <point x="725" y="74" type="line"/>
      <point x="896" y="129" type="line"/>
      <point x="787" y="432" type="line"/>
      <point x="368" y="432" type="line"/>
      <point x="256" y="124" type="line"/>
      <point x="442" y="80" type="line"/>
      <point x="431" y="0" type="line"/>
    </contour>
    <contour>
      <point x="406" y="534" type="line"/>
      <point x="758" y="534" type="line"/>
      <point x="592" y="1034" type="line"/>
    </contour>
    <contour>
      <point x="593" y="1385" type="line"/>
      <point x="716" y="1710" type="line"/>
      <point x="827" y="1670" type="line"/>
      <point x="643" y="1354" type="line"/>
    </contour>
  </outline>
</glyph>
<glyph name="Aring" format="1">
  <advance width="1234"/>
  <unicode hex="00C5"/>
  <outline>
    <contour>
      <point x="-37" y="0" type="line"/>
      <point x="-28" y="74" type="line"/>
      <point x="121" y="129" type="line"/>
      <point x="559" y="1237" type="line"/>
      <point x="710" y="1268" type="line"/>
      <point x="1100" y="124" type="line"/>
      <point x="1237" y="80" type="line"/>
      <point x="1228" y="0" type="line"/>
      <point x="713" y="0" type="line"/>
      <point x="725" y="74" type="line"/>
      <point x="896" y="129" type="line"/>
      <point x="787" y="432" type="line"/>
      <point x="368" y="432" type="line"/>
      <point x="256" y="124" type="line"/>
      <point x="442" y="80" type="line"/>
      <point x="431" y="0" type="line"/>
    </contour>
    <contour>
      <point x="406" y="534" type="line"/>
      <point x="758" y="534" type="line"/>
      <point x="592" y="1034" type="line"/>
    </contour>
    <contour>
      <point x="480" y="1532" type="curve" smooth="yes"/>
      <point x="480" y="1624"/>
      <point x="556" y="1704"/>
      <point x="649" y="1704" type="curve" smooth="yes"/>
      <point x="745" y="1704"/>
      <point x="804" y="1635"/>
      <point x="804" y="1542" type="curve" smooth="yes"/>
      <point x="804" y="1452"/>
      <point x="738" y="1367"/>
      <point x="636" y="1367" type="curve" smooth="yes"/>
      <point x="544" y="1367"/>
      <point x="480" y="1430"/>
    </contour>
    <contour>
      <point x="552" y="1543" type="curve" smooth="yes"/>
      <point x="552" y="1482"/>
      <point x="583" y="1415"/>
      <point x="647" y="1415" type="curve" smooth="yes"/>
      <point x="701" y="1415"/>
      <point x="734" y="1456"/>
      <point x="734" y="1529" type="curve" smooth="yes"/>
      <point x="734" y="1591"/>
      <point x="698" y="1656"/>
      <point x="636" y="1656" type="curve" smooth="yes"/>
      <point x="577" y="1656"/>
      <point x="552" y="1599"/>
    </contour>
  </outline>
</glyph>
<glyph name="Ccedilla" format="1">
  <advance width="2048"/>
  <unicode hex="00C7"/>
  <outline>
    <contour>
      <point x="61" y="589" type="curve" smooth="yes"/>
      <point x="61" y="884"/>
      <point x="247" y="1269"/>
      <point x="705" y="1269" type="curve" smooth="yes"/>
      <point x="837" y="1269"/>
      <point x="970" y="1242"/>
      <point x="1066" y="1169" type="curve"/>
      <point x="1035" y="837" type="line"/>
      <point x="947" y="850" type="line"/>
      <point x="906" y="1070" type="line"/>
      <point x="860" y="1129"/>
      <point x="776" y="1174"/>
      <point x="647" y="1174" type="curve" smooth="yes"/>
      <point x="439" y="1174"/>
      <point x="275" y="980"/>
      <point x="275" y="658" type="curve" smooth="yes"/>
      <point x="275" y="299"/>
      <point x="492" y="111"/>
      <point x="729" y="111" type="curve" smooth="yes"/>
      <point x="863" y="111"/>
      <point x="992" y="182"/>
      <point x="1078" y="261" type="curve"/>
      <point x="1114" y="185" type="line"/>
      <point x="1047" y="104"/>
      <point x="910" y="9"/>
      <point x="743" y="-18" type="curve"/>
      <point x="703" y="-76" type="line"/>
      <point x="740" y="-109"/>
      <point x="792" y="-160"/>
      <point x="792" y="-227" type="curve" smooth="yes"/>
      <point x="792" y="-306"/>
      <point x="708" y="-355"/>
      <point x="592" y="-389" type="curve"/>
      <point x="572" y="-331" type="line"/>
      <point x="629" y="-312"/>
      <point x="658" y="-278"/>
      <point x="658" y="-248" type="curve" smooth="yes"/>
      <point x="658" y="-214"/>
      <point x="621" y="-172"/>
      <point x="585" y="-138" type="curve"/>
      <point x="663" y="-24" type="line"/>
      <point x="652" y="-24" type="line" smooth="yes"/>
      <point x="345" y="-24"/>
      <point x="61" y="190"/>
    </contour>
  </outline>
</glyph>
<glyph name="Eacute" format="1">
  <advance width="1142"/>
  <unicode hex="00C9"/>
  <outline>
    <contour>
      <point x="50" y="1168" type="line"/>
      <point x="61" y="1244" type="line"/>
      <point x="1056" y="1244" type="line"/>
      <point x="1025" y="924" type="line"/>
      <point x="938" y="937" type="line"/>
      <point x="897" y="1152" type="line"/>
      <point x="426" y="1152" type="line"/>
      <point x="426" y="676" type="line"/>
      <point x="716" y="676" type="line"/>
      <point x="758" y="796" type="line"/>
      <point x="853" y="810" type="line"/>
      <point x="819" y="421" type="line"/>
      <point x="734" y="408" type="line"/>
      <point x="700" y="583" type="line"/>
      <point x="426" y="583" type="line"/>
      <point x="426" y="96" type="line"/>
      <point x="921" y="96" type="line"/>
      <point x="1019" y="326" type="line"/>
      <point x="1102" y="313" type="line"/>
      <point x="1072" y="0" type="line"/>
      <point x="57" y="0" type="line"/>
      <point x="65" y="74" type="line"/>
      <point x="232" y="121" type="line"/>
      <point x="232" y="1126" type="line"/>
    </contour>
    <contour>
      <point x="517" y="1385" type="line"/>
      <point x="640" y="1710" type="line"/>
      <point x="751" y="1670" type="line"/>
      <point x="568" y="1354" type="line"/>
    </contour>
  </outline>
</glyph>
<glyph name="Igrave" format="1">
  <advance width="655"/>
  <unicode hex="00CC"/>
  <outline>
    <contour>
      <point x="50" y="1168" type="line"/>
      <point x="61" y="1244" type="line"/>
      <point x="605" y="1244" type="line"/>
      <point x="595" y="1168" type="line"/>
      <point x="426" y="1130" type="line"/>
      <point x="426" y="114" type="line"/>
      <point x="607" y="80" type="line"/>
      <point x="597" y="0" type="line"/>
      <point x="57" y="0" type="line"/>
      <point x="65" y="74" type="line"/>
      <point x="232" y="121" type="line"/>
      <point x="232" y="1126" type="line"/>
    </contour>
    <contour>
      <point x="133" y="1664" type="line"/>
      <point x="249" y="1702" type="line"/>
      <point x="381" y="1368" type="line"/>
      <point x="323" y="1334" type="line"/>
    </contour>
  </outline>
</glyph>
<glyph name="Iacute" format="1">
  <advance width="655"/>
  <unicode hex="00CD"/>
  <outline>
    <contour>
      <point x="50" y="1168" type="line"/>
      <point x="61" y="1244" type="line"/>
      <point x="605" y="1244" type="line"/>
      <point x="595" y="1168" type="line"/>
      <point x="426" y="1130" type="line"/>
      <point x="426" y="114" type="line"/>
      <point x="607" y="80" type="line"/>
      <point x="597" y="0" type="line"/>
      <point x="57" y="0" type="line"/>
      <point x="65" y="74" type="line"/>
      <point x="232" y="121" type="line"/>
      <point x="232" y="1126" type="line"/>
    </contour>
    <contour>
      <point x="289" y="1385" type="line"/>
      <point x="412" y="1710" type="line"/>
      <point x="523" y="1670" type="line"/>
      <point x="341" y="1354" type="line"/>
    </contour>
  </outline>
</glyph>
<glyph name="Idieresis" format="1">
  <advance width="655"/>
  <unicode hex="00CF"/>
  <outline>
    <contour>
      <point x="50" y="1168" type="line"/>
      <point x="61" y="1244" type="line"/>
      <point x="605" y="1244" type="line"/>
      <point x="595" y="1168" type="line"/>
      <point x="426" y="1130" type="line"/>
      <point x="426" y="114" type="line"/>
      <point x="607" y="80" type="line"/>
      <point x="597" y="0" type="line"/>
      <point x="57" y="0" type="line"/>
      <point x="65" y="74" type="line"/>
      <point x="232" y="121" type="line"/>
      <point x="232" y="1126" type="line"/>
    </contour>
    <contour>
      <point x="110" y="1453" type="curve" smooth="yes"/>
      <point x="110" y="1500"/>
      <point x="154" y="1530"/>
      <point x="194" y="1530" type="curve" smooth="yes"/>
      <point x="238" y="1530"/>
      <point x="279" y="1499"/>
      <point x="279" y="1453" type="curve" smooth="yes"/>
      <point x="279" y="1404"/>
      <point x="238" y="1373"/>
      <point x="194" y="1373" type="curve" smooth="yes"/>
      <point x="151" y="1373"/>
      <point x="110" y="1404"/>
    </contour>
    <contour>
      <point x="377" y="1453" type="curve" smooth="yes"/>
      <point x="377" y="1500"/>
      <point x="421" y="1530"/>
      <point x="461" y="1530" type="curve" smooth="yes"/>
      <point x="505" y="1530"/>
      <point x="549" y="1499"/>
      <point x="549" y="1453" type="curve" smooth="yes"/>
      <point x="549" y="1404"/>
      <point x="505" y="1373"/>
      <point x="461" y="1373" type="curve" smooth="yes"/>
      <point x="418" y="1373"/>
      <point x="377" y="1404"/>
    </contour>
  </outline>
</glyph>
<glyph name="Ocircumflex" format="1">
  <advance width="1342"/>
  <unicode hex="00D4"/>
  <outline>
    <contour>
      <point x="61" y="619" type="curve" smooth="yes"/>
      <point x="61" y="1004"/>
      <point x="308" y="1272"/>
      <point x="706" y="1272" type="curve" smooth="yes"/>
      <point x="1068" y="1272"/>
      <point x="1284" y="970"/>
      <point x="1284" y="619" type="curve" smooth="yes"/>
      <point x="1284" y="274"/>
      <point x="1051" y="-27"/>
      <point x="636" y="-27" type="curve" smooth="yes"/>
      <point x="291" y="-27"/>
      <point x="61" y="257"/>
    </contour>
    <contour>
      <point x="283" y="676" type="curve" smooth="yes"/>
      <point x="283" y="382"/>
      <point x="398" y="79"/>
      <point x="686" y="79" type="curve" smooth="yes"/>
      <point x="990" y="79"/>
      <point x="1062" y="330"/>
      <point x="1062" y="573" type="curve" smooth="yes"/>
      <point x="1062" y="856"/>
      <point x="945" y="1176"/>
      <point x="658" y="1176" type="curve" smooth="yes"/>
      <point x="358" y="1176"/>
      <point x="283" y="937"/>
    </contour>
    <contour>
      <point x="484" y="1392" type="line"/>
      <point x="652" y="1572" type="line"/>
      <point x="707" y="1585" type="line"/>
      <point x="885" y="1400" type="line"/>
      <point x="836" y="1364" type="line"/>
      <point x="672" y="1472" type="line"/>
      <point x="662" y="1472" type="line"/>
      <point x="522" y="1361" type="line"/>
    </contour>
  </outline>
</glyph>
<glyph name="Otilde" format="1">
  <advance width="1342"/>
  <unicode hex="00D5"/>
  <outline>
    <contour>
      <point x="61" y="619" type="curve" smooth="yes"/>
      <point x="61" y="1004"/>
      <point x="308" y="1272"/>
      <point x="706" y="1272" type="curve" smooth="yes"/>
      <point x="1068" y="1272"/>
      <point x="1284" y="970"/>
      <point x="1284" y="619" type="curve" smooth="yes"/>
      <point x="1284" y="274"/>
      <point x="1051" y="-27"/>
      <point x="636" y="-27" type="curve" smooth="yes"/>
      <point x="291" y="-27"/>
      <point x="61" y="257"/>
    </contour>
    <contour>
      <point x="283" y="676" type="curve" smooth="yes"/>
      <point x="283" y="382"/>
      <point x="398" y="79"/>
      <point x="686" y="79" type="curve" smooth="yes"/>
      <point x="990" y="79"/>
      <point x="1062" y="330"/>
      <point x="1062" y="573" type="curve" smooth="yes"/>
      <point x="1062" y="856"/>
      <point x="945" y="1176"/>
      <point x="658" y="1176" type="curve" smooth="yes"/>
      <point x="358" y="1176"/>
      <point x="283" y="937"/>
    </contour>
    <contour>
      <point x="448" y="1383" type="line"/>
      <point x="448" y="1383"/>
      <point x="479" y="1526"/>
      <point x="568" y="1526" type="curve" smooth="yes"/>
      <point x="572" y="1526"/>
      <point x="577" y="1527"/>
      <point x="581" y="1526" type="curve" smooth="yes"/>
      <point x="805" y="1496" type="line"/>
      <point x="810" y="1496" type="line" smooth="yes"/>
      <point x="835" y="1496"/>
      <point x="866" y="1536"/>
      <point x="866" y="1536" type="curve"/>
      <point x="913" y="1535" type="line"/>
      <point x="913" y="1535"/>
      <point x="875" y="1391"/>
      <point x="783" y="1391" type="curve" smooth="yes"/>
      <point x="779" y="1391"/>
      <point x="775" y="1391"/>
      <point x="771" y="1392" type="curve" smooth="yes"/>
      <point x="547" y="1423" type="line"/>
      <point x="546" y="1423" type="line" smooth="yes"/>
      <point x="518" y="1423"/>
      <point x="485" y="1376"/>
      <point x="485" y="1376" type="curve"/>
    </contour>
  </outline>
</glyph>
<glyph name="multiply" format="1">
  <advance width="604"/>
  <unicode hex="00D7"/>
  <outline>
    <contour>
      <point x="67" y="310" type="line"/>
      <point x="223" y="462" type="line"/>
      <point x="67" y="619" type="line"/>
      <point x="151" y="685" type="line"/>
      <point x="304" y="532" type="line"/>
      <point x="469" y="692" type="line"/>
      <point x="534" y="608" type="line"/>
      <point x="378" y="458" type="line"/>
      <point x="537" y="297" type="line"/>
      <point x="454" y="231" type="line"/>
      <point x="298" y="388" type="line"/>
      <point x="134" y="228" type="line"/>
    </contour>
  </outline>
</glyph>
<glyph name="Thorn" format="1">
  <advance width="1084"/>
  <unicode hex="00DE"/>
  <outline>
    <contour>
      <point x="50" y="1168" type="line"/>
      <point x="61" y="1244" type="line"/>
      <point x="604" y="1244" type="line"/>
      <point x="594" y="1168" type="line"/>
      <point x="423" y="1130" type="line"/>
      <point x="423" y="1020" type="line"/>
      <point x="463" y="1021"/>
      <point x="507" y="1024"/>
      <point x="547" y="1024" type="curve" smooth="yes"/>
      <point x="808" y="1024"/>
      <point x="1048" y="952"/>
      <point x="1048" y="660" type="curve" smooth="yes"/>
      <point x="1048" y="423"/>
      <point x="847" y="260"/>
      <point x="604" y="260" type="curve" smooth="yes"/>
      <point x="568" y="260"/>
      <point x="527" y="262"/>
      <point x="487" y="266" type="curve"/>
      <point x="470" y="351" type="line"/>
      <point x="711" y="338"/>
      <point x="841" y="429"/>
      <point x="841" y="624" type="curve" smooth="yes"/>
      <point x="841" y="795"/>
      <point x="747" y="926"/>
      <point x="529" y="926" type="curve" smooth="yes"/>
      <point x="489" y="926"/>
      <point x="423" y="919"/>
      <point x="423" y="919" type="curve"/>
      <point x="423" y="121" type="line"/>
      <point x="660" y="83" type="line"/>
      <point x="647" y="-1" type="line"/>
      <point x="54" y="-1" type="line"/>
      <point x="64" y="73" type="line"/>
      <point x="232" y="119" type="line"/>
      <point x="232" y="1126" type="line"/>
    </contour>
  </outline>
</glyph>
<glyph name="germandbls" format="1">
  <advance width="1116"/>
  <unicode hex="00DF"/>
  <outline>
    <contour>
      <point x="34" y="0" type="line"/>
      <point x="46" y="73" type="line"/>
      <point x="198" y="116" type="line"/>
      <point x="198" y="784" type="line"/>
      <point x="53" y="784" type="line"/>
      <point x="62" y="849" type="line"/>
      <point x="200" y="872" type="line"/>
      <point x="227" y="1147"/>
      <point x="419" y="1305"/>
      <point x="622" y="1305" type="curve" smooth="yes"/>
      <point x="800" y="1305"/>
      <point x="896" y="1199"/>
      <point x="896" y="1072" type="curve" smooth="yes"/>
      <point x="896" y="891"/>
      <point x="652" y="811"/>
      <point x="652" y="663" type="curve" smooth="yes"/>
      <point x="652" y="495"/>
      <point x="1086" y="467"/>
      <point x="1086" y="213" type="curve" smooth="yes"/>
      <point x="1086" y="71"/>
      <point x="929" y="-31"/>
      <point x="771" y="-31" type="curve" smooth="yes"/>
      <point x="592" y="-31"/>
      <point x="478" y="52"/>
      <point x="478" y="142" type="curve" smooth="yes"/>
      <point x="478" y="228"/>
      <point x="536" y="271"/>
      <point x="609" y="275" type="curve"/>
      <point x="640" y="144"/>
      <point x="725" y="67"/>
      <point x="802" y="67" type="curve" smooth="yes"/>
      <point x="876" y="67"/>
      <point x="941" y="82"/>
      <point x="941" y="157" type="curve" smooth="yes"/>
      <point x="941" y="295"/>
      <point x="523" y="331"/>
      <point x="523" y="595" type="curve" smooth="yes"/>
      <point x="523" y="775"/>
      <point x="732" y="855"/>
      <point x="732" y="1023" type="curve" smooth="yes"/>
      <point x="732" y="1116"/>
      <point x="643" y="1198"/>
      <point x="539" y="1198" type="curve" smooth="yes"/>
      <point x="436" y="1198"/>
      <point x="365" y="1147"/>
      <point x="365" y="959" type="curve" smooth="yes"/>
      <point x="365" y="0" type="line"/>
    </contour>
  </outline>
</glyph>
<glyph name="aacute" format="1">
  <advance width="830"/>
  <unicode hex="00E1"/>
  <outline>
    <contour>
      <point x="47" y="168" type="curve" smooth="yes"/>
      <point x="47" y="315"/>
      <point x="182" y="462"/>
      <point x="508" y="485" type="curve"/>
      <point x="508" y="540" type="line" smooth="yes"/>
      <point x="508" y="675"/>
      <point x="469" y="804"/>
      <point x="331" y="804" type="curve" smooth="yes"/>
      <point x="235" y="804"/>
      <point x="235" y="716"/>
      <point x="220" y="592" type="curve"/>
      <point x="167" y="592"/>
      <point x="81" y="596"/>
      <point x="81" y="695" type="curve" smooth="yes"/>
      <point x="81" y="804"/>
      <point x="285" y="900"/>
      <point x="423" y="900" type="curve" smooth="yes"/>
      <point x="601" y="900"/>
      <point x="670" y="804"/>
      <point x="670" y="593" type="curve" smooth="yes"/>
      <point x="670" y="230" type="line" smooth="yes"/>
      <point x="670" y="138"/>
      <point x="689" y="111"/>
      <point x="782" y="96" type="curve" smooth="yes"/>
      <point x="832" y="87" type="line"/>
      <point x="819" y="1" type="line"/>
      <point x="772" y="-5"/>
      <point x="742" y="-18"/>
      <point x="683" y="-18" type="curve" smooth="yes"/>
      <point x="567" y="-18"/>
      <point x="528" y="57"/>
      <point x="528" y="116" type="curve" smooth="yes"/>
      <point x="528" y="131" type="line"/>
      <point x="517" y="131" type="line"/>
      <point x="490" y="78"/>
      <point x="407" y="-24"/>
      <point x="243" y="-24" type="curve" smooth="yes"/>
      <point x="138" y="-24"/>
      <point x="47" y="46"/>
    </contour>
    <contour>
      <point x="222" y="215" type="curve" smooth="yes"/>
      <point x="222" y="165"/>
      <point x="260" y="99"/>
      <point x="334" y="99" type="curve" smooth="yes"/>
      <point x="404" y="99"/>
      <point x="475" y="151"/>
      <point x="508" y="188" type="curve"/>
      <point x="508" y="428" type="line"/>
      <point x="290" y="385"/>
      <point x="222" y="311"/>
    </contour>
    <contour>
      <point x="328" y="1017" type="line"/>
      <point x="451" y="1342" type="line"/>
      <point x="562" y="1302" type="line"/>
      <point x="380" y="985" type="line"/>
    </contour>
  </outline>
</glyph>
<glyph name="atilde" format="1">
  <advance width="830"/>
  <unicode hex="00E3"/>
  <outline>
    <contour>
      <point x="47" y="168" type="curve" smooth="yes"/>
      <point x="47" y="315"/>
      <point x="182" y="462"/>
      <point x="508" y="485" type="curve"/>
      <point x="508" y="540" type="line" smooth="yes"/>
      <point x="508" y="675"/>
      <point x="469" y="804"/>
      <point x="331" y="804" type="curve" smooth="yes"/>
      <point x="235" y="804"/>
      <point x="235" y="716"/>
      <point x="220" y="592" type="curve"/>
      <point x="167" y="592"/>
      <point x="81" y="596"/>
      <point x="81" y="695" type="curve" smooth="yes"/>
      <point x="81" y="804"/>
      <point x="285" y="900"/>
      <point x="423" y="900" type="curve" smooth="yes"/>
      <point x="601" y="900"/>
      <point x="670" y="804"/>
      <point x="670" y="593" type="curve" smooth="yes"/>
      <point x="670" y="230" type="line" smooth="yes"/>
      <point x="670" y="138"/>
      <point x="689" y="111"/>
      <point x="782" y="96" type="curve" smooth="yes"/>
      <point x="832" y="87" type="line"/>
      <point x="819" y="1" type="line"/>
      <point x="772" y="-5"/>
      <point x="742" y="-18"/>
      <point x="683" y="-18" type="curve" smooth="yes"/>
      <point x="567" y="-18"/>
      <point x="528" y="57"/>
      <point x="528" y="116" type="curve" smooth="yes"/>
      <point x="528" y="131" type="line"/>
      <point x="517" y="131" type="line"/>
      <point x="490" y="78"/>
      <point x="407" y="-24"/>
      <point x="243" y="-24" type="curve" smooth="yes"/>
      <point x="138" y="-24"/>
      <point x="47" y="46"/>
    </contour>
    <contour>
      <point x="175" y="1015" type="line"/>
      <point x="175" y="1015"/>
      <point x="207" y="1158"/>
      <point x="296" y="1158" type="curve" smooth="yes"/>
      <point x="300" y="1158"/>
      <point x="305" y="1158"/>
      <point x="309" y="1157" type="curve" smooth="yes"/>
      <point x="532" y="1127" type="line"/>
      <point x="537" y="1127" type="line" smooth="yes"/>
      <point x="562" y="1127"/>
      <point x="592" y="1169"/>
      <point x="592" y="1169" type="curve"/>
      <point x="640" y="1167" type="line"/>
      <point x="640" y="1167"/>
      <point x="602" y="1023"/>
      <point x="510" y="1023" type="curve" smooth="yes"/>
      <point x="506" y="1023"/>
      <point x="501" y="1023"/>
      <point x="497" y="1024" type="curve" smooth="yes"/>
      <point x="275" y="1054" type="line"/>
      <point x="271" y="1054" type="line" smooth="yes"/>
      <point x="243" y="1054"/>
      <point x="212" y="1007"/>
      <point x="212" y="1007" type="curve"/>
    </contour>
    <contour>
      <point x="222" y="215" type="curve" smooth="yes"/>
      <point x="222" y="165"/>
      <point x="260" y="99"/>
      <point x="334" y="99" type="curve" smooth="yes"/>
      <point x="404" y="99"/>
      <point x="475" y="151"/>
      <point x="508" y="188" type="curve"/>
      <point x="508" y="428" type="line"/>
      <point x="290" y="385"/>
      <point x="222" y="311"/>
    </contour>
  </outline>
</glyph>
<glyph name="aring" format="1">
  <advance width="830"/>
  <unicode hex="00E5"/>
  <outline>
    <contour>
      <point x="47" y="168" type="curve" smooth="yes"/>
      <point x="47" y="315"/>
      <point x="182" y="462"/>
      <point x="508" y="485" type="curve"/>
      <point x="508" y="540" type="line" smooth="yes"/>
      <point x="508" y="675"/>
      <point x="469" y="804"/>
      <point x="331" y="804" type="curve" smooth="yes"/>
      <point x="235" y="804"/>
      <point x="235" y="716"/>
      <point x="220" y="592" type="curve"/>
      <point x="167" y="592"/>
      <point x="81" y="596"/>
      <point x="81" y="695" type="curve" smooth="yes"/>
      <point x="81" y="804"/>
      <point x="285" y="900"/>
      <point x="423" y="900" type="curve" smooth="yes"/>
      <point x="601" y="900"/>
      <point x="670" y="804"/>
      <point x="670" y="593" type="curve" smooth="yes"/>
      <point x="670" y="230" type="line" smooth="yes"/>
      <point x="670" y="138"/>
      <point x="689" y="111"/>
      <point x="782" y="96" type="curve" smooth="yes"/>
      <point x="832" y="87" type="line"/>
      <point x="819" y="1" type="line"/>
      <point x="772" y="-5"/>
      <point x="742" y="-18"/>
      <point x="683" y="-18" type="curve" smooth="yes"/>
      <point x="567" y="-18"/>
      <point x="528" y="57"/>
      <point x="528" y="116" type="curve" smooth="yes"/>
      <point x="528" y="131" type="line"/>
      <point x="517" y="131" type="line"/>
      <point x="490" y="78"/>
      <point x="407" y="-24"/>
      <point x="243" y="-24" type="curve" smooth="yes"/>
      <point x="138" y="-24"/>
      <point x="47" y="46"/>
    </contour>
    <contour>
      <point x="222" y="215" type="curve" smooth="yes"/>
      <point x="222" y="165"/>
      <point x="260" y="99"/>
      <point x="334" y="99" type="curve" smooth="yes"/>
      <point x="404" y="99"/>
      <point x="475" y="151"/>
      <point x="508" y="188" type="curve"/>
      <point x="508" y="428" type="line"/>
      <point x="290" y="385"/>
      <point x="222" y="311"/>
    </contour>
    <contour>
      <point x="228" y="1167" type="curve" smooth="yes"/>
      <point x="228" y="1259"/>
      <point x="303" y="1338"/>
      <point x="396" y="1338" type="curve" smooth="yes"/>
      <point x="492" y="1338"/>
      <point x="551" y="1270"/>
      <point x="551" y="1177" type="curve" smooth="yes"/>
      <point x="551" y="1087"/>
      <point x="485" y="1002"/>
      <point x="383" y="1002" type="curve" smooth="yes"/>
      <point x="291" y="1002"/>
      <point x="228" y="1065"/>
    </contour>
    <contour>
      <point x="298" y="1178" type="curve" smooth="yes"/>
      <point x="298" y="1117"/>
      <point x="330" y="1050"/>
      <point x="394" y="1050" type="curve" smooth="yes"/>
      <point x="448" y="1050"/>
      <point x="480" y="1091"/>
      <point x="480" y="1164" type="curve" smooth="yes"/>
      <point x="480" y="1226"/>
      <point x="446" y="1291"/>
      <point x="384" y="1291" type="curve" smooth="yes"/>
      <point x="325" y="1291"/>
      <point x="298" y="1234"/>
    </contour>
  </outline>
</glyph>
<glyph name="ae" format="1">
  <advance width="1238"/>
  <unicode hex="00E6"/>
  <outline>
    <contour>
      <point x="230" y="215" type="curve" smooth="yes"/>
      <point x="230" y="165"/>
      <point x="268" y="99"/>
      <point x="342" y="99" type="curve" smooth="yes"/>
      <point x="416" y="99"/>
      <point x="491" y="151"/>
      <point x="526" y="188" type="curve"/>
      <point x="526" y="428" type="line"/>
      <point x="300" y="385"/>
      <point x="230" y="311"/>
    </contour>
    <contour>
      <point x="570" y="175" type="curve"/>
      <point x="541" y="107"/>
      <point x="450" y="-24"/>
      <point x="271" y="-24" type="curve" smooth="yes"/>
      <point x="155" y="-24"/>
      <point x="55" y="46"/>
      <point x="55" y="168" type="curve" smooth="yes"/>
      <point x="55" y="315"/>
      <point x="193" y="462"/>
      <point x="526" y="485" type="curve"/>
      <point x="526" y="540" type="line" smooth="yes"/>
      <point x="526" y="675"/>
      <point x="485" y="807"/>
      <point x="339" y="807" type="curve" smooth="yes"/>
      <point x="243" y="807"/>
      <point x="242" y="756"/>
      <point x="228" y="592" type="curve"/>
      <point x="175" y="592"/>
      <point x="89" y="596"/>
      <point x="89" y="695" type="curve" smooth="yes"/>
      <point x="89" y="804"/>
      <point x="293" y="900"/>
      <point x="431" y="900" type="curve" smooth="yes"/>
      <point x="550" y="900"/>
      <point x="612" y="860"/>
      <point x="641" y="777" type="curve"/>
      <point x="716" y="856"/>
      <point x="814" y="899"/>
      <point x="905" y="899" type="curve" smooth="yes"/>
      <point x="1046" y="899"/>
      <point x="1167" y="792"/>
      <point x="1167" y="581" type="curve" smooth="yes"/>
      <point x="1167" y="550"/>
      <point x="1157" y="479"/>
      <point x="1149" y="445" type="curve"/>
      <point x="688" y="426" type="line"/>
      <point x="696" y="269"/>
      <point x="774" y="86"/>
      <point x="952" y="86" type="curve" smooth="yes"/>
      <point x="1020" y="86"/>
      <point x="1071" y="99"/>
      <point x="1172" y="155" type="curve"/>
      <point x="1192" y="104" type="line"/>
      <point x="1115" y="21"/>
      <point x="1000" y="-30"/>
      <point x="871" y="-30" type="curve" smooth="yes"/>
      <point x="770" y="-30"/>
      <point x="600" y="37"/>
    </contour>
    <contour>
      <point x="688" y="507" type="curve"/>
      <point x="981" y="543" type="line"/>
      <point x="985" y="559"/>
      <point x="990" y="599"/>
      <point x="990" y="615" type="curve" smooth="yes"/>
      <point x="990" y="741"/>
      <point x="947" y="801"/>
      <point x="856" y="801" type="curve" smooth="yes"/>
      <point x="767" y="801"/>
      <point x="697" y="701"/>
    </contour>
  </outline>
</glyph>
<glyph name="ccedilla" format="1">
  <advance width="802"/>
  <unicode hex="00E7"/>
  <outline>
    <contour>
      <point x="54" y="415" type="curve" smooth="yes"/>
      <point x="54" y="712"/>
      <point x="260" y="900"/>
      <point x="477" y="900" type="curve" smooth="yes"/>
      <point x="644" y="900"/>
      <point x="719" y="826"/>
      <point x="719" y="747" type="curve" smooth="yes"/>
      <point x="719" y="688"/>
      <point x="675" y="648"/>
      <point x="592" y="642" type="curve"/>
      <point x="564" y="709"/>
      <point x="517" y="806"/>
      <point x="430" y="806" type="curve" smooth="yes"/>
      <point x="311" y="806"/>
      <point x="233" y="688"/>
      <point x="233" y="507" type="curve" smooth="yes"/>
      <point x="233" y="340"/>
      <point x="322" y="90"/>
      <point x="530" y="90" type="curve" smooth="yes"/>
      <point x="629" y="90"/>
      <point x="685" y="121"/>
      <point x="732" y="151" type="curve"/>
      <point x="758" y="93" type="line"/>
      <point x="712" y="36"/>
      <point x="608" y="-17"/>
      <point x="495" y="-28" type="curve"/>
      <point x="461" y="-76" type="line"/>
      <point x="498" y="-109"/>
      <point x="550" y="-160"/>
      <point x="550" y="-227" type="curve" smooth="yes"/>
      <point x="550" y="-306"/>
      <point x="467" y="-355"/>
      <point x="351" y="-389" type="curve"/>
      <point x="331" y="-331" type="line"/>
      <point x="388" y="-312"/>
      <point x="417" y="-278"/>
      <point x="417" y="-248" type="curve" smooth="yes"/>
      <point x="417" y="-214"/>
      <point x="380" y="-172"/>
      <point x="344" y="-138" type="curve"/>
      <point x="419" y="-28" type="line"/>
      <point x="195" y="-13"/>
      <point x="54" y="185"/>
    </contour>
  </outline>
</glyph>
<glyph name="ecircumflex" format="1">
  <advance width="802"/>
  <unicode hex="00EA"/>
  <outline>
    <contour>
      <point x="53" y="428" type="curve" smooth="yes"/>
      <point x="53" y="728"/>
      <point x="270" y="899"/>
      <point x="464" y="899" type="curve" smooth="yes"/>
      <point x="609" y="899"/>
      <point x="731" y="792"/>
      <point x="731" y="581" type="curve" smooth="yes"/>
      <point x="731" y="550"/>
      <point x="723" y="485"/>
      <point x="715" y="451" type="curve"/>
      <point x="231" y="445" type="line"/>
      <point x="239" y="288"/>
      <point x="323" y="102"/>
      <point x="510" y="102" type="curve" smooth="yes"/>
      <point x="516" y="102" type="line" smooth="yes"/>
      <point x="583" y="102"/>
      <point x="637" y="103"/>
      <point x="737" y="157" type="curve"/>
      <point x="758" y="104" type="line"/>
      <point x="679" y="21"/>
      <point x="561" y="-30"/>
      <point x="429" y="-30" type="curve" smooth="yes"/>
      <point x="241" y="-30"/>
      <point x="53" y="124"/>
    </contour>
    <contour>
      <point x="233" y="523" type="curve"/>
      <point x="547" y="546" type="line"/>
      <point x="551" y="562"/>
      <point x="553" y="599"/>
      <point x="553" y="615" type="curve" smooth="yes"/>
      <point x="553" y="734"/>
      <point x="511" y="801"/>
      <point x="415" y="801" type="curve" smooth="yes"/>
      <point x="335" y="801"/>
      <point x="243" y="717"/>
    </contour>
    <contour>
      <point x="233" y="1024" type="line"/>
      <point x="402" y="1203" type="line"/>
      <point x="457" y="1217" type="line"/>
      <point x="633" y="1032" type="line"/>
      <point x="585" y="995" type="line"/>
      <point x="421" y="1104" type="line"/>
      <point x="411" y="1104" type="line"/>
      <point x="271" y="993" type="line"/>
    </contour>
  </outline>
</glyph>
<glyph name="edieresis" format="1">
  <advance width="802"/>
  <unicode hex="00EB"/>
  <outline>
    <contour>
      <point x="53" y="428" type="curve" smooth="yes"/>
      <point x="53" y="728"/>
      <point x="270" y="899"/>
      <point x="464" y="899" type="curve" smooth="yes"/>
      <point x="609" y="899"/>
      <point x="731" y="792"/>
      <point x="731" y="581" type="curve" smooth="yes"/>
      <point x="731" y="550"/>
      <point x="723" y="485"/>
      <point x="715" y="451" type="curve"/>
      <point x="231" y="445" type="line"/>
      <point x="239" y="288"/>
      <point x="323" y="102"/>
      <point x="510" y="102" type="curve" smooth="yes"/>
      <point x="516" y="102" type="line" smooth="yes"/>
      <point x="583" y="102"/>
      <point x="637" y="103"/>
      <point x="737" y="157" type="curve"/>
      <point x="758" y="104" type="line"/>
      <point x="679" y="21"/>
      <point x="561" y="-30"/>
      <point x="429" y="-30" type="curve" smooth="yes"/>
      <point x="241" y="-30"/>
      <point x="53" y="124"/>
    </contour>
    <contour>
      <point x="211" y="1084" type="curve" smooth="yes"/>
      <point x="211" y="1131"/>
      <point x="255" y="1163"/>
      <point x="295" y="1163" type="curve" smooth="yes"/>
      <point x="339" y="1163"/>
      <point x="381" y="1130"/>
      <point x="381" y="1084" type="curve" smooth="yes"/>
      <point x="381" y="1035"/>
      <point x="339" y="1004"/>
      <point x="295" y="1004" type="curve" smooth="yes"/>
      <point x="252" y="1004"/>
      <point x="211" y="1035"/>
    </contour>
    <contour>
      <point x="233" y="523" type="curve"/>
      <point x="547" y="546" type="line"/>
      <point x="551" y="562"/>
      <point x="553" y="599"/>
      <point x="553" y="615" type="curve" smooth="yes"/>
      <point x="553" y="734"/>
      <point x="511" y="801"/>
      <point x="415" y="801" type="curve" smooth="yes"/>
      <point x="335" y="801"/>
      <point x="243" y="717"/>
    </contour>
    <contour>
      <point x="479" y="1084" type="curve" smooth="yes"/>
      <point x="479" y="1131"/>
      <point x="522" y="1163"/>
      <point x="562" y="1163" type="curve" smooth="yes"/>
      <point x="606" y="1163"/>
      <point x="650" y="1130"/>
      <point x="650" y="1084" type="curve" smooth="yes"/>
      <point x="650" y="1035"/>
      <point x="606" y="1004"/>
      <point x="562" y="1004" type="curve" smooth="yes"/>
      <point x="519" y="1004"/>
      <point x="479" y="1035"/>
    </contour>
  </outline>
</glyph>
<glyph name="igrave" format="1">
  <advance width="539"/>
  <unicode hex="00EC"/>
  <outline>
    <contour>
      <point x="25" y="0" type="line"/>
      <point x="37" y="79" type="line"/>
      <point x="188" y="116" type="line"/>
      <point x="188" y="731" type="line"/>
      <point x="37" y="786" type="line"/>
      <point x="50" y="862" type="line"/>
      <point x="331" y="885" type="line"/>
      <point x="356" y="860" type="line"/>
      <point x="356" y="116" type="line"/>
      <point x="516" y="80" type="line"/>
      <point x="505" y="0" type="line"/>
    </contour>
    <component base="grave" xOffset="-75" yOffset="-368"/>
  </outline>
</glyph>
<glyph name="iacute" format="1">
  <advance width="539"/>
  <unicode hex="00ED"/>
  <outline>
    <contour>
      <point x="37" y="0" type="line"/>
      <point x="49" y="79" type="line"/>
      <point x="200" y="116" type="line"/>
      <point x="200" y="731" type="line"/>
      <point x="49" y="786" type="line"/>
      <point x="62" y="862" type="line"/>
      <point x="343" y="885" type="line"/>
      <point x="368" y="860" type="line"/>
      <point x="368" y="116" type="line"/>
      <point x="528" y="80" type="line"/>
      <point x="517" y="0" type="line"/>
    </contour>
    <contour>
      <point x="213" y="991" type="line"/>
      <point x="334" y="1317" type="line"/>
      <point x="447" y="1277" type="line"/>
      <point x="263" y="960" type="line"/>
    </contour>
  </outline>
</glyph>
<glyph name="icircumflex" format="1">
  <advance width="539"/>
  <unicode hex="00EE"/>
  <outline>
    <contour>
      <point x="37" y="0" type="line"/>
      <point x="49" y="79" type="line"/>
      <point x="200" y="116" type="line"/>
      <point x="200" y="731" type="line"/>
      <point x="49" y="786" type="line"/>
      <point x="62" y="862" type="line"/>
      <point x="343" y="885" type="line"/>
      <point x="368" y="860" type="line"/>
      <point x="368" y="116" type="line"/>
      <point x="528" y="80" type="line"/>
      <point x="517" y="0" type="line"/>
    </contour>
    <contour>
      <point x="76" y="1048" type="line"/>
      <point x="243" y="1228" type="line"/>
      <point x="298" y="1241" type="line"/>
      <point x="476" y="1057" type="line"/>
      <point x="427" y="1019" type="line"/>
      <point x="263" y="1130" type="line"/>
      <point x="253" y="1130" type="line"/>
      <point x="113" y="1019" type="line"/>
    </contour>
  </outline>
</glyph>
<glyph name="idieresis" format="1">
  <advance width="539"/>
  <unicode hex="00EF"/>
  <outline>
    <contour>
      <point x="37" y="0" type="line"/>
      <point x="49" y="79" type="line"/>
      <point x="200" y="116" type="line"/>
      <point x="200" y="731" type="line"/>
      <point x="49" y="786" type="line"/>
      <point x="62" y="862" type="line"/>
      <point x="343" y="885" type="line"/>
      <point x="368" y="860" type="line"/>
      <point x="368" y="116" type="line"/>
      <point x="528" y="80" type="line"/>
      <point x="517" y="0" type="line"/>
    </contour>
    <contour>
      <point x="54" y="1109" type="curve" smooth="yes"/>
      <point x="54" y="1156"/>
      <point x="98" y="1186"/>
      <point x="138" y="1186" type="curve" smooth="yes"/>
      <point x="182" y="1186"/>
      <point x="223" y="1155"/>
      <point x="223" y="1109" type="curve" smooth="yes"/>
      <point x="223" y="1060"/>
      <point x="182" y="1028"/>
      <point x="138" y="1028" type="curve" smooth="yes"/>
      <point x="95" y="1028"/>
      <point x="54" y="1060"/>
    </contour>
    <contour>
      <point x="321" y="1109" type="curve" smooth="yes"/>
      <point x="321" y="1156"/>
      <point x="366" y="1186"/>
      <point x="406" y="1186" type="curve" smooth="yes"/>
      <point x="450" y="1186"/>
      <point x="494" y="1155"/>
      <point x="494" y="1109" type="curve" smooth="yes"/>
      <point x="494" y="1060"/>
      <point x="450" y="1028"/>
      <point x="406" y="1028" type="curve" smooth="yes"/>
      <point x="363" y="1028"/>
      <point x="321" y="1060"/>
    </contour>
  </outline>
</glyph>
<glyph name="eth" format="1">
  <advance width="912"/>
  <unicode hex="00F0"/>
  <outline>
    <contour>
      <point x="53" y="451" type="curve" smooth="yes"/>
      <point x="53" y="746"/>
      <point x="232" y="948"/>
      <point x="445" y="948" type="curve" smooth="yes"/>
      <point x="485" y="948"/>
      <point x="572" y="933"/>
      <point x="602" y="857" type="curve"/>
      <point x="608" y="859" type="line"/>
      <point x="587" y="929"/>
      <point x="541" y="1001"/>
      <point x="497" y="1071" type="curve"/>
      <point x="282" y="1031" type="line"/>
      <point x="292" y="1106" type="line"/>
      <point x="461" y="1139" type="line"/>
      <point x="415" y="1205"/>
      <point x="365" y="1262"/>
      <point x="321" y="1302" type="curve"/>
      <point x="438" y="1302" type="line"/>
      <point x="471" y="1283"/>
      <point x="528" y="1238"/>
      <point x="589" y="1171" type="curve"/>
      <point x="740" y="1201" type="line"/>
      <point x="730" y="1124" type="line"/>
      <point x="642" y="1106" type="line"/>
      <point x="746" y="968"/>
      <point x="842" y="757"/>
      <point x="842" y="465" type="curve" smooth="yes"/>
      <point x="842" y="157"/>
      <point x="663" y="-27"/>
      <point x="448" y="-27" type="curve" smooth="yes"/>
      <point x="171" y="-27"/>
      <point x="53" y="208"/>
    </contour>
    <contour>
      <point x="231" y="498" type="curve"/>
      <point x="234" y="227"/>
      <point x="332" y="70"/>
      <point x="470" y="70" type="curve" smooth="yes"/>
      <point x="625" y="70"/>
      <point x="669" y="209"/>
      <point x="669" y="424" type="curve" smooth="yes"/>
      <point x="669" y="658"/>
      <point x="548" y="853"/>
      <point x="432" y="856" type="curve"/>
      <point x="285" y="856"/>
      <point x="231" y="714"/>
    </contour>
  </outline>
</glyph>
<glyph name="ntilde" format="1">
  <advance width="2048"/>
  <unicode hex="00F1"/>
  <outline>
    <contour>
      <point x="37" y="0" type="line"/>
      <point x="47" y="73" type="line"/>
      <point x="198" y="114" type="line"/>
      <point x="198" y="721" type="line"/>
      <point x="44" y="773" type="line"/>
      <point x="54" y="849" type="line"/>
      <point x="352" y="888" type="line"/>
      <point x="369" y="869" type="line"/>
      <point x="352" y="741" type="line"/>
      <point x="362" y="741" type="line"/>
      <point x="429" y="821"/>
      <point x="537" y="899"/>
      <point x="663" y="899" type="curve" smooth="yes"/>
      <point x="820" y="899"/>
      <point x="904" y="794"/>
      <point x="904" y="616" type="curve" smooth="yes"/>
      <point x="904" y="114" type="line"/>
      <point x="1048" y="79" type="line"/>
      <point x="1038" y="0" type="line"/>
      <point x="589" y="0" type="line"/>
      <point x="599" y="73" type="line"/>
      <point x="737" y="114" type="line"/>
      <point x="737" y="577" type="line" smooth="yes"/>
      <point x="737" y="706"/>
      <point x="662" y="761"/>
      <point x="563" y="761" type="curve" smooth="yes"/>
      <point x="490" y="761"/>
      <point x="416" y="731"/>
      <point x="366" y="675" type="curve"/>
      <point x="366" y="114" type="line"/>
      <point x="515" y="79" type="line"/>
      <point x="501" y="0" type="line"/>
    </contour>
    <contour>
      <point x="302" y="1015" type="line"/>
      <point x="302" y="1015"/>
      <point x="335" y="1158"/>
      <point x="424" y="1158" type="curve" smooth="yes"/>
      <point x="428" y="1158"/>
      <point x="434" y="1158"/>
      <point x="438" y="1157" type="curve" smooth="yes"/>
      <point x="660" y="1127" type="line"/>
      <point x="664" y="1127" type="line" smooth="yes"/>
      <point x="689" y="1127"/>
      <point x="721" y="1169"/>
      <point x="721" y="1169" type="curve"/>
      <point x="768" y="1167" type="line"/>
      <point x="768" y="1167"/>
      <point x="730" y="1023"/>
      <point x="638" y="1023" type="curve" smooth="yes"/>
      <point x="634" y="1023"/>
      <point x="630" y="1023"/>
      <point x="626" y="1024" type="curve" smooth="yes"/>
      <point x="402" y="1054" type="line"/>
      <point x="400" y="1054" type="line" smooth="yes"/>
      <point x="372" y="1054"/>
      <point x="341" y="1007"/>
      <point x="341" y="1007" type="curve"/>
    </contour>
  </outline>
</glyph>
<glyph name="ograve" format="1">
  <advance width="934"/>
  <unicode hex="00F2"/>
  <outline>
    <contour>
      <point x="52" y="426" type="curve" smooth="yes"/>
      <point x="52" y="730"/>
      <point x="264" y="903"/>
      <point x="487" y="903" type="curve" smooth="yes"/>
      <point x="733" y="903"/>
      <point x="882" y="716"/>
      <point x="882" y="441" type="curve" smooth="yes"/>
      <point x="882" y="162"/>
      <point x="696" y="-27"/>
      <point x="463" y="-27" type="curve" smooth="yes"/>
      <point x="199" y="-27"/>
      <point x="52" y="169"/>
    </contour>
    <contour>
      <point x="230" y="497" type="curve" smooth="yes"/>
      <point x="230" y="291"/>
      <point x="300" y="70"/>
      <point x="497" y="70" type="curve" smooth="yes"/>
      <point x="638" y="70"/>
      <point x="704" y="218"/>
      <point x="704" y="359" type="curve" smooth="yes"/>
      <point x="704" y="557"/>
      <point x="635" y="798"/>
      <point x="445" y="798" type="curve" smooth="yes"/>
      <point x="294" y="798"/>
      <point x="230" y="654"/>
    </contour>
    <contour>
      <point x="314" y="1296" type="line"/>
      <point x="430" y="1334" type="line"/>
      <point x="562" y="1000" type="line"/>
      <point x="504" y="965" type="line"/>
    </contour>
  </outline>
</glyph>
<glyph name="oacute" format="1">
  <advance width="934"/>
  <unicode hex="00F3"/>
  <outline>
    <contour>
      <point x="52" y="426" type="curve" smooth="yes"/>
      <point x="52" y="730"/>
      <point x="264" y="903"/>
      <point x="487" y="903" type="curve" smooth="yes"/>
      <point x="733" y="903"/>
      <point x="882" y="716"/>
      <point x="882" y="441" type="curve" smooth="yes"/>
      <point x="882" y="162"/>
      <point x="696" y="-27"/>
      <point x="463" y="-27" type="curve" smooth="yes"/>
      <point x="199" y="-27"/>
      <point x="52" y="169"/>
    </contour>
    <contour>
      <point x="230" y="497" type="curve" smooth="yes"/>
      <point x="230" y="291"/>
      <point x="300" y="70"/>
      <point x="497" y="70" type="curve" smooth="yes"/>
      <point x="638" y="70"/>
      <point x="704" y="218"/>
      <point x="704" y="359" type="curve" smooth="yes"/>
      <point x="704" y="557"/>
      <point x="635" y="798"/>
      <point x="445" y="798" type="curve" smooth="yes"/>
      <point x="294" y="798"/>
      <point x="230" y="654"/>
    </contour>
    <contour>
      <point x="389" y="1017" type="line"/>
      <point x="512" y="1342" type="line"/>
      <point x="623" y="1302" type="line"/>
      <point x="440" y="985" type="line"/>
    </contour>
  </outline>
</glyph>
<glyph name="otilde" format="1">
  <advance width="934"/>
  <unicode hex="00F5"/>
  <outline>
    <contour>
      <point x="52" y="426" type="curve" smooth="yes"/>
      <point x="52" y="730"/>
      <point x="264" y="903"/>
      <point x="487" y="903" type="curve" smooth="yes"/>
      <point x="733" y="903"/>
      <point x="882" y="716"/>
      <point x="882" y="441" type="curve" smooth="yes"/>
      <point x="882" y="162"/>
      <point x="696" y="-27"/>
      <point x="463" y="-27" type="curve" smooth="yes"/>
      <point x="199" y="-27"/>
      <point x="52" y="169"/>
    </contour>
    <contour>
      <point x="230" y="497" type="curve" smooth="yes"/>
      <point x="230" y="291"/>
      <point x="300" y="70"/>
      <point x="497" y="70" type="curve" smooth="yes"/>
      <point x="638" y="70"/>
      <point x="704" y="218"/>
      <point x="704" y="359" type="curve" smooth="yes"/>
      <point x="704" y="557"/>
      <point x="635" y="798"/>
      <point x="445" y="798" type="curve" smooth="yes"/>
      <point x="294" y="798"/>
      <point x="230" y="654"/>
    </contour>
    <contour>
      <point x="236" y="1015" type="line"/>
      <point x="236" y="1015"/>
      <point x="268" y="1158"/>
      <point x="357" y="1158" type="curve" smooth="yes"/>
      <point x="361" y="1158"/>
      <point x="367" y="1158"/>
      <point x="371" y="1157" type="curve" smooth="yes"/>
      <point x="594" y="1127" type="line"/>
      <point x="598" y="1127" type="line" smooth="yes"/>
      <point x="623" y="1127"/>
      <point x="653" y="1169"/>
      <point x="653" y="1169" type="curve"/>
      <point x="701" y="1167" type="line"/>
      <point x="701" y="1167"/>
      <point x="664" y="1023"/>
      <point x="572" y="1023" type="curve" smooth="yes"/>
      <point x="568" y="1023"/>
      <point x="563" y="1023"/>
      <point x="559" y="1024" type="curve" smooth="yes"/>
      <point x="337" y="1054" type="line"/>
      <point x="334" y="1054" type="line" smooth="yes"/>
      <point x="306" y="1054"/>
      <point x="274" y="1007"/>
      <point x="274" y="1007" type="curve"/>
    </contour>
  </outline>
</glyph>
<glyph name="odieresis" format="1">
  <advance width="934"/>
  <unicode hex="00F6"/>
  <outline>
    <contour>
      <point x="52" y="426" type="curve" smooth="yes"/>
      <point x="52" y="730"/>
      <point x="264" y="903"/>
      <point x="487" y="903" type="curve" smooth="yes"/>
      <point x="733" y="903"/>
      <point x="882" y="716"/>
      <point x="882" y="441" type="curve" smooth="yes"/>
      <point x="882" y="162"/>
      <point x="696" y="-27"/>
      <point x="463" y="-27" type="curve" smooth="yes"/>
      <point x="199" y="-27"/>
      <point x="52" y="169"/>
    </contour>
    <contour>
      <point x="230" y="497" type="curve" smooth="yes"/>
      <point x="230" y="291"/>
      <point x="300" y="70"/>
      <point x="497" y="70" type="curve" smooth="yes"/>
      <point x="638" y="70"/>
      <point x="704" y="218"/>
      <point x="704" y="359" type="curve" smooth="yes"/>
      <point x="704" y="557"/>
      <point x="635" y="798"/>
      <point x="445" y="798" type="curve" smooth="yes"/>
      <point x="294" y="798"/>
      <point x="230" y="654"/>
    </contour>
    <contour>
      <point x="251" y="1084" type="curve" smooth="yes"/>
      <point x="251" y="1131"/>
      <point x="294" y="1163"/>
      <point x="334" y="1163" type="curve" smooth="yes"/>
      <point x="378" y="1163"/>
      <point x="420" y="1130"/>
      <point x="420" y="1084" type="curve" smooth="yes"/>
      <point x="420" y="1035"/>
      <point x="378" y="1004"/>
      <point x="334" y="1004" type="curve" smooth="yes"/>
      <point x="291" y="1004"/>
      <point x="251" y="1035"/>
    </contour>
    <contour>
      <point x="518" y="1084" type="curve" smooth="yes"/>
      <point x="518" y="1131"/>
      <point x="562" y="1163"/>
      <point x="602" y="1163" type="curve" smooth="yes"/>
      <point x="646" y="1163"/>
      <point x="690" y="1130"/>
      <point x="690" y="1084" type="curve" smooth="yes"/>
      <point x="690" y="1035"/>
      <point x="646" y="1004"/>
      <point x="602" y="1004" type="curve" smooth="yes"/>
      <point x="559" y="1004"/>
      <point x="518" y="1035"/>
    </contour>
  </outline>
</glyph>
<glyph name="oslash" format="1">
  <advance width="933"/>
  <unicode hex="00F8"/>
  <outline>
    <contour>
      <point x="24" y="-46" type="line"/>
      <point x="180" y="141" type="line"/>
      <point x="224" y="157" type="line"/>
      <point x="650" y="727" type="line"/>
      <point x="648" y="765" type="line"/>
      <point x="749" y="897" type="line"/>
      <point x="904" y="904" type="line"/>
      <point x="753" y="705" type="line"/>
      <point x="694" y="670" type="line"/>
      <point x="270" y="109" type="line"/>
      <point x="279" y="78" type="line"/>
      <point x="187" y="-41" type="line"/>
    </contour>
    <contour>
      <point x="220" y="497" type="curve" smooth="yes"/>
      <point x="220" y="291"/>
      <point x="290" y="70"/>
      <point x="487" y="70" type="curve" smooth="yes"/>
      <point x="628" y="70"/>
      <point x="693" y="218"/>
      <point x="693" y="359" type="curve" smooth="yes"/>
      <point x="693" y="557"/>
      <point x="624" y="798"/>
      <point x="434" y="798" type="curve" smooth="yes"/>
      <point x="283" y="798"/>
      <point x="220" y="654"/>
    </contour>
    <contour>
      <point x="40" y="426" type="curve" smooth="yes"/>
      <point x="40" y="730"/>
      <point x="254" y="903"/>
      <point x="477" y="903" type="curve" smooth="yes"/>
      <point x="723" y="903"/>
      <point x="872" y="716"/>
      <point x="872" y="441" type="curve" smooth="yes"/>
      <point x="872" y="162"/>
      <point x="685" y="-27"/>
      <point x="452" y="-27" type="curve" smooth="yes"/>
      <point x="188" y="-27"/>
      <point x="40" y="169"/>
    </contour>
  </outline>
</glyph>
<glyph name="udieresis" format="1">
  <advance width="1002"/>
  <unicode hex="00FC"/>
  <outline>
    <contour>
      <point x="19" y="783" type="line"/>
      <point x="33" y="862" type="line"/>
      <point x="301" y="883" type="line"/>
      <point x="326" y="859" type="line"/>
      <point x="326" y="317" type="line" smooth="yes"/>
      <point x="326" y="166"/>
      <point x="390" y="114"/>
      <point x="480" y="114" type="curve" smooth="yes"/>
      <point x="570" y="114"/>
      <point x="623" y="147"/>
      <point x="666" y="191" type="curve"/>
      <point x="666" y="722" type="line"/>
      <point x="507" y="764" type="line"/>
      <point x="517" y="856" type="line"/>
      <point x="811" y="883" type="line"/>
      <point x="832" y="859" type="line"/>
      <point x="832" y="215" type="line" smooth="yes"/>
      <point x="832" y="115"/>
      <point x="874" y="104"/>
      <point x="940" y="89" type="curve" smooth="yes"/>
      <point x="986" y="79" type="line"/>
      <point x="977" y="-4" type="line"/>
      <point x="915" y="-19"/>
      <point x="885" y="-23"/>
      <point x="826" y="-23" type="curve" smooth="yes"/>
      <point x="726" y="-23"/>
      <point x="679" y="39"/>
      <point x="679" y="122" type="curve" smooth="yes"/>
      <point x="679" y="131" type="line"/>
      <point x="666" y="131" type="line"/>
      <point x="596" y="29"/>
      <point x="501" y="-23"/>
      <point x="380" y="-23" type="curve" smooth="yes"/>
      <point x="251" y="-23"/>
      <point x="157" y="52"/>
      <point x="157" y="267" type="curve" smooth="yes"/>
      <point x="157" y="728" type="line"/>
    </contour>
    <contour>
      <point x="279" y="1084" type="curve" smooth="yes"/>
      <point x="279" y="1131"/>
      <point x="322" y="1163"/>
      <point x="362" y="1163" type="curve" smooth="yes"/>
      <point x="406" y="1163"/>
      <point x="448" y="1130"/>
      <point x="448" y="1084" type="curve" smooth="yes"/>
      <point x="448" y="1035"/>
      <point x="406" y="1004"/>
      <point x="362" y="1004" type="curve" smooth="yes"/>
      <point x="319" y="1004"/>
      <point x="279" y="1035"/>
    </contour>
    <contour>
      <point x="546" y="1084" type="curve" smooth="yes"/>
      <point x="546" y="1131"/>
      <point x="589" y="1163"/>
      <point x="629" y="1163" type="curve" smooth="yes"/>
      <point x="673" y="1163"/>
      <point x="717" y="1130"/>
      <point x="717" y="1084" type="curve" smooth="yes"/>
      <point x="717" y="1035"/>
      <point x="673" y="1004"/>
      <point x="629" y="1004" type="curve" smooth="yes"/>
      <point x="586" y="1004"/>
      <point x="546" y="1035"/>
    </contour>
  </outline>
</glyph>
<glyph name="thorn" format="1">
  <advance width="937"/>
  <unicode hex="00FE"/>
  <outline>
    <contour>
      <point x="-15" y="-366" type="line"/>
      <point x="-8" y="-287" type="line"/>
      <point x="145" y="-251" type="line"/>
      <point x="143" y="1137" type="line"/>
      <point x="-9" y="1191" type="line"/>
      <point x="4" y="1267" type="line"/>
      <point x="287" y="1288" type="line"/>
      <point x="311" y="1265" type="line"/>
      <point x="311" y="849" type="line"/>
      <point x="297" y="744" type="line"/>
      <point x="308" y="744" type="line"/>
      <point x="367" y="810"/>
      <point x="445" y="896"/>
      <point x="577" y="896" type="curve" smooth="yes"/>
      <point x="748" y="896"/>
      <point x="884" y="740"/>
      <point x="884" y="469" type="curve" smooth="yes"/>
      <point x="884" y="190"/>
      <point x="703" y="-13"/>
      <point x="470" y="-13" type="curve" smooth="yes"/>
      <point x="437" y="-13"/>
      <point x="402" y="-10"/>
      <point x="369" y="1" type="curve"/>
      <point x="366" y="102" type="line"/>
      <point x="622" y="51"/>
      <point x="696" y="224"/>
      <point x="696" y="408" type="curve" smooth="yes"/>
      <point x="696" y="645"/>
      <point x="633" y="767"/>
      <point x="507" y="767" type="curve" smooth="yes"/>
      <point x="421" y="767"/>
      <point x="352" y="721"/>
      <point x="308" y="675" type="curve"/>
      <point x="308" y="-251" type="line"/>
      <point x="463" y="-285" type="line"/>
      <point x="451" y="-366" type="line"/>
    </contour>
  </outline>
</glyph>
<glyph name="Ccaron" format="1">
  <advance width="1153"/>
  <unicode hex="010C"/>
  <outline>
    <contour>
      <point x="61" y="589" type="curve" smooth="yes"/>
      <point x="61" y="884"/>
      <point x="246" y="1269"/>
      <point x="704" y="1269" type="curve" smooth="yes"/>
      <point x="836" y="1269"/>
      <point x="970" y="1242"/>
      <point x="1066" y="1169" type="curve"/>
      <point x="1035" y="837" type="line"/>
      <point x="947" y="850" type="line"/>
      <point x="905" y="1070" type="line"/>
      <point x="859" y="1129"/>
      <point x="776" y="1174"/>
      <point x="647" y="1174" type="curve" smooth="yes"/>
      <point x="439" y="1174"/>
      <point x="275" y="980"/>
      <point x="275" y="658" type="curve" smooth="yes"/>
      <point x="275" y="299"/>
      <point x="491" y="111"/>
      <point x="728" y="111" type="curve" smooth="yes"/>
      <point x="862" y="111"/>
      <point x="992" y="182"/>
      <point x="1078" y="261" type="curve"/>
      <point x="1113" y="185" type="line"/>
      <point x="1034" y="89"/>
      <point x="859" y="-24"/>
      <point x="651" y="-24" type="curve" smooth="yes"/>
      <point x="344" y="-24"/>
      <point x="61" y="190"/>
    </contour>
    <contour>
      <point x="472" y="1527" type="line"/>
      <point x="552" y="1589" type="line"/>
      <point x="701" y="1445" type="line"/>
      <point x="712" y="1445" type="line"/>
      <point x="835" y="1585" type="line"/>
      <point x="879" y="1555" type="line"/>
      <point x="706" y="1376" type="line"/>
      <point x="651" y="1361" type="line"/>
    </contour>
  </outline>
</glyph>
<glyph name="ccaron" format="1">
  <advance width="778"/>
  <unicode hex="010D"/>
  <outline>
    <contour>
      <point x="50" y="415" type="curve" smooth="yes"/>
      <point x="50" y="712"/>
      <point x="258" y="900"/>
      <point x="475" y="900" type="curve" smooth="yes"/>
      <point x="642" y="900"/>
      <point x="716" y="826"/>
      <point x="716" y="747" type="curve" smooth="yes"/>
      <point x="716" y="688"/>
      <point x="672" y="648"/>
      <point x="589" y="642" type="curve"/>
      <point x="561" y="709"/>
      <point x="515" y="806"/>
      <point x="428" y="806" type="curve" smooth="yes"/>
      <point x="309" y="806"/>
      <point x="231" y="688"/>
      <point x="231" y="507" type="curve" smooth="yes"/>
      <point x="231" y="340"/>
      <point x="320" y="90"/>
      <point x="528" y="90" type="curve" smooth="yes"/>
      <point x="627" y="90"/>
      <point x="683" y="121"/>
      <point x="730" y="151" type="curve"/>
      <point x="755" y="93" type="line"/>
      <point x="702" y="29"/>
      <point x="574" y="-30"/>
      <point x="445" y="-30" type="curve" smooth="yes"/>
      <point x="205" y="-30"/>
      <point x="50" y="175"/>
    </contour>
    <contour>
      <point x="222" y="1174" type="line"/>
      <point x="302" y="1237" type="line"/>
      <point x="451" y="1093" type="line"/>
      <point x="461" y="1093" type="line"/>
      <point x="585" y="1234" type="line"/>
      <point x="628" y="1203" type="line"/>
      <point x="457" y="1024" type="line"/>
      <point x="402" y="1010" type="line"/>
    </contour>
  </outline>
</glyph>
<glyph name="Ecaron" format="1">
  <advance width="1142"/>
  <unicode hex="011A"/>
  <outline>
    <contour>
      <point x="50" y="1168" type="line"/>
      <point x="61" y="1244" type="line"/>
      <point x="1056" y="1244" type="line"/>
      <point x="1025" y="924" type="line"/>
      <point x="938" y="937" type="line"/>
      <point x="897" y="1152" type="line"/>
      <point x="426" y="1152" type="line"/>
      <point x="426" y="676" type="line"/>
      <point x="716" y="676" type="line"/>
      <point x="758" y="796" type="line"/>
      <point x="853" y="810" type="line"/>
      <point x="819" y="421" type="line"/>
      <point x="734" y="408" type="line"/>
      <point x="700" y="583" type="line"/>
      <point x="426" y="583" type="line"/>
      <point x="426" y="96" type="line"/>
      <point x="921" y="96" type="line"/>
      <point x="1019" y="326" type="line"/>
      <point x="1102" y="313" type="line"/>
      <point x="1072" y="0" type="line"/>
      <point x="57" y="0" type="line"/>
      <point x="65" y="74" type="line"/>
      <point x="232" y="121" type="line"/>
      <point x="232" y="1126" type="line"/>
    </contour>
    <contour>
      <point x="386" y="1527" type="line"/>
      <point x="466" y="1589" type="line"/>
      <point x="615" y="1445" type="line"/>
      <point x="624" y="1445" type="line"/>
      <point x="748" y="1585" type="line"/>
      <point x="792" y="1555" type="line"/>
      <point x="620" y="1376" type="line"/>
      <point x="565" y="1361" type="line"/>
    </contour>
  </outline>
</glyph>
<glyph name="ecaron" format="1">
  <advance width="802"/>
  <unicode hex="011B"/>
  <outline>
    <contour>
      <point x="53" y="428" type="curve" smooth="yes"/>
      <point x="53" y="728"/>
      <point x="270" y="899"/>
      <point x="464" y="899" type="curve" smooth="yes"/>
      <point x="609" y="899"/>
      <point x="731" y="792"/>
      <point x="731" y="581" type="curve" smooth="yes"/>
      <point x="731" y="550"/>
      <point x="723" y="485"/>
      <point x="715" y="451" type="curve"/>
      <point x="231" y="445" type="line"/>
      <point x="239" y="288"/>
      <point x="323" y="102"/>
      <point x="510" y="102" type="curve" smooth="yes"/>
      <point x="516" y="102" type="line" smooth="yes"/>
      <point x="583" y="102"/>
      <point x="637" y="103"/>
      <point x="737" y="157" type="curve"/>
      <point x="758" y="104" type="line"/>
      <point x="679" y="21"/>
      <point x="561" y="-30"/>
      <point x="429" y="-30" type="curve" smooth="yes"/>
      <point x="241" y="-30"/>
      <point x="53" y="124"/>
    </contour>
    <contour>
      <point x="218" y="1159" type="line"/>
      <point x="298" y="1220" type="line"/>
      <point x="448" y="1077" type="line"/>
      <point x="458" y="1077" type="line"/>
      <point x="581" y="1217" type="line"/>
      <point x="624" y="1186" type="line"/>
      <point x="452" y="1007" type="line"/>
      <point x="397" y="993" type="line"/>
    </contour>
    <contour>
      <point x="233" y="523" type="curve"/>
      <point x="547" y="546" type="line"/>
      <point x="551" y="562"/>
      <point x="553" y="599"/>
      <point x="553" y="615" type="curve" smooth="yes"/>
      <point x="553" y="734"/>
      <point x="511" y="801"/>
      <point x="415" y="801" type="curve" smooth="yes"/>
      <point x="335" y="801"/>
      <point x="243" y="717"/>
    </contour>
  </outline>
</glyph>
<glyph name="OE" format="1">
  <advance width="1708"/>
  <unicode hex="0152"/>
  <outline>
    <contour>
      <point x="64" y="619" type="curve" smooth="yes"/>
      <point x="64" y="1009"/>
      <point x="266" y="1272"/>
      <point x="660" y="1272" type="curve" smooth="yes"/>
      <point x="730" y="1272"/>
      <point x="792" y="1263"/>
      <point x="845" y="1244" type="curve"/>
      <point x="1622" y="1244" type="line"/>
      <point x="1590" y="924" type="line"/>
      <point x="1504" y="937" type="line"/>
      <point x="1464" y="1152" type="line"/>
      <point x="995" y="1152" type="line"/>
      <point x="995" y="676" type="line"/>
      <point x="1283" y="676" type="line"/>
      <point x="1325" y="796" type="line"/>
      <point x="1419" y="810" type="line"/>
      <point x="1387" y="421" type="line"/>
      <point x="1300" y="408" type="line"/>
      <point x="1267" y="583" type="line"/>
      <point x="995" y="583" type="line"/>
      <point x="995" y="96" type="line"/>
      <point x="1487" y="96" type="line"/>
      <point x="1585" y="326" type="line"/>
      <point x="1668" y="313" type="line"/>
      <point x="1639" y="0" type="line"/>
      <point x="798" y="0" type="line"/>
      <point x="732" y="-16"/>
      <point x="663" y="-27"/>
      <point x="590" y="-27" type="curve" smooth="yes"/>
      <point x="252" y="-27"/>
      <point x="64" y="247"/>
    </contour>
    <contour>
      <point x="286" y="676" type="curve" smooth="yes"/>
      <point x="286" y="415"/>
      <point x="373" y="79"/>
      <point x="633" y="79" type="curve" smooth="yes"/>
      <point x="692" y="79"/>
      <point x="749" y="92"/>
      <point x="802" y="122" type="curve"/>
      <point x="802" y="1126" type="line"/>
      <point x="746" y="1159"/>
      <point x="681" y="1176"/>
      <point x="611" y="1176" type="curve" smooth="yes"/>
      <point x="393" y="1176"/>
      <point x="286" y="1010"/>
    </contour>
  </outline>
</glyph>
<glyph name="oe" format="1">
  <advance width="1407"/>
  <unicode hex="0153"/>
  <outline>
    <contour>
      <point x="54" y="426" type="curve" smooth="yes"/>
      <point x="54" y="730"/>
      <point x="242" y="900"/>
      <point x="465" y="900" type="curve" smooth="yes"/>
      <point x="589" y="900"/>
      <point x="721" y="819"/>
      <point x="755" y="736" type="curve"/>
      <point x="817" y="819"/>
      <point x="930" y="899"/>
      <point x="1068" y="899" type="curve" smooth="yes"/>
      <point x="1213" y="899"/>
      <point x="1335" y="792"/>
      <point x="1335" y="581" type="curve" smooth="yes"/>
      <point x="1335" y="550"/>
      <point x="1326" y="485"/>
      <point x="1318" y="451" type="curve"/>
      <point x="836" y="445" type="line"/>
      <point x="836" y="281"/>
      <point x="933" y="93"/>
      <point x="1114" y="93" type="curve" smooth="yes"/>
      <point x="1184" y="93"/>
      <point x="1234" y="101"/>
      <point x="1338" y="157" type="curve"/>
      <point x="1363" y="104" type="line"/>
      <point x="1284" y="21"/>
      <point x="1164" y="-30"/>
      <point x="1032" y="-30" type="curve" smooth="yes"/>
      <point x="901" y="-30"/>
      <point x="808" y="39"/>
      <point x="738" y="131" type="curve"/>
      <point x="649" y="18"/>
      <point x="562" y="-28"/>
      <point x="441" y="-28" type="curve" smooth="yes"/>
      <point x="177" y="-28"/>
      <point x="54" y="169"/>
    </contour>
    <contour>
      <point x="233" y="497" type="curve" smooth="yes"/>
      <point x="233" y="291"/>
      <point x="311" y="76"/>
      <point x="475" y="76" type="curve" smooth="yes"/>
      <point x="583" y="76"/>
      <point x="657" y="218"/>
      <point x="657" y="359" type="curve" smooth="yes"/>
      <point x="657" y="557"/>
      <point x="595" y="801"/>
      <point x="424" y="801" type="curve" smooth="yes"/>
      <point x="273" y="801"/>
      <point x="233" y="654"/>
    </contour>
    <contour>
      <point x="837" y="527" type="curve"/>
      <point x="1151" y="549" type="line"/>
      <point x="1155" y="565"/>
      <point x="1158" y="599"/>
      <point x="1158" y="615" type="curve" smooth="yes"/>
      <point x="1158" y="734"/>
      <point x="1115" y="801"/>
      <point x="1019" y="801" type="curve" smooth="yes"/>
      <point x="939" y="801"/>
      <point x="847" y="721"/>
    </contour>
  </outline>
</glyph>
<glyph name="Rcaron" format="1">
  <advance width="1208"/>
  <unicode hex="0158"/>
  <outline>
    <contour>
      <point x="50" y="0" type="line"/>
      <point x="61" y="74" type="line"/>
      <point x="228" y="121" type="line"/>
      <point x="228" y="1100" type="line"/>
      <point x="57" y="1130" type="line"/>
      <point x="67" y="1207" type="line"/>
      <point x="214" y="1230"/>
      <point x="375" y="1253"/>
      <point x="523" y="1253" type="curve" smooth="yes"/>
      <point x="820" y="1253"/>
      <point x="1025" y="1176"/>
      <point x="1025" y="943" type="curve" smooth="yes"/>
      <point x="1025" y="814"/>
      <point x="926" y="666"/>
      <point x="738" y="599" type="curve"/>
      <point x="738" y="598" type="line"/>
      <point x="918" y="349" type="line" smooth="yes"/>
      <point x="1035" y="187"/>
      <point x="1087" y="114"/>
      <point x="1211" y="77" type="curve" smooth="yes"/>
      <point x="1244" y="67" type="line"/>
      <point x="1229" y="-1" type="line"/>
      <point x="1186" y="-16"/>
      <point x="1146" y="-21"/>
      <point x="1109" y="-21" type="curve" smooth="yes"/>
      <point x="950" y="-21"/>
      <point x="840" y="98"/>
      <point x="753" y="253" type="curve" smooth="yes"/>
      <point x="594" y="537" type="line"/>
      <point x="420" y="537" type="line"/>
      <point x="420" y="126" type="line"/>
      <point x="608" y="83" type="line"/>
      <point x="598" y="0" type="line"/>
    </contour>
    <contour>
      <point x="374" y="1527" type="line"/>
      <point x="454" y="1589" type="line"/>
      <point x="604" y="1445" type="line"/>
      <point x="614" y="1445" type="line"/>
      <point x="737" y="1585" type="line"/>
      <point x="781" y="1555" type="line"/>
      <point x="608" y="1376" type="line"/>
      <point x="553" y="1361" type="line"/>
    </contour>
    <contour>
      <point x="420" y="628" type="line"/>
      <point x="618" y="628" type="line"/>
      <point x="717" y="661"/>
      <point x="818" y="745"/>
      <point x="818" y="887" type="curve" smooth="yes"/>
      <point x="818" y="1051"/>
      <point x="717" y="1169"/>
      <point x="540" y="1169" type="curve" smooth="yes"/>
      <point x="470" y="1169"/>
      <point x="420" y="1164"/>
      <point x="420" y="1164" type="curve"/>
    </contour>
  </outline>
</glyph>
<glyph name="rcaron" format="1">
  <advance width="735"/>
  <unicode hex="0159"/>
  <outline>
    <contour>
      <point x="40" y="0" type="line"/>
      <point x="50" y="74" type="line"/>
      <point x="203" y="114" type="line"/>
      <point x="203" y="728" type="line"/>
      <point x="40" y="777" type="line"/>
      <point x="54" y="853" type="line"/>
      <point x="341" y="890" type="line"/>
      <point x="360" y="866" type="line"/>
      <point x="344" y="636" type="line"/>
      <point x="363" y="636" type="line"/>
      <point x="416" y="817"/>
      <point x="515" y="906"/>
      <point x="598" y="906" type="curve" smooth="yes"/>
      <point x="672" y="906"/>
      <point x="718" y="852"/>
      <point x="718" y="793" type="curve" smooth="yes"/>
      <point x="718" y="750"/>
      <point x="693" y="709"/>
      <point x="640" y="673" type="curve"/>
      <point x="606" y="703"/>
      <point x="566" y="722"/>
      <point x="530" y="722" type="curve" smooth="yes"/>
      <point x="477" y="722"/>
      <point x="390" y="655"/>
      <point x="369" y="504" type="curve"/>
      <point x="369" y="121" type="line"/>
      <point x="602" y="87" type="line"/>
      <point x="592" y="0" type="line"/>
    </contour>
    <contour>
      <point x="206" y="1159" type="line"/>
      <point x="287" y="1220" type="line"/>
      <point x="436" y="1077" type="line"/>
      <point x="445" y="1077" type="line"/>
      <point x="568" y="1217" type="line"/>
      <point x="612" y="1186" type="line"/>
      <point x="441" y="1007" type="line"/>
      <point x="386" y="993" type="line"/>
    </contour>
  </outline>
</glyph>
<glyph name="Scaron" format="1">
  <advance width="900"/>
  <unicode hex="0160"/>
  <outline>
    <contour>
      <point x="66" y="122" type="curve"/>
      <point x="79" y="389" type="line"/>
      <point x="181" y="375" type="line"/>
      <point x="220" y="187" type="line"/>
      <point x="256" y="130"/>
      <point x="333" y="77"/>
      <point x="426" y="77" type="curve" smooth="yes"/>
      <point x="531" y="77"/>
      <point x="663" y="139"/>
      <point x="663" y="287" type="curve" smooth="yes"/>
      <point x="663" y="547"/>
      <point x="90" y="544"/>
      <point x="90" y="916" type="curve" smooth="yes"/>
      <point x="90" y="1143"/>
      <point x="282" y="1269"/>
      <point x="479" y="1269" type="curve" smooth="yes"/>
      <point x="587" y="1269"/>
      <point x="682" y="1235"/>
      <point x="761" y="1169" type="curve"/>
      <point x="761" y="1161"/>
      <point x="739" y="887"/>
      <point x="739" y="887" type="curve"/>
      <point x="640" y="899" type="line"/>
      <point x="615" y="1090" type="line"/>
      <point x="597" y="1126"/>
      <point x="525" y="1185"/>
      <point x="445" y="1185" type="curve" smooth="yes"/>
      <point x="345" y="1185"/>
      <point x="263" y="1126"/>
      <point x="263" y="995" type="curve" smooth="yes"/>
      <point x="263" y="708"/>
      <point x="847" y="730"/>
      <point x="847" y="354" type="curve" smooth="yes"/>
      <point x="847" y="124"/>
      <point x="630" y="-24"/>
      <point x="402" y="-24" type="curve" smooth="yes"/>
      <point x="258" y="-24"/>
      <point x="130" y="43"/>
    </contour>
    <contour>
      <point x="255" y="1526" type="line"/>
      <point x="335" y="1587" type="line"/>
      <point x="484" y="1443" type="line"/>
      <point x="494" y="1443" type="line"/>
      <point x="618" y="1584" type="line"/>
      <point x="661" y="1553" type="line"/>
      <point x="489" y="1373" type="line"/>
      <point x="434" y="1360" type="line"/>
    </contour>
  </outline>
</glyph>
<glyph name="scaron" format="1">
  <advance width="697"/>
  <unicode hex="0161"/>
  <outline>
    <contour>
      <point x="50" y="141" type="curve" smooth="yes"/>
      <point x="50" y="208"/>
      <point x="99" y="265"/>
      <point x="182" y="271" type="curve"/>
      <point x="225" y="130"/>
      <point x="295" y="64"/>
      <point x="371" y="64" type="curve" smooth="yes"/>
      <point x="441" y="64"/>
      <point x="503" y="91"/>
      <point x="503" y="165" type="curve" smooth="yes"/>
      <point x="503" y="324"/>
      <point x="74" y="354"/>
      <point x="74" y="624" type="curve" smooth="yes"/>
      <point x="74" y="740"/>
      <point x="170" y="900"/>
      <point x="372" y="900" type="curve" smooth="yes"/>
      <point x="503" y="900"/>
      <point x="617" y="845"/>
      <point x="617" y="734" type="curve" smooth="yes"/>
      <point x="617" y="651"/>
      <point x="564" y="595"/>
      <point x="477" y="589" type="curve"/>
      <point x="470" y="632" type="line" smooth="yes"/>
      <point x="442" y="780"/>
      <point x="380" y="816"/>
      <point x="321" y="816" type="curve" smooth="yes"/>
      <point x="251" y="816"/>
      <point x="209" y="760"/>
      <point x="209" y="696" type="curve" smooth="yes"/>
      <point x="209" y="509"/>
      <point x="648" y="487"/>
      <point x="648" y="220" type="curve" smooth="yes"/>
      <point x="648" y="72"/>
      <point x="494" y="-34"/>
      <point x="340" y="-34" type="curve" smooth="yes"/>
      <point x="162" y="-34"/>
      <point x="50" y="51"/>
    </contour>
    <contour>
      <point x="138" y="1159" type="line"/>
      <point x="219" y="1220" type="line"/>
      <point x="368" y="1077" type="line"/>
      <point x="377" y="1077" type="line"/>
      <point x="500" y="1217" type="line"/>
      <point x="544" y="1186" type="line"/>
      <point x="372" y="1007" type="line"/>
      <point x="317" y="993" type="line"/>
    </contour>
  </outline>
</glyph>
<glyph name="Zcaron" format="1">
  <advance width="1096"/>
  <unicode hex="017D"/>
  <outline>
    <contour>
      <point x="47" y="104" type="line"/>
      <point x="792" y="1149" type="line"/>
      <point x="255" y="1149" type="line"/>
      <point x="178" y="903" type="line"/>
      <point x="88" y="921" type="line"/>
      <point x="98" y="1244" type="line"/>
      <point x="1026" y="1244" type="line"/>
      <point x="1026" y="1168" type="line"/>
      <point x="262" y="100" type="line"/>
      <point x="832" y="100" type="line"/>
      <point x="955" y="351" type="line"/>
      <point x="1048" y="335" type="line"/>
      <point x="991" y="0" type="line"/>
      <point x="55" y="0" type="line"/>
    </contour>
    <contour>
      <point x="341" y="1527" type="line"/>
      <point x="423" y="1589" type="line"/>
      <point x="571" y="1445" type="line"/>
      <point x="581" y="1445" type="line"/>
      <point x="704" y="1585" type="line"/>
      <point x="748" y="1555" type="line"/>
      <point x="575" y="1376" type="line"/>
      <point x="520" y="1361" type="line"/>
    </contour>
  </outline>
</glyph>
<glyph name="zcaron" format="1">
  <advance width="818"/>
  <unicode hex="017E"/>
  <outline>
    <contour>
      <point x="53" y="87" type="line"/>
      <point x="543" y="780" type="line"/>
      <point x="206" y="780" type="line"/>
      <point x="147" y="595" type="line"/>
      <point x="70" y="608" type="line"/>
      <point x="78" y="873" type="line"/>
      <point x="750" y="873" type="line"/>
      <point x="750" y="799" type="line"/>
      <point x="248" y="99" type="line"/>
      <point x="608" y="99" type="line"/>
      <point x="703" y="275" type="line"/>
      <point x="770" y="267" type="line"/>
      <point x="728" y="0" type="line"/>
      <point x="57" y="0" type="line"/>
    </contour>
    <contour>
      <point x="200" y="1159" type="line"/>
      <point x="282" y="1220" type="line"/>
      <point x="430" y="1077" type="line"/>
      <point x="440" y="1077" type="line"/>
      <point x="563" y="1217" type="line"/>
      <point x="607" y="1186" type="line"/>
      <point x="436" y="1007" type="line"/>
      <point x="380" y="993" type="line"/>
    </contour>
  </outline>
</glyph>
<glyph name="circumflex" format="1">
  <advance width="584"/>
  <unicode hex="02C6"/>
  <outline>
    <contour>
      <point x="90" y="1387" type="line"/>
      <point x="258" y="1566" type="line"/>
      <point x="313" y="1581" type="line"/>
      <point x="491" y="1395" type="line"/>
      <point x="442" y="1358" type="line"/>
      <point x="279" y="1468" type="line"/>
      <point x="268" y="1468" type="line"/>
      <point x="129" y="1357" type="line"/>
    </contour>
  </outline>
</glyph>
<glyph name="ring" format="1">
  <advance width="491"/>
  <unicode hex="02DA"/>
  <outline>
    <contour>
      <point x="89" y="1527" type="curve" smooth="yes"/>
      <point x="89" y="1619"/>
      <point x="163" y="1699"/>
      <point x="256" y="1699" type="curve" smooth="yes"/>
      <point x="352" y="1699"/>
      <point x="412" y="1629"/>
      <point x="412" y="1536" type="curve" smooth="yes"/>
      <point x="412" y="1446"/>
      <point x="345" y="1361"/>
      <point x="243" y="1361" type="curve" smooth="yes"/>
      <point x="151" y="1361"/>
      <point x="89" y="1425"/>
    </contour>
    <contour>
      <point x="160" y="1538" type="curve" smooth="yes"/>
      <point x="160" y="1477"/>
      <point x="191" y="1410"/>
      <point x="255" y="1410" type="curve" smooth="yes"/>
      <point x="309" y="1410"/>
      <point x="341" y="1451"/>
      <point x="341" y="1524" type="curve" smooth="yes"/>
      <point x="341" y="1586"/>
      <point x="307" y="1650"/>
      <point x="245" y="1650" type="curve" smooth="yes"/>
      <point x="186" y="1650"/>
      <point x="160" y="1594"/>
    </contour>
  </outline>
</glyph>
<glyph name="tilde" format="1">
  <advance width="649"/>
  <unicode hex="02DC"/>
  <outline>
    <contour>
      <point x="92" y="1379" type="line" smooth="yes"/>
      <point x="92" y="1379"/>
      <point x="132" y="1533"/>
      <point x="228" y="1521" type="curve" smooth="yes"/>
      <point x="454" y="1492" type="line" smooth="yes"/>
      <point x="479" y="1489"/>
      <point x="510" y="1532"/>
      <point x="510" y="1532" type="curve"/>
      <point x="559" y="1530" type="line" smooth="yes"/>
      <point x="559" y="1530"/>
      <point x="512" y="1374"/>
      <point x="415" y="1387" type="curve" smooth="yes"/>
      <point x="190" y="1419" type="line" smooth="yes"/>
      <point x="162" y="1423"/>
      <point x="131" y="1370"/>
      <point x="131" y="1370" type="curve"/>
    </contour>
  </outline>
</glyph>
<glyph name="alef" format="1">
  <advance width="1061"/>
  <unicode hex="05D0"/>
  <outline>
    <contour>
      <point x="825" y="1039" type="curve" smooth="yes"/>
      <point x="990" y="848" type="line"/>
      <point x="920" y="666" type="line"/>
      <point x="895" y="669" type="line"/>
      <point x="879.06" y="680.939"/>
      <point x="624" y="966"/>
      <point x="624" y="966" type="curve"/>
      <point x="717" y="1125" type="line"/>
      <point x="767" y="1139" type="line"/>
      <point x="779" y="1098"/>
      <point x="783.777" y="1086.72"/>
    </contour>
    <contour>
      <point x="847" y="785" type="line"/>
      <point x="775" y="728"/>
      <point x="703" y="617"/>
      <point x="702" y="466" type="curve"/>
      <point x="605" y="571" type="line"/>
      <point x="772" y="864" type="line"/>
    </contour>
    <contour>
      <point x="189" y="1127" type="line"/>
      <point x="230" y="1134" type="line"/>
      <point x="233.725" y="1073.14"/>
      <point x="263.984" y="1020.03"/>
      <point x="302" y="977" type="curve" smooth="yes"/>
      <point x="1000" y="154" type="line"/>
      <point x="916" y="-8" type="line"/>
      <point x="890" y="-12" type="line"/>
      <point x="82" y="919" type="line"/>
      <point x="81" y="950" type="line"/>
    </contour>
    <contour>
      <point x="381" y="674" type="line"/>
      <point x="275.999" y="628.799"/>
      <point x="181.362" y="475.977"/>
      <point x="271" y="351" type="curve" smooth="yes"/>
      <point x="375" y="206" type="line" smooth="yes"/>
      <point x="399.75" y="178.191"/>
      <point x="419" y="137"/>
      <point x="419" y="107" type="curve" smooth="yes"/>
      <point x="419" y="45.7265"/>
      <point x="406.447" y="0"/>
      <point x="360" y="0" type="curve" smooth="yes"/>
      <point x="87" y="0" type="line"/>
      <point x="82" y="58" type="line"/>
      <point x="172" y="83"/>
      <point x="176.893" y="102.615"/>
      <point x="159" y="154" type="curve" smooth="yes"/>
      <point x="120" y="266" type="line" smooth="yes"/>
      <point x="72.8839" y="401.308"/>
      <point x="146" y="607"/>
      <point x="318" y="734" type="curve"/>
    </contour>
  </outline>
</glyph>
<glyph name="bet" format="1">
  <advance width="980"/>
  <unicode hex="05D1"/>
  <outline>
    <contour>
      <point x="941" y="211" type="line"/>
      <point x="899" y="0" type="line"/>
      <point x="78" y="0" type="line"/>
      <point x="55" y="16" type="line"/>
      <point x="92" y="211" type="line"/>
    </contour>
    <contour>
      <point x="647" y="201" type="line"/>
      <point x="699.196" y="229.428"/>
      <point x="745" y="383.753"/>
      <point x="745" y="533" type="curve" smooth="yes"/>
      <point x="745" y="722.783"/>
      <point x="701" y="828"/>
      <point x="575" y="828" type="curve" smooth="yes"/>
      <point x="138" y="828" type="line"/>
      <point x="115" y="856" type="line"/>
      <point x="188" y="1127" type="line"/>
      <point x="249" y="1149" type="line"/>
      <point x="280" y="1054"/>
      <point x="297" y="1038"/>
      <point x="363" y="1038" type="curve" smooth="yes"/>
      <point x="631" y="1038" type="line" smooth="yes"/>
      <point x="804" y="1038"/>
      <point x="855" y="968"/>
      <point x="855" y="644" type="curve" smooth="yes"/>
      <point x="855" y="464.544"/>
      <point x="817.018" y="292.266"/>
      <point x="740" y="201" type="curve"/>
    </contour>
  </outline>
</glyph>
<glyph name="gimel" format="1">
  <advance width="714"/>
  <unicode hex="05D2"/>
  <outline>
    <contour>
      <point x="356" y="1038" type="curve" smooth="yes"/>
      <point x="388" y="1038" type="line" smooth="yes"/>
      <point x="481" y="1038"/>
      <point x="556" y="964"/>
      <point x="556" y="799" type="curve" smooth="yes"/>
      <point x="556" y="382" type="line"/>
      <point x="571" y="300"/>
      <point x="630" y="210"/>
      <point x="687" y="168" type="curve"/>
      <point x="570" y="-8" type="line"/>
      <point x="532" y="-8" type="line"/>
      <point x="498" y="228" type="line"/>
      <point x="472" y="228" type="line"/>
      <point x="467" y="612" type="line" smooth="yes"/>
      <point x="465" y="771.312"/>
      <point x="430" y="828"/>
      <point x="339" y="828" type="curve" smooth="yes"/>
      <point x="131" y="828" type="line"/>
      <point x="108" y="856" type="line"/>
      <point x="181" y="1127" type="line"/>
      <point x="242" y="1149" type="line"/>
      <point x="273" y="1054"/>
      <point x="290" y="1038"/>
    </contour>
    <contour>
      <point x="503" y="277" type="line"/>
      <point x="466" y="205.548"/>
      <point x="294" y="18.5977"/>
      <point x="221" y="0" type="curve"/>
      <point x="72" y="0" type="line"/>
      <point x="53" y="25" type="line"/>
      <point x="89" y="224" type="line"/>
      <point x="186" y="224" type="line"/>
      <point x="262" y="230.746"/>
      <point x="427" y="268.333"/>
      <point x="474" y="357" type="curve"/>
    </contour>
  </outline>
</glyph>
<glyph name="dalet" format="1">
  <advance width="994"/>
  <unicode hex="05D3"/>
  <outline>
    <contour>
      <point x="88" y="828" type="line"/>
      <point x="65" y="856" type="line"/>
      <point x="138" y="1127" type="line"/>
      <point x="199" y="1149" type="line"/>
      <point x="230" y="1054"/>
      <point x="247" y="1038"/>
      <point x="313" y="1038" type="curve" smooth="yes"/>
      <point x="915" y="1038" type="line"/>
      <point x="933" y="1015" type="line"/>
      <point x="884" y="828" type="line"/>
    </contour>
    <contour>
      <point x="786" y="842" type="line"/>
      <point x="842" y="263" type="line" smooth="yes"/>
      <point x="857" y="107"/>
      <point x="813.181" y="28"/>
      <point x="738" y="-8" type="curve"/>
      <point x="690" y="-8" type="line"/>
      <point x="700" y="842" type="line"/>
    </contour>
  </outline>
</glyph>
<glyph name="he" format="1">
  <advance width="1047"/>
  <unicode hex="05D4"/>
  <outline>
    <contour>
      <point x="95" y="828" type="line"/>
      <point x="72" y="856" type="line"/>
      <point x="145" y="1127" type="line"/>
      <point x="206" y="1149" type="line"/>
      <point x="237" y="1054"/>
      <point x="254" y="1038"/>
      <point x="320" y="1038" type="curve" smooth="yes"/>
      <point x="965" y="1038" type="line"/>
      <point x="983" y="1015" type="line"/>
      <point x="934" y="828" type="line"/>
    </contour>
    <contour>
      <point x="853" y="842" type="line"/>
      <point x="923" y="263" type="line" smooth="yes"/>
      <point x="942" y="108"/>
      <point x="897.229" y="28"/>
      <point x="830" y="-8" type="curve"/>
      <point x="782" y="-8" type="line"/>
      <point x="777" y="842" type="line"/>
    </contour>
    <contour>
      <point x="134" y="-8" type="line"/>
      <point x="134" y="390" type="line" smooth="yes"/>
      <point x="134" y="514"/>
      <point x="185" y="590"/>
      <point x="210" y="609" type="curve"/>
      <point x="249" y="609" type="line"/>
      <point x="270" y="273" type="line" smooth="yes"/>
      <point x="280.538" y="112"/>
      <point x="242.602" y="29"/>
      <point x="172" y="-8" type="curve"/>
    </contour>
  </outline>
</glyph>
<glyph name="vav" format="1">
  <advance width="517"/>
  <unicode hex="05D5"/>
  <outline>
    <contour>
      <point x="333" y="-8" type="line"/>
      <point x="333" y="642" type="line" smooth="yes"/>
      <point x="333" y="731.353"/>
      <point x="284" y="765.941"/>
      <point x="223" y="789" type="curve" smooth="yes"/>
      <point x="75" y="847" type="line"/>
      <point x="52" y="875" type="line"/>
      <point x="120" y="1128" type="line"/>
      <point x="180" y="1148" type="line"/>
      <point x="205.69" y="1070"/>
      <point x="217.465" y="1046"/>
      <point x="256" y="1029" type="curve" smooth="yes"/>
      <point x="301" y="1008" type="line" smooth="yes"/>
      <point x="384.809" y="971"/>
      <point x="418.147" y="914.559"/>
      <point x="423" y="773" type="curve" smooth="yes"/>
      <point x="447" y="73" type="line" smooth="yes"/>
      <point x="448" y="38"/>
      <point x="423" y="-2"/>
      <point x="403" y="-8" type="curve"/>
    </contour>
  </outline>
</glyph>
<glyph name="zayin" format="1">
  <advance width="547"/>
  <unicode hex="05D6"/>
  <outline>
    <contour>
      <point x="442" y="747" type="line"/>
      <point x="74" y="880" type="line"/>
      <point x="51" y="908" type="line"/>
      <point x="115" y="1125" type="line"/>
      <point x="175" y="1144" type="line"/>
      <point x="199" y="1082.28"/>
      <point x="210" y="1061.39"/>
      <point x="246" y="1050" type="curve" smooth="yes"/>
      <point x="452" y="979" type="line"/>
      <point x="470" y="956" type="line"/>
    </contour>
    <contour>
      <point x="328" y="804" type="curve"/>
      <point x="303" y="775"/>
      <point x="283" y="738"/>
      <point x="283" y="634" type="curve" smooth="yes"/>
      <point x="283" y="557.597"/>
      <point x="304" y="435.766"/>
      <point x="328" y="316" type="curve" smooth="yes"/>
      <point x="340" y="258" type="line" smooth="yes"/>
      <point x="364" y="141.316"/>
      <point x="312" y="38.4756"/>
      <point x="282" y="-8" type="curve"/>
      <point x="242" y="-8" type="line"/>
      <point x="202" y="136.914"/>
      <point x="163" y="353.778"/>
      <point x="163" y="522" type="curve" smooth="yes"/>
      <point x="163" y="637"/>
      <point x="232.451" y="783.378"/>
      <point x="255" y="834" type="curve"/>
      <point x="255" y="834"/>
      <point x="300.19" y="816"/>
    </contour>
  </outline>
</glyph>
<glyph name="het" format="1">
  <advance width="1057"/>
  <unicode hex="05D7"/>
  <outline>
    <contour>
      <point x="944" y="828" type="line"/>
      <point x="94" y="828" type="line"/>
      <point x="71" y="856" type="line"/>
      <point x="144" y="1127" type="line"/>
      <point x="205" y="1149" type="line"/>
      <point x="236" y="1054"/>
      <point x="253" y="1038"/>
      <point x="319" y="1038" type="curve" smooth="yes"/>
      <point x="975" y="1038" type="line"/>
      <point x="993" y="1015" type="line"/>
    </contour>
    <contour>
      <point x="847" y="843" type="line"/>
      <point x="934" y="259" type="line" smooth="yes"/>
      <point x="955" y="117"/>
      <point x="908.229" y="27.4688"/>
      <point x="841" y="-8" type="curve"/>
      <point x="793" y="-8" type="line"/>
      <point x="771" y="843" type="line"/>
    </contour>
    <contour>
      <point x="125" y="-8" type="line"/>
      <point x="140" y="500" type="line" smooth="yes"/>
      <point x="145" y="658.66"/>
      <point x="193" y="782.828"/>
      <point x="233" y="839" type="curve"/>
      <point x="307" y="839" type="line"/>
      <point x="271" y="782.731"/>
      <point x="261" y="713.628"/>
      <point x="275" y="454" type="curve" smooth="yes"/>
      <point x="282" y="318" type="line" smooth="yes"/>
      <point x="290.87" y="176.733"/>
      <point x="246.522" y="41.3936"/>
      <point x="180" y="-8" type="curve"/>
    </contour>
  </outline>
</glyph>
<glyph name="tet" format="1">
  <advance width="1027"/>
  <unicode hex="05D8"/>
  <outline>
    <contour>
      <point x="376" y="828" type="line"/>
      <point x="97" y="828" type="line"/>
      <point x="74" y="856" type="line"/>
      <point x="147" y="1127" type="line"/>
      <point x="208" y="1149" type="line"/>
      <point x="239" y="1054"/>
      <point x="256" y="1038"/>
      <point x="322" y="1038" type="curve" smooth="yes"/>
      <point x="407" y="1038" type="line"/>
      <point x="425" y="1015" type="line"/>
    </contour>
    <contour>
      <point x="476" y="683" type="curve"/>
      <point x="422" y="723" type="line"/>
      <point x="639" y="1020" type="line"/>
      <point x="677" y="1051" type="line"/>
      <point x="697" y="1053"/>
      <point x="718.366" y="1054.28"/>
      <point x="736.373" y="1054.28" type="curve" smooth="yes"/>
      <point x="905" y="1054.28"/>
      <point x="968" y="888.086"/>
      <point x="968" y="670" type="curve" smooth="yes"/>
      <point x="968" y="480"/>
      <point x="922" y="239"/>
      <point x="825" y="0" type="curve"/>
      <point x="213" y="0" type="line"/>
      <point x="190" y="16" type="line"/>
      <point x="156.4" y="101.585"/>
      <point x="112.635" y="282.882"/>
      <point x="112.635" y="465.716" type="curve" smooth="yes"/>
      <point x="112.635" y="601.49"/>
      <point x="137.426" y="738.123"/>
      <point x="210" y="836" type="curve"/>
      <point x="281" y="836" type="line"/>
      <point x="235.388" y="770.631"/>
      <point x="217.588" y="678.437"/>
      <point x="217.588" y="583.703" type="curve" smooth="yes"/>
      <point x="217.588" y="434.499"/>
      <point x="261.188" y="279.034"/>
      <point x="310" y="211" type="curve"/>
      <point x="807" y="211" type="line"/>
      <point x="832" y="271.146"/>
      <point x="864" y="423.975"/>
      <point x="864" y="563" type="curve" smooth="yes"/>
      <point x="864" y="708.168"/>
      <point x="831" y="838"/>
      <point x="727" y="838" type="curve" smooth="yes"/>
      <point x="637" y="838" type="line"/>
      <point x="589.409" y="820.433"/>
      <point x="520.378" y="742.933"/>
    </contour>
  </outline>
</glyph>
